<?xml version="1.0" standalone="no"?>
<!DOCTYPE svg PUBLIC "-//W3C//DTD SVG 1.1//EN" "http://www.w3.org/Graphics/SVG/1.1/DTD/svg11.dtd" >
<svg xmlns="http://www.w3.org/2000/svg" xmlns:xlink="http://www.w3.org/1999/xlink" version="1.1">
<metadata>
Created by FontForge 20170731 at Sat Feb 15 12:29:57 2014
 By Aleksey,,,
Copyright (c) 2005 by Frantisek Storm, www.stormtype.com. All rights reserved.
</metadata>
<defs>
<font id="EtelkaMediumPro-Bold" horiz-adv-x="592" >
  <font-face 
    font-family="Etelka Medium Pro"
    font-weight="700"
    font-stretch="normal"
    units-per-em="1000"
    panose-1="2 0 8 3 7 0 0 2 0 4"
    ascent="800"
    descent="-200"
    x-height="514"
    cap-height="697"
    bbox="-197 -314 1480 989"
    underline-thickness="50"
    underline-position="-250"
    unicode-range="U+0020-FB04"
  />
<missing-glyph horiz-adv-x="560" 
d="M560 0h-560v697h560v-697zM187 584l93 -139l94 139h-187zM441 488l-94 -138l94 -140v278zM280 255l-93 -140h187zM214 350l-93 138v-278z" />
    <glyph glyph-name="ff" unicode="ff" horiz-adv-x="708" 
d="M571 520v-6h151v-156h-151v-358h-183v358h-127v-358h-183v358h-81v156h81v20q0 196 205 196q106 0 181 -29q50 29 129 29q93 0 167 -28l-38 -139q-44 14 -87 14q-36 0 -50 -13t-14 -44zM261 520v-6h127v20q0 22 2 36q-36 7 -65 7q-36 0 -50 -13t-14 -44z" />
    <glyph glyph-name="fi" unicode="fi" horiz-adv-x="634" 
d="M261 514h310v-514h-183v358h-127v-358h-183v358h-81v156h81v20q0 108 66 152t210 44q109 0 206 -28l-38 -139q-73 14 -136 14q-66 0 -95.5 -13t-29.5 -44v-6z" />
    <glyph glyph-name="fl" unicode="fl" horiz-adv-x="640" 
d="M571 702v-546q0 -74 30 -130l-168 -52q-45 62 -45 177v420q-42 6 -63 6q-36 0 -50 -13t-14 -44v-6h91v-156h-91v-358h-183v358h-81v156h81v20q0 107 60.5 151.5t191.5 44.5q119 0 241 -28z" />
    <glyph glyph-name="ffi" unicode="ffi" horiz-adv-x="944" 
d="M571 514h310v-514h-183v358h-127v-358h-183v358h-127v-358h-183v358h-81v156h81v20q0 196 205 196q85 0 187 -35q67 35 194 35q109 0 206 -28l-38 -139q-73 14 -136 14q-66 0 -95.5 -13t-29.5 -44v-6zM261 520v-6h127v20q0 22 2 36q-36 7 -65 7q-36 0 -50 -13t-14 -44z
" />
    <glyph glyph-name="ffl" unicode="ffl" horiz-adv-x="950" 
d="M881 702v-546q0 -74 30 -130l-168 -52q-45 62 -45 177v420q-42 6 -63 6q-36 0 -50 -13t-14 -44v-6h91v-156h-91v-358h-183v358h-127v-358h-183v358h-81v156h81v20q0 196 205 196q89 0 183 -33q58 33 174 33q119 0 241 -28zM261 520v-6h127v20q0 22 2 36q-36 7 -65 7
q-36 0 -50 -13t-14 -44z" />
    <glyph glyph-name="fj" unicode="fj" horiz-adv-x="634" 
d="M388 1v357h-127v-358h-183v358h-81v156h81v20q0 108 66 152t210 44q109 0 206 -28l-38 -139q-73 14 -136 14q-66 0 -95.5 -13t-29.5 -44v-6h310v-507q0 -116 -58 -162q-57 -48 -196 -48v146q71 0 71 58z" />
    <glyph glyph-name="fk" unicode="fk" horiz-adv-x="950" 
d="M571 702v-702h-183v571q-42 6 -63 6q-36 0 -50 -13t-14 -44v-6h91v-156h-91v-358h-183v358h-81v156h81v20q0 107 60.5 151.5t191.5 44.5q119 0 241 -28zM950 0h-209q-146 258 -170 272q35 37 157 242h209q-111 -190 -158 -233q19 -14 67 -90q49 -77 104 -191z" />
    <glyph glyph-name="ffk" unicode="ffk" horiz-adv-x="1260" 
d="M881 702v-702h-183v571q-42 6 -63 6q-36 0 -50 -13t-14 -44v-6h91v-156h-91v-358h-183v358h-127v-358h-183v358h-81v156h81v20q0 196 205 196q89 0 183 -33q58 33 174 33q119 0 241 -28zM1260 0h-209q-146 258 -170 272q35 37 157 242h209q-111 -190 -158 -233
q19 -14 67 -90q49 -77 104 -191zM261 520v-6h127v20q0 22 2 36q-36 7 -65 7q-36 0 -50 -13t-14 -44z" />
    <glyph glyph-name="Th" unicode="Th" horiz-adv-x="1132" 
d="M1076 302v-302h-183v294q0 74 -72 74q-55 0 -55 -19v-349h-183v529h-162v-529h-192v529h-229v168h766v-197q78 29 133 29q82 0 125 -40q52 -46 52 -187z" />
    <glyph glyph-name=".notdef" horiz-adv-x="560" 
d="M560 0h-560v697h560v-697zM187 584l93 -139l94 139h-187zM441 488l-94 -138l94 -140v278zM280 255l-93 -140h187zM214 350l-93 138v-278z" />
    <glyph glyph-name=".null" horiz-adv-x="0" 
 />
    <glyph glyph-name="nonmarkingreturn" horiz-adv-x="333" 
 />
    <glyph glyph-name="space" unicode=" " horiz-adv-x="247" 
 />
    <glyph glyph-name="exclam" unicode="!" horiz-adv-x="334" 
d="M101 248l-41 449h213l-41 -449h-131zM168 184q62 0 84 -18q22 -16 22 -74q0 -63 -22 -82t-84 -19q-61 0 -83 19q-21 20 -21 82q0 58 21 74q23 18 83 18z" />
    <glyph glyph-name="quotedbl" unicode="&#x22;" horiz-adv-x="435" 
d="M56 447l-11 250h147l-19 -250h-117zM255 447l-9 250h144l-19 -250h-116z" />
    <glyph glyph-name="numbersign" unicode="#" horiz-adv-x="765" 
d="M155 415h-117l9 145h117l10 138h167l-10 -138h111l10 138h167l-10 -138h126l-9 -145h-126l-9 -124h127l-10 -144h-126l-10 -147h-167l10 147h-111l-10 -147h-167l10 147h-117l10 144h116zM433 415h-111l-9 -124h111z" />
    <glyph glyph-name="dollar" unicode="$" horiz-adv-x="621" 
d="M249 684v141h116v-135q118 -3 196 -32l-36 -155q-67 17 -160 22v-101q103 -18 154 -65.5t51 -132.5q0 -107 -47 -156.5t-158 -60.5v-146h-116v142q-122 3 -200 32l36 156q67 -19 164 -23v103q-205 30 -205 182q0 105 49.5 160t155.5 69zM216 482q0 -18 6.5 -26t26.5 -14
v77q-33 -7 -33 -37zM396 213q0 19 -5.5 27t-25.5 14v-80q31 9 31 39z" />
    <glyph glyph-name="percent" unicode="%" horiz-adv-x="1057" 
d="M213 0l462 697h163l-463 -697h-162zM441 484q0 -137 -46 -189q-47 -51 -165 -51t-165 51q-45 51 -45 189q0 134 45 182t165 48t165 -48q46 -47 46 -182zM230 369q34 0 43 18q9 19 9 97q0 72 -9 89q-9 18 -43 18q-35 0 -44 -18q-9 -17 -9 -89q0 -76 9 -96q9 -19 44 -19z
M1037 226q0 -137 -46 -189q-47 -51 -165 -51t-165 51q-45 51 -45 189q0 134 45 182t165 48t165 -48q46 -47 46 -182zM826 111q34 0 43 18q9 19 9 97q0 72 -9 89q-9 18 -43 18q-35 0 -44 -18q-9 -17 -9 -89q0 -76 9 -96q9 -19 44 -19z" />
    <glyph glyph-name="ampersand" unicode="&#x26;" horiz-adv-x="834" 
d="M704 152l116 -152h-219q-30 40 -35 47q-119 -61 -251 -61q-161 0 -220 42q-58 43 -58 152q0 84 47.5 126t147.5 47q-90 8 -121 45t-31 119q0 55 10.5 88t37.5 59q51 50 217 50q155 0 210 -39t55 -140q0 -78 -40.5 -116.5t-132.5 -45.5q55 -3 147 -87q22 45 22 106h199
q0 -130 -101 -240zM317 274q-44 0 -60.5 -14t-16.5 -52q0 -40 15 -53.5t61 -13.5q83 0 149 31q-83 102 -148 102zM417 495q0 37 -15 49t-56 12q-43 0 -58 -12t-15 -49q0 -35 15 -48t55 -13t57 13.5t17 47.5z" />
    <glyph glyph-name="quotesingle" unicode="'" horiz-adv-x="237" 
d="M56 447l-11 250h147l-19 -250h-117z" />
    <glyph glyph-name="parenleft" unicode="(" horiz-adv-x="351" 
d="M308 836l83 -133q-65 -40 -98 -136q-33 -97 -33 -288q0 -190 33 -287q33 -98 98 -137l-83 -133q-111 44 -175.5 188.5t-64.5 368.5t64.5 368.5t175.5 188.5z" />
    <glyph glyph-name="parenright" unicode=")" horiz-adv-x="351" 
d="M43 -278l-83 133q65 40 98 136q33 97 33 288q0 189 -33 287t-98 137l83 133q111 -44 175.5 -188.5t64.5 -368.5t-64.5 -368.5t-175.5 -188.5z" />
    <glyph glyph-name="asterisk" unicode="*" horiz-adv-x="569" 
d="M156 440h-126v147h126l-64 110l130 74l63 -110l62 110l130 -74l-65 -110h127v-147h-127l64 -109l-130 -73l-61 107l-63 -107l-130 74z" />
    <glyph glyph-name="plus" unicode="+" horiz-adv-x="543" 
d="M183 278h-158v176h158v159h176v-159h159v-176h-159v-158h-176v158z" />
    <glyph glyph-name="comma" unicode="," horiz-adv-x="314" 
d="M76 108h204l-121 -267h-162z" />
    <glyph glyph-name="hyphen" unicode="-" horiz-adv-x="331" 
d="M306 200h-281v176h281v-176z" />
    <glyph glyph-name="hyphen" unicode="&#xad;" horiz-adv-x="331" 
d="M306 200h-281v176h281v-176z" />
    <glyph glyph-name="period" unicode="." horiz-adv-x="314" 
d="M156 184q62 0 84 -18q22 -16 22 -74q0 -63 -22 -82t-84 -19q-61 0 -83 19q-21 20 -21 82q0 58 21 74q23 18 83 18z" />
    <glyph glyph-name="slash" unicode="/" horiz-adv-x="507" 
d="M-11 0l356 697h193l-356 -697h-193z" />
    <glyph glyph-name="zero" unicode="0" horiz-adv-x="630" 
d="M592 358q0 -207 -68 -290q-67 -82 -209 -82q-143 0 -210 82t-67 290q0 138 33 217q32 78 88.5 108.5t155.5 30.5q95 0 153 -30q124 -63 124 -326zM403 358q0 92 -7 135q-5 20 -15.5 30t-19 11.5t-36.5 3.5q-6 1 -9 1q-32 0 -49 -5.5t-25 -22.5q-3 -6 -8 -33
q-5 -36 -5 -120q0 -92 8 -145q5 -23 15.5 -33.5t21.5 -12.5t42 -4q44 0 65 17q11 9 15 33q7 46 7 145z" />
    <glyph glyph-name="one" unicode="1" horiz-adv-x="630" 
d="M449 731v-731h-187v491l-156 -59l-49 163z" />
    <glyph glyph-name="two" unicode="2" horiz-adv-x="630" 
d="M89 515l-39 162q98 37 252 37q73 0 118 -8.5t79 -31.5q68 -44 68 -174q0 -82 -28 -137q-13 -28 -48 -58q-33 -29 -76 -59q-41 -28 -117 -78h275v-168h-540v156q228 166 276 209q48 45 52 84q2 14 2 30q0 37 -17 50t-66 13q-98 0 -191 -27z" />
    <glyph glyph-name="three" unicode="3" horiz-adv-x="630" 
d="M297 276h-118v165h113q37 0 48.5 8.5t11.5 38.5q0 31 -22 41q-21 10 -98 10q-95 0 -158 -17l-34 168q111 24 243 24q158 0 216 -40q58 -39 58 -145q0 -82 -31 -120q-32 -37 -120 -45q93 -4 129 -45t36 -134q0 -110 -65 -155q-65 -44 -223 -44q-135 0 -245 22l34 172
q60 -17 160 -17q81 0 106 11q24 10 24 45q0 34 -14 45.5t-51 11.5z" />
    <glyph glyph-name="four" unicode="4" horiz-adv-x="630" 
d="M341 0v154h-342v68q176 312 287 475h237v-383h87v-160h-87v-154h-182zM222 314h119v200q-64 -95 -119 -200z" />
    <glyph glyph-name="five" unicode="5" horiz-adv-x="630" 
d="M82 275v422h470v-168h-291v-85q50 2 54 2q150 0 203 -49q54 -48 54 -170q0 -140 -59 -191q-59 -50 -217 -50q-59 0 -130 7q-78 6 -115 15l34 172q54 -17 160 -17q79 0 98 9q20 9 20 50q0 40 -20 51q-19 10 -102 10q-84 0 -159 -8z" />
    <glyph glyph-name="six" unicode="6" horiz-adv-x="630" 
d="M365 714q115 0 206 -24l-34 -168q-56 17 -172 17q-62 0 -85 -17t-29 -81q37 5 83 5q150 0 205 -49q56 -48 56 -170q0 -140 -58 -191q-59 -50 -216 -50q-155 0 -216 79t-61 290q0 143 29 221q30 76 97 107q66 31 195 31zM397 222q0 38 -17 50q-16 13 -74 13q-1 0 -58 -3
q3 -76 17 -98q15 -21 56 -21q46 0 61 12t15 47z" />
    <glyph glyph-name="seven" unicode="7" horiz-adv-x="630" 
d="M44 697h576v-53q-55 -86 -154 -301q-95 -210 -138 -343h-216q58 160 127 308q75 159 127 221h-322v168z" />
    <glyph glyph-name="eight" unicode="8" horiz-adv-x="630" 
d="M393 208q0 43 -16.5 60t-60.5 17q-45 0 -61.5 -17t-16.5 -60q0 -40 16 -53.5t62 -13.5t61.5 13.5t15.5 53.5zM316 432q39 0 55 14t16 49q0 37 -15 49t-56 12q-43 0 -58 -12t-15 -49q0 -35 16.5 -49t56.5 -14zM316 -14h-1q-159 0 -218 44q-58 45 -58 155q0 92 34 133
t129 46q-90 8 -121 45q-31 38 -31 120q0 70 19 107q41 78 246 78q110 0 168 -20q56 -20 76.5 -56.5t20.5 -108.5q0 -80 -32 -120q-32 -37 -120 -45q95 -5 129 -46t34 -133q0 -110 -58 -155q-58 -44 -217 -44z" />
    <glyph glyph-name="nine" unicode="9" horiz-adv-x="630" 
d="M382 0h-229q137 153 190 255h-38q-151 0 -206 48q-55 49 -55 171q0 141 58 190q59 50 216 50q116 0 174 -24q60 -22 81 -72q22 -48 22 -143q0 -133 -52.5 -247t-160.5 -228zM333 416q43 0 56 1q2 18 2 42q0 50 -13 64q-12 15 -60 15q-47 0 -61.5 -11.5t-14.5 -48.5
q0 -40 15 -51q17 -11 76 -11z" />
    <glyph glyph-name="colon" unicode=":" horiz-adv-x="314" 
d="M156 184q62 0 84 -18q22 -16 22 -74q0 -63 -22 -82t-84 -19q-61 0 -83 19q-21 20 -21 82q0 58 21 74q23 18 83 18zM156 525q62 0 84 -17q22 -16 22 -75q0 -62 -22 -81t-84 -19q-61 0 -83 19q-21 20 -21 81q0 59 21 75q23 17 83 17z" />
    <glyph glyph-name="semicolon" unicode=";" horiz-adv-x="314" 
d="M76 108h204l-121 -267h-162zM156 525q62 0 84 -17q22 -16 22 -75q0 -62 -22 -81t-84 -19q-61 0 -83 19q-21 20 -21 81q0 59 21 75q23 17 83 17z" />
    <glyph glyph-name="less" unicode="&#x3c;" horiz-adv-x="543" 
d="M420 686l94 -133l-216 -186l216 -189l-93 -135l-363 278v88z" />
    <glyph glyph-name="equal" unicode="=" horiz-adv-x="543" 
d="M518 115h-493v176h493v-176zM518 444h-493v176h493v-176z" />
    <glyph glyph-name="greater" unicode="&#x3e;" horiz-adv-x="543" 
d="M152 44l-94 133l216 186l-216 189l93 135l363 -278v-88z" />
    <glyph glyph-name="question" unicode="?" horiz-adv-x="601" 
d="M245 184q61 0 84 -18q22 -16 22 -74q0 -63 -22 -82t-84 -19q-61 0 -83 19q-21 20 -21 82q0 58 21 74q22 18 83 18zM340 274v-49h-179v192h59q85 0 105 10q22 10 22 51q0 40 -16 49q-14 10 -71 10q-111 0 -176 -17l-34 172q106 22 225 22q159 0 217 -51q59 -50 59 -190
q0 -114 -52 -157q-53 -42 -159 -42z" />
    <glyph glyph-name="at" unicode="@" horiz-adv-x="946" 
d="M437 488q-78 0 -117.5 -7.5t-68.5 -29.5q-28 -22 -38 -62t-10 -116q0 -83 10.5 -126t41.5 -70t78.5 -36t139.5 -9q90 0 140.5 12t80.5 44q31 33 42.5 83.5t11.5 141.5q0 109 -19 159h153q18 -70 18 -165q0 -237 -97 -328q-98 -92 -328 -92q-121 0 -198.5 18t-130.5 60
t-76.5 114.5t-23.5 187.5q0 172 69 257q34 41 84 65q91 44 241 44q80 0 125.5 -11.5t76.5 -42.5t43.5 -85t12.5 -148q0 -90 -9.5 -135.5t-38.5 -72.5q-28 -28 -71 -36q-39 -7 -121 -7q-122 0 -162 34t-40 134q0 99 37 132q37 34 142 34q59 0 99 -9q-2 40 -18 54
q-17 14 -79 14zM476 310q-31 0 -41 -8t-10 -34q0 -27 10.5 -34.5t47.5 -7.5q28 0 39.5 8t11.5 31v41q-21 4 -58 4z" />
    <glyph glyph-name="A" unicode="A" horiz-adv-x="696" 
d="M211 697h291q109 -371 240 -697h-211q-24 56 -50 134h-270l-36 -134h-207q36 128 111 344q71 205 132 353zM358 529h-25q-24 -66 -74 -230h167q-39 122 -68 230z" />
    <glyph glyph-name="B" unicode="B" horiz-adv-x="735" 
d="M267 281v-118h168q36 0 36 57q0 61 -40 61h-164zM432 534h-165v-98h165q16 0 22.5 9.5t6.5 38.5q0 50 -29 50zM515 364q95 -5 129 -46t34 -133q0 -99 -46.5 -142t-140.5 -43h-415v697h415q101 0 138 -39q38 -38 38 -129q0 -80 -32 -120q-31 -37 -120 -45z" />
    <glyph glyph-name="C" unicode="C" horiz-adv-x="583" 
d="M44 355q0 209 83 286q42 40 100.5 56.5t150.5 16.5q114 0 205 -24l-34 -168q-54 17 -126 17q-57 0 -84.5 -5.5t-50.5 -23.5q-40 -31 -40 -157q0 -67 8.5 -103.5t31.5 -56.5q23 -18 51.5 -24t83.5 -6q72 0 126 17l34 -172q-89 -22 -205 -22q-176 0 -255 81q-79 80 -79 288
z" />
    <glyph glyph-name="D" unicode="D" horiz-adv-x="770" 
d="M76 0v697h316q90 0 149 -16t101 -54q84 -73 84 -274q0 -198 -80 -276q-80 -77 -254 -77h-316zM522 350q0 70 -6 102t-25 50q-18 18 -45 23q-23 4 -79 4h-100v-360h100q73 0 109 16q27 16 35.5 49.5t10.5 115.5z" />
    <glyph glyph-name="E" unicode="E" horiz-adv-x="631" 
d="M76 0v697h534v-168h-343v-88h247v-165h-247v-108h343v-168h-534z" />
    <glyph glyph-name="F" unicode="F" horiz-adv-x="597" 
d="M76 0v697h521v-168h-330v-126h247v-165h-247v-238h-191z" />
    <glyph glyph-name="G" unicode="G" horiz-adv-x="724" 
d="M464 165v111h-123v165h320v-418q-49 -16 -129 -26q-85 -11 -154 -11q-176 0 -255 81q-79 80 -79 288t97 286q92 73 275 73q134 0 225 -24l-31 -168q-22 8 -81 12q-65 5 -93 5q-55 0 -90 -5q-30 -4 -56 -24q-24 -17 -33 -53t-9 -104q0 -67 8.5 -103.5t31.5 -56.5
q23 -18 51.5 -24t83.5 -6q7 0 41 2z" />
    <glyph glyph-name="H" unicode="H" horiz-adv-x="759" 
d="M493 278h-226v-278h-191v697h191v-241h226v241h190v-697h-190v278z" />
    <glyph glyph-name="I" unicode="I" horiz-adv-x="343" 
d="M76 0v697h191v-697h-191z" />
    <glyph glyph-name="J" unicode="J" horiz-adv-x="483" 
d="M220 697h192l1 -505q0 -57 -20 -99t-54.5 -64.5t-73.5 -32.5t-85 -10q-104 0 -180 25l28 169q57 -17 126 -17q66 0 66 64v470z" />
    <glyph glyph-name="K" unicode="K" horiz-adv-x="707" 
d="M76 697h191v-697h-191v697zM726 0h-227q-79 162 -141 257q-63 97 -90 111q30 29 88 116q62 92 128 213h225q-145 -252 -209 -320q28 -25 89 -122q65 -104 137 -255z" />
    <glyph glyph-name="L" unicode="L" horiz-adv-x="556" 
d="M76 0v697h191v-529h298v-168h-489z" />
    <glyph glyph-name="M" unicode="M" horiz-adv-x="963" 
d="M491 328q80 213 155 369h241v-697h-185v422q-73 -163 -150 -370h-153q-94 270 -139 370v-422h-184v697h252q73 -145 163 -369z" />
    <glyph glyph-name="N" unicode="N" horiz-adv-x="818" 
d="M553 697h189v-697h-237q-104 193 -243 427v-427h-186v697h247q118 -200 230 -415v415z" />
    <glyph glyph-name="O" unicode="O" horiz-adv-x="781" 
d="M391 714q174 0 257 -72q89 -77 89 -284q0 -211 -90 -294q-84 -78 -256 -78q-173 0 -258 78q-89 83 -89 294q0 205 89 284q45 39 106 55.5t152 16.5zM533 356q0 37 -2 71q-2 59 -21 82q-16 17 -42 23t-77 5q-52 1 -78 -5t-42 -23q-8 -12 -14 -33q-9 -33 -9 -120
q0 -58 1 -77q5 -64 22 -87q13 -18 40.5 -24.5t79.5 -6.5q90 -3 119 31q8 11 14 35q9 36 9 129z" />
    <glyph glyph-name="P" unicode="P" horiz-adv-x="696" 
d="M267 534v-174h150q54 0 54 86q0 88 -53 88h-151zM267 205v-205h-191v697h415q189 0 189 -251q0 -103 -50 -173q-50 -68 -139 -68h-224z" />
    <glyph glyph-name="Q" unicode="Q" horiz-adv-x="781" 
d="M391 714q174 0 257 -72q89 -77 89 -284q0 -276 -165 -320q62 -23 203 -230h-217q-101 171 -167 178q-173 0 -258 78q-89 83 -89 294q0 205 89 284q45 39 106 55.5t152 16.5zM533 356q0 37 -2 71q-2 59 -21 82q-16 17 -42 23t-77 5q-52 1 -78 -5t-42 -23q-8 -12 -14 -33
q-9 -33 -9 -120q0 -58 1 -77q5 -64 22 -87q13 -18 40.5 -24.5t79.5 -6.5q90 -3 119 31q8 11 14 35q9 36 9 129z" />
    <glyph glyph-name="R" unicode="R" horiz-adv-x="738" 
d="M428 534h-161v-148h160q40 0 40 73q0 75 -39 75zM515 295q36 -13 79 -70q44 -55 144 -225h-237q-81 141 -116 184q-38 47 -67 47h-51v-231h-191v697h415q96 0 142.5 -53.5t46.5 -150.5q0 -185 -165 -198z" />
    <glyph glyph-name="S" unicode="S" horiz-adv-x="621" 
d="M350 714q140 0 233 -35l-37 -162q-89 22 -198 22q-66 0 -88.5 -10t-22.5 -35q0 -28 22 -38q20 -9 107 -20q120 -15 173.5 -65.5t53.5 -149.5q0 -133 -71 -184q-70 -51 -247 -51q-140 0 -236 35l38 163q97 -23 195 -23q71 0 92 9q22 10 22 37t-24 38q-27 12 -118 22
q-112 13 -161 58t-49 139q0 133 74.5 191.5t241.5 58.5z" />
    <glyph glyph-name="T" unicode="T" horiz-adv-x="650" 
d="M421 529v-529h-192v529h-229v168h650v-168h-229z" />
    <glyph glyph-name="U" unicode="U" horiz-adv-x="747" 
d="M486 222v475h192v-517q0 -112 -85 -155q-78 -39 -220 -39q-155 0 -229.5 44.5t-74.5 149.5v517h192v-475q0 -31 25 -44t87 -13t87.5 13.5t25.5 43.5z" />
    <glyph glyph-name="V" unicode="V" horiz-adv-x="658" 
d="M-44 697h210q32 -76 89 -240t79 -244q73 199 149 484h206q-36 -129 -111 -339q-81 -225 -136 -358h-243q-51 175 -120 370q-69 200 -123 327z" />
    <glyph glyph-name="W" unicode="W" horiz-adv-x="1046" 
d="M525 363q-39 -165 -98 -363h-243q-98 419 -194 697h207q77 -228 124 -443q88 287 119 443h170q71 -223 124 -443q69 222 111 443h201q-29 -128 -90 -340q-55 -197 -107 -357h-243q-33 168 -81 363z" />
    <glyph glyph-name="X" unicode="X" horiz-adv-x="701" 
d="M-21 697h252l127 -174q81 118 109 174h240q-79 -123 -229 -343q175 -249 241 -354h-241q-57 91 -121 183q-91 -125 -137 -183h-240q82 104 257 352q-181 250 -258 345z" />
    <glyph glyph-name="Y" unicode="Y" horiz-adv-x="669" 
d="M-71 697h254l165 -227q111 162 148 227h237q-102 -162 -291 -430v-267h-191v266q-229 319 -322 431z" />
    <glyph glyph-name="Z" unicode="Z" horiz-adv-x="634" 
d="M628 0h-615v36q188 289 305 493h-287v168h593v-34q-44 -82 -148 -252q-111 -179 -157 -243h309v-168z" />
    <glyph glyph-name="bracketleft" unicode="[" horiz-adv-x="416" 
d="M94 -260v1075h340v-158h-151v-760h151v-157h-340z" />
    <glyph glyph-name="backslash" unicode="\" horiz-adv-x="507" 
d="M346 0l-356 697h193l356 -697h-193z" />
    <glyph glyph-name="bracketright" unicode="]" horiz-adv-x="416" 
d="M-18 657v158h340v-1075h-340v157h151v760h-151z" />
    <glyph glyph-name="asciicircum" unicode="^" horiz-adv-x="591" 
d="M575 296h-199l-82 195l-80 -195h-197l193 401h169z" />
    <glyph glyph-name="underscore" unicode="_" horiz-adv-x="543" 
d="M518 -203h-493v176h493v-176z" />
    <glyph glyph-name="grave" unicode="`" horiz-adv-x="469" 
d="M266 697l124 -129h-150l-156 129h182z" />
    <glyph glyph-name="a" unicode="a" horiz-adv-x="578" 
d="M522 329v-303q-116 -40 -256 -40q-133 0 -179 34q-45 34 -45 136q0 101 48 134t152 33q48 0 107 -12q0 44 -19 57q-18 15 -86 15q-73 0 -163 -25l-26 143q113 28 237 28q122 0 176 -45.5t54 -154.5zM349 129v69q-25 5 -65 5q-33 0 -44 -8t-11 -34q0 -27 9.5 -35t42.5 -8
q37 0 68 11z" />
    <glyph glyph-name="b" unicode="b" horiz-adv-x="604" 
d="M246 349v-209q27 -11 58 -11q46 0 61 23q16 22 16 108q0 67 -15 90t-57 23q-27 0 -45 -7t-18 -17zM63 21v701h183v-219q60 26 124 26q100 0 146 -58q47 -59 47 -206q0 -156 -61 -217q-60 -62 -198 -62q-144 0 -241 35z" />
    <glyph glyph-name="c" unicode="c" horiz-adv-x="474" 
d="M430 163l36 -152q-65 -25 -167 -25q-128 0 -193.5 64.5t-65.5 209.5q0 147 67.5 208t191.5 61q104 0 167 -22l-36 -152q-69 20 -113 20q-47 0 -69 -17q-25 -20 -25 -101q0 -73 21 -95q22 -21 73 -21q56 0 113 22z" />
    <glyph glyph-name="d" unicode="d" horiz-adv-x="604" 
d="M358 146v208q0 11 -17.5 19.5t-43.5 8.5q-42 0 -58 -25.5t-16 -93.5q0 -79 16 -102q17 -24 61 -24q36 0 58 9zM358 722h183v-701q-99 -35 -241 -35q-138 0 -200 60q-60 60 -60 214q0 269 213 269q54 0 105 -16v209z" />
    <glyph glyph-name="e" unicode="e" horiz-adv-x="559" 
d="M462 150l26 -136q-83 -28 -191 -28q-257 0 -257 274q0 148 63 208q64 61 183 61q75 0 119 -13t76 -47q62 -65 49 -270h-303q1 -37 22 -50t72 -13q76 0 141 14zM296 394q-35 0 -48 -12.5t-20 -51.5h132q-1 39 -14 51.5t-50 12.5z" />
    <glyph glyph-name="f" unicode="f" horiz-adv-x="398" 
d="M261 520v-6h151v-156h-151v-358h-183v358h-81v156h81v20q0 196 205 196q93 0 167 -28l-38 -139q-44 14 -87 14q-36 0 -50 -13t-14 -44z" />
    <glyph glyph-name="g" unicode="g" horiz-adv-x="604" 
d="M358 166v209q-29 12 -58 12q-46 0 -62 -24q-15 -23 -15 -107q0 -68 14 -91q15 -23 58 -23q27 0 45 7t18 17zM541 494v-452q0 -153 -87 -203q-74 -43 -207 -43q-107 0 -195 30l30 139q94 -21 162 -21q58 0 86 16.5t28 54.5q-56 -25 -119 -25q-101 0 -150 57
q-49 56 -49 204q0 155 61 216q62 62 199 62q142 0 241 -35z" />
    <glyph glyph-name="h" unicode="h" horiz-adv-x="612" 
d="M556 302v-302h-183v294q0 74 -72 74q-55 0 -55 -19v-349h-183v722h183v-222q78 29 133 29q82 0 125 -40q52 -46 52 -187z" />
    <glyph glyph-name="i" unicode="i" horiz-adv-x="307" 
d="M63 514h183v-514h-183v514zM256 662q0 -58 -21 -76t-81 -18t-81 18t-21 76q0 53 21 68q20 16 81 16t81 -16q21 -15 21 -68z" />
    <glyph glyph-name="j" unicode="j" horiz-adv-x="307" 
d="M256 662q0 -58 -21 -76t-81 -18t-81 18t-21 76q0 53 21 68q20 16 81 16t81 -16q21 -15 21 -68zM63 514h183v-507q0 -116 -58 -162q-57 -48 -196 -48v146q71 0 71 58v513z" />
    <glyph glyph-name="k" unicode="k" horiz-adv-x="625" 
d="M625 0h-209q-146 258 -170 272v-272h-183v722h183v-450q35 37 157 242h209q-111 -190 -158 -233q19 -14 67 -90q49 -77 104 -191z" />
    <glyph glyph-name="l" unicode="l" horiz-adv-x="315" 
d="M63 722h183v-566q0 -74 30 -130l-168 -52q-45 62 -45 177v571z" />
    <glyph glyph-name="m" unicode="m" horiz-adv-x="902" 
d="M246 360v-360h-183v481q144 48 273 48q78 0 125 -33q95 33 175 33q110 0 159.5 -57t49.5 -189v-283h-182v271q0 57 -13 76.5t-54 19.5q-9 0 -57 -5q7 -39 7 -79v-283h-183v271q0 57 -13 76.5t-54 19.5q-23 0 -50 -7z" />
    <glyph glyph-name="n" unicode="n" horiz-adv-x="612" 
d="M246 360v-360h-183v481q144 48 278 48q111 0 163 -57.5t52 -188.5v-283h-183v271q0 57 -14 76.5t-58 19.5q-20 0 -55 -7z" />
    <glyph glyph-name="o" unicode="o" 
d="M295 -14q-133 0 -194 60q-61 61 -61 214q0 151 62 210t193 59q133 0 195 -59t62 -210q0 -152 -62 -214q-62 -60 -195 -60zM295 389q-45 0 -59 -23q-13 -22 -13 -109q0 -85 14 -108t58 -23q45 0 59 23t14 108q0 86 -14 109t-59 23z" />
    <glyph glyph-name="p" unicode="p" horiz-adv-x="604" 
d="M246 369v-208q0 -11 17 -19t43 -8q43 0 59 25.5t16 92.5q0 79 -16 102q-17 24 -61 24q-36 0 -58 -9zM246 -192h-183v686q97 35 241 35q139 0 199 -60q60 -59 60 -213q0 -270 -213 -270q-45 0 -104 17v-195z" />
    <glyph glyph-name="q" unicode="q" horiz-adv-x="604" 
d="M358 166v209q-29 12 -58 12q-46 0 -62 -24q-15 -23 -15 -107q0 -68 14 -91q15 -23 58 -23q27 0 45 7t18 17zM541 494v-686h-183v205q-62 -27 -125 -27q-100 0 -146 58q-47 59 -47 207q0 155 61 216q62 62 199 62q142 0 241 -35z" />
    <glyph glyph-name="r" unicode="r" horiz-adv-x="415" 
d="M246 0h-183v514h183v-41q30 56 118 56q22 0 51 -3v-169q-29 10 -78 10q-39 0 -65 -13t-26 -34v-320z" />
    <glyph glyph-name="s" unicode="s" horiz-adv-x="478" 
d="M443 500l-32 -132q-82 20 -153 20q-32 0 -43 -5t-11 -23q0 -15 13 -19q19 -6 70 -13q92 -14 128 -47q39 -34 39 -113q0 -182 -241 -182q-107 0 -182 28l33 135q72 -19 140 -19q44 0 60 5.5t16 23.5q0 15 -18 21.5t-77 12.5q-84 8 -119.5 42t-35.5 113q0 181 236 181
q99 0 177 -29z" />
    <glyph glyph-name="t" unicode="t" horiz-adv-x="438" 
d="M422 514v-156h-151v-163q0 -31 13 -43.5t48 -12.5t77 13l29 -138q-68 -28 -169 -28q-92 0 -137 39q-44 41 -44 149v184h-81v156h81v66l183 74v-140h151z" />
    <glyph glyph-name="u" unicode="u" horiz-adv-x="612" 
d="M367 155v359h182v-480q-144 -48 -278 -48q-111 0 -162.5 57.5t-51.5 188.5v282h182v-271q0 -57 14 -76t58 -19q20 0 56 7z" />
    <glyph glyph-name="v" unicode="v" horiz-adv-x="513" 
d="M-24 514h184q50 -140 97 -326q60 182 93 326h180q-79 -271 -177 -514h-214q-72 256 -163 514z" />
    <glyph glyph-name="w" unicode="w" horiz-adv-x="847" 
d="M420 253q-21 -112 -67 -253h-214q-72 256 -163 514h184q54 -149 97 -321q41 128 89 321h158q56 -178 87 -321q65 197 93 321h180q-85 -288 -177 -514h-215q-16 94 -52 253z" />
    <glyph glyph-name="x" unicode="x" horiz-adv-x="520" 
d="M346 514h196q-44 -73 -173 -253q131 -192 174 -261h-198q-19 33 -77 119l-90 -119h-197q52 60 193 256q-115 165 -190 258h206q22 -29 82 -115q45 65 74 115z" />
    <glyph glyph-name="y" unicode="y" horiz-adv-x="513" 
d="M350 514h180q-105 -371 -264 -706h-200q40 68 84 166q-60 218 -174 540h184q50 -140 97 -326q60 182 93 326z" />
    <glyph glyph-name="z" unicode="z" horiz-adv-x="499" 
d="M19 358v156h477v-25q-86 -151 -215 -333h199v-156h-479v24q59 83 121 179q74 114 95 155h-198z" />
    <glyph glyph-name="braceleft" unicode="{" horiz-adv-x="418" 
d="M47 203v152q50 0 81 60.5t31 170.5q0 121 59 180q49 49 121 73l86 -134q-35 -15 -53 -33q-40 -40 -40 -166q0 -98 -29 -159q-29 -59 -59 -68q31 -9 59 -70q29 -63 29 -161q0 -100 19 -137q20 -39 74 -61l-86 -131q-72 24 -121 73q-59 59 -59 180q0 110 -31 170.5
t-81 60.5z" />
    <glyph glyph-name="bar" unicode="|" horiz-adv-x="431" 
d="M120 -256v1011h191v-1011h-191z" />
    <glyph glyph-name="braceright" unicode="}" horiz-adv-x="418" 
d="M371 355v-152q-50 0 -81 -60.5t-31 -170.5q0 -123 -60 -180q-46 -48 -120 -73l-86 134q35 15 53 33q40 40 40 166q0 101 28 158q28 60 60 69q-32 9 -60 70q-28 60 -28 161q0 99 -20 137q-20 39 -73 61l86 131q74 -25 120 -73q60 -57 60 -180q0 -110 31 -170.5t81 -60.5z
" />
    <glyph glyph-name="asciitilde" unicode="~" horiz-adv-x="543" 
d="M426 465l112 -91q-21 -56 -67.5 -92t-107.5 -36q-34 -1 -70.5 20t-68.5 42t-54 20q-19 0 -32.5 -12t-27.5 -43l-102 101q63 107 154 107q39 1 79.5 -19.5t72.5 -41t50 -19.5q23 0 35.5 13t26.5 51z" />
    <glyph glyph-name="nbspace" unicode="&#xa0;" horiz-adv-x="247" 
 />
    <glyph glyph-name="exclamdown" unicode="&#xa1;" horiz-adv-x="334" 
d="M233 272l41 -449h-213l41 449h131zM166 336q-61 0 -84 17q-22 18 -22 75q0 63 22 82t84 19q60 0 82 -20q22 -19 22 -81q0 -57 -22 -75q-22 -17 -82 -17z" />
    <glyph glyph-name="cent" unicode="&#xa2;" horiz-adv-x="451" 
d="M229 638v108h136v-108q45 -4 82 -17l-34 -144q-18 7 -48 8v-227q27 1 48 10l34 -143q-29 -12 -82 -20v-119h-136v118q-189 32 -189 270q0 236 189 264zM205 371q0 -71 24 -98v199q-24 -28 -24 -101z" />
    <glyph glyph-name="sterling" unicode="&#xa3;" horiz-adv-x="621" 
d="M76 267h-51v149h51v48q0 130 72 190t232 60q140 0 233 -35l-37 -162q-89 22 -198 22q-70 0 -90 -13q-21 -12 -21 -46v-64h202v-149h-202v-99h318v-168h-509v267z" />
    <glyph glyph-name="currency" unicode="&#xa4;" horiz-adv-x="701" 
d="M355 83q-43 0 -68 4l-67 -87l-161 104l68 93q-27 60 -27 160q0 90 23 150l-67 86l172 104l58 -76q38 5 69 5t68 -4l47 75l173 -103l-57 -81q26 -61 26 -156t-26 -158l64 -95l-172 -104l-56 87q-25 -4 -67 -4zM355 476q-29 0 -39.5 -2.5t-22.5 -13.5q-20 -19 -20 -106
q0 -85 20 -105q11 -11 23 -13.5t39 -2.5q28 0 39.5 2.5t22.5 13.5q21 20 21 105q0 87 -21 106q-11 11 -22 13.5t-40 2.5z" />
    <glyph glyph-name="yen" unicode="&#xa5;" horiz-adv-x="669" 
d="M251 243h-152v125h78q-176 241 -248 329h254l165 -227q111 162 148 227h237q-69 -111 -220 -329h68v-125h-139v-59h139v-125h-139v-59h-191v59h-152v125h152v59z" />
    <glyph glyph-name="brokenbar" unicode="&#xa6;" horiz-adv-x="431" 
d="M120 388v367h191v-367h-191zM120 -256v367h191v-367h-191z" />
    <glyph glyph-name="section" unicode="&#xa7;" horiz-adv-x="621" 
d="M568 681l-34 -151q-79 21 -181 21q-60 0 -80.5 -9.5t-20.5 -32.5q0 -26 19 -35q18 -8 99 -19q114 -15 170.5 -63.5t56.5 -137.5q0 -66 -52 -119q31 -41 31 -105q0 -122 -76 -177.5t-233 -55.5q-131 0 -213 33l34 151q80 -21 181 -21q60 0 80.5 9.5t20.5 32.5q0 26 -20 35
q-18 8 -98 19q-114 15 -170.5 63.5t-56.5 137.5q0 72 47 125q-26 41 -26 99q0 122 76 177.5t233 55.5q131 0 213 -33zM258 297l-23 2q-21 -9 -21 -29q0 -26 25 -36q23 -9 125 -20l22 -3q22 10 22 30q0 26 -25 36q-23 9 -125 20z" />
    <glyph glyph-name="dieresis" unicode="&#xa8;" horiz-adv-x="517" 
d="M129 706q47 0 62.5 -14t15.5 -58q0 -48 -16 -64t-62 -16t-61.5 16t-15.5 64q0 44 15.5 58t61.5 14zM367 706q46 0 61.5 -14t15.5 -58q0 -48 -15.5 -64t-61.5 -16q-47 0 -62.5 15.5t-15.5 64.5q0 45 15 58.5t63 13.5z" />
    <glyph glyph-name="copyright" unicode="&#xa9;" horiz-adv-x="801" 
d="M757 358q0 -206 -89 -289t-267 -83q-180 0 -269 83q-88 82 -88 289q0 206 94 284q89 72 263 72t261 -72q95 -77 95 -284zM401 110q44 0 71 3q66 7 93 37q44 54 44 208q0 82 -9.5 126t-35.5 67t-59 29.5t-104 6.5q-67 0 -102 -6q-33 -6 -62 -30q-26 -23 -35.5 -67
t-9.5 -126q0 -88 9.5 -135t35.5 -72t60.5 -33t103.5 -8zM531 287l28 -116q-54 -20 -123 -20q-107 0 -153 36q-49 39 -49 166q0 124 49 162q26 21 60 28.5t93 7.5q74 0 123 -18l-28 -116q-41 11 -82 11q-40 0 -53.5 -14t-13.5 -63q0 -46 14 -61t53 -15q51 0 82 12z" />
    <glyph glyph-name="ordfeminine" unicode="&#xaa;" horiz-adv-x="464" 
d="M404 578v-222q-80 -28 -187 -28q-93 0 -125 24t-32 96q0 70 32 94.5t109 24.5q34 0 74 -8q0 30 -13 39t-60 9q-62 0 -114 -15l-18 102q86 20 166 20q86 0 127 -32t41 -104zM275 429v49q-15 4 -44 4q-22 0 -30 -6t-8 -24q0 -20 6.5 -25.5t29.5 -5.5q24 0 46 8z" />
    <glyph glyph-name="guillemotleft" unicode="&#xab;" horiz-adv-x="742" 
d="M292 616l104 -103l-136 -186l136 -189l-103 -105l-273 292zM618 616l104 -103l-136 -186l136 -189l-103 -105l-273 292z" />
    <glyph glyph-name="logicalnot" unicode="&#xac;" horiz-adv-x="543" 
d="M329 278h-304v176h493v-454h-189v278z" />
    <glyph glyph-name="registered" unicode="&#xae;" horiz-adv-x="576" 
d="M289 714q136 0 196 -57q60 -55 60 -205q0 -148 -60 -206q-59 -58 -196 -58t-198 58q-60 58 -60 206q0 150 60 205q61 57 198 57zM289 618q-48 0 -73.5 -6t-43.5 -23q-33 -30 -33 -137q0 -102 31 -134q32 -32 119 -32t118 31h-101q0 28 -7.5 46t-16.5 18h-8v-64h-100v272
h177q36 0 55.5 -25t19.5 -65q0 -43 -17 -60t-55 -17q15 -7 25 -15q25 -19 29 -89q32 34 32 134q0 74 -15 108q-15 35 -43.5 46.5t-92.5 11.5zM309 510h-35v-36h35q13 0 13 18t-13 18z" />
    <glyph glyph-name="overscore" unicode="&#xaf;" horiz-adv-x="508" 
d="M415 567h-305v122h305v-122z" />
    <glyph glyph-name="overscore" unicode="&#x2c9;" horiz-adv-x="508" 
d="M415 567h-305v122h305v-122z" />
    <glyph glyph-name="degree" unicode="&#xb0;" horiz-adv-x="461" 
d="M441 484q0 -137 -46 -189q-47 -51 -165 -51t-165 51q-45 51 -45 189q0 134 45 182t165 48t165 -48q46 -47 46 -182zM230 369q34 0 43 18q9 19 9 97q0 72 -9 89q-9 18 -43 18q-35 0 -44 -18q-9 -17 -9 -89q0 -76 9 -96q9 -19 44 -19z" />
    <glyph glyph-name="plusminus" unicode="&#xb1;" horiz-adv-x="543" 
d="M183 362h-158v176h158v159h176v-159h159v-176h-159v-158h-176v158zM518 -2h-493v176h493v-176z" />
    <glyph glyph-name="twosuperior" unicode="&#xb2;" horiz-adv-x="479" 
d="M71 563l-23 127q61 23 165 23q99 0 147.5 -34.5t48.5 -111.5q0 -107 -68 -130l-81 -25q-44 -11 -47 -26h197v-124h-373q5 95 32 143q29 51 94 83q15 8 42 17q31 12 43 21t12 24q0 18 -12.5 24.5t-48.5 6.5q-60 0 -128 -18z" />
    <glyph glyph-name="threesuperior" unicode="&#xb3;" horiz-adv-x="471" 
d="M213 430h-75v111h72q21 0 28 6t7 21q0 13 -14 18t-60 5q-63 0 -101 -11l-21 118q68 15 155 15q107 0 155.5 -27t48.5 -91q0 -52 -24 -77t-81 -29q60 -3 87 -30.5t27 -84.5q0 -67 -53 -97t-160 -30q-79 0 -157 14l22 120q42 -11 102 -11q49 0 65 5.5t16 20.5q0 20 -8.5 27
t-30.5 7z" />
    <glyph glyph-name="acute" unicode="&#xb4;" horiz-adv-x="469" 
d="M390 697l-156 -129h-150l124 129h182z" />
    <glyph glyph-name="mu" unicode="&#xb5;" horiz-adv-x="647" 
d="M394 60q-50 -74 -120 -74q-33 0 -52 10q-4 -120 -15 -188h-169q27 194 27 399v307h183v-283q0 -66 51 -66q41 0 75 19v331h184v-312q0 -20 16.5 -29t57.5 -9l-28 -179q-90 0 -138.5 16t-71.5 58z" />
    <glyph glyph-name="mu" unicode="&#x3bc;" horiz-adv-x="647" 
d="M394 60q-50 -74 -120 -74q-33 0 -52 10q-4 -120 -15 -188h-169q27 194 27 399v307h183v-283q0 -66 51 -66q41 0 75 19v331h184v-312q0 -20 16.5 -29t57.5 -9l-28 -179q-90 0 -138.5 16t-71.5 58z" />
    <glyph glyph-name="paragraph" unicode="&#xb6;" horiz-adv-x="696" 
d="M620 697v-697h-161v205h-75v-205h-161v205h-18q-90 0 -140 68q-49 68 -49 173q0 251 189 251h415z" />
    <glyph glyph-name="middot" unicode="&#xb7;" horiz-adv-x="331" 
d="M164 404q69 0 91 -19q24 -18 24 -80q0 -67 -24 -88t-91 -21q-65 0 -89 21q-23 21 -23 88q0 62 23 80q22 19 89 19z" />
    <glyph glyph-name="middot" unicode="&#x2219;" horiz-adv-x="331" 
d="M164 404q69 0 91 -19q24 -18 24 -80q0 -67 -24 -88t-91 -21q-65 0 -89 21q-23 21 -23 88q0 62 23 80q22 19 89 19z" />
    <glyph glyph-name="cedilla" unicode="&#xb8;" horiz-adv-x="629" 
d="M296 -94l36 94h65v-36q100 0 100 -81q0 -48 -33 -67t-116 -19q-51 0 -90 11l26 66q13 -7 54 -7q26 0 26 19q0 26 -68 20z" />
    <glyph glyph-name="onesuperior" unicode="&#xb9;" horiz-adv-x="418" 
d="M307 722v-460h-145v263l-96 -37l-40 121z" />
    <glyph glyph-name="ordmasculine" unicode="&#xba;" horiz-adv-x="480" 
d="M239 308q-94 0 -141 49t-47 155t47 154t141 48q96 0 143 -48t47 -154t-47.5 -155t-142.5 -49zM184 510q0 -59 11.5 -78.5t43.5 -19.5q33 0 44.5 19.5t11.5 78.5q0 61 -11.5 80t-44.5 19t-44 -19t-11 -80z" />
    <glyph glyph-name="guillemotright" unicode="&#xbb;" horiz-adv-x="742" 
d="M450 34l-104 103l136 186l-136 189l103 105l273 -292zM124 34l-104 103l136 186l-136 189l103 105l273 -292z" />
    <glyph glyph-name="onequarter" unicode="&#xbc;" horiz-adv-x="942" 
d="M-3 609l281 113v-457l289 432h173l-467 -697h-173l175 262h-142v263l-96 -37zM668 446h184v-235h55v-127h-55v-84h-144v84h-229v68q85 148 189 294zM632 211h76v118q-44 -60 -76 -118z" />
    <glyph glyph-name="onehalf" unicode="&#xbd;" horiz-adv-x="942" 
d="M-3 609l281 113v-457l289 432h173l-467 -697h-173l175 262h-142v263l-96 -37zM726 451q99 0 147.5 -34.5t48.5 -111.5q0 -107 -68 -130l-81 -25q-44 -11 -47 -26h197v-124h-373q5 95 32 143q29 51 94 83q15 8 42 17q31 12 43 21t12 24q0 18 -12.5 24.5t-48.5 6.5
q-60 0 -128 -18l-23 127q61 23 165 23z" />
    <glyph glyph-name="threequarters" unicode="&#xbe;" horiz-adv-x="942" 
d="M169 0l467 697h173l-467 -697h-173zM737 0v84h-229v68q86 148 189 294h184v-235h55v-127h-55v-84h-144zM661 211h76v118q-44 -60 -76 -118zM174 430h-75v111h72q21 0 28 6t7 21q0 13 -14 18t-60 5q-63 0 -101 -11l-21 118q67 15 155 15q107 0 155.5 -27t48.5 -91
q0 -52 -24 -77t-81 -29q60 -3 87 -30.5t27 -84.5q0 -67 -53 -97t-160 -30q-79 0 -157 14l22 120q42 -11 102 -11q49 0 65 5.5t16 20.5q0 20 -8.5 27t-30.5 7z" />
    <glyph glyph-name="questiondown" unicode="&#xbf;" horiz-adv-x="601" 
d="M356 336q-61 0 -84 17q-22 18 -22 75q0 63 22 82t84 19q60 0 82 -20q22 -19 22 -81q0 -57 -22 -75q-22 -17 -82 -17zM261 295h179v-192h-59q-82 0 -106 -11q-21 -10 -21 -50t15 -49q16 -10 72 -10q111 0 176 17l34 -172q-106 -22 -225 -22q-158 0 -217 51q-59 50 -59 190
q0 114 52 156q52 43 159 43v49z" />
    <glyph glyph-name="Agrave" unicode="&#xc0;" horiz-adv-x="696" 
d="M211 697h291q109 -371 240 -697h-211q-24 56 -50 134h-270l-36 -134h-207q36 128 111 344q71 205 132 353zM358 529h-25q-24 -66 -74 -230h167q-39 122 -68 230zM341 876l124 -129h-150l-156 129h182z" />
    <glyph glyph-name="Aacute" unicode="&#xc1;" horiz-adv-x="696" 
d="M211 697h291q109 -371 240 -697h-211q-24 56 -50 134h-270l-36 -134h-207q36 128 111 344q71 205 132 353zM358 529h-25q-24 -66 -74 -230h167q-39 122 -68 230zM531 876l-156 -129h-150l124 129h182z" />
    <glyph glyph-name="Acircumflex" unicode="&#xc2;" horiz-adv-x="696" 
d="M211 697h291q109 -371 240 -697h-211q-24 56 -50 134h-270l-36 -134h-207q36 128 111 344q71 205 132 353zM358 529h-25q-24 -66 -74 -230h167q-39 122 -68 230zM561 747h-152l-61 66l-59 -66h-148l122 129h172z" />
    <glyph glyph-name="Atilde" unicode="&#xc3;" horiz-adv-x="696" 
d="M211 697h291q109 -371 240 -697h-211q-24 56 -50 134h-270l-36 -134h-207q36 128 111 344q71 205 132 353zM358 529h-25q-24 -66 -74 -230h167q-39 122 -68 230zM455 891l83 -67q-16 -42 -50.5 -68.5t-79.5 -26.5q-34 0 -79 20q-42 21 -64 21q-26 0 -44 -41l-76 75
q46 79 114 79q43 0 88 -20q42 -19 62 -19q17 0 26.5 9.5t19.5 37.5z" />
    <glyph glyph-name="Adieresis" unicode="&#xc4;" horiz-adv-x="696" 
d="M229 881q47 0 62.5 -14t15.5 -58q0 -48 -16 -64t-62 -16t-61.5 16t-15.5 64q0 44 15.5 58t61.5 14zM467 881q46 0 61.5 -14t15.5 -58q0 -48 -15.5 -64t-61.5 -16q-47 0 -62.5 15.5t-15.5 64.5q0 45 15 58.5t63 13.5zM211 697h291q109 -371 240 -697h-211q-24 56 -50 134
h-270l-36 -134h-207q36 128 111 344q71 205 132 353zM358 529h-25q-24 -66 -74 -230h167q-39 122 -68 230z" />
    <glyph glyph-name="Aring" unicode="&#xc5;" horiz-adv-x="696" 
d="M348 908q70 0 99 -22t29 -80t-28.5 -80t-99.5 -22q-72 0 -101 22t-29 80t29.5 80t100.5 22zM348 840q-26 0 -34.5 -7t-8.5 -28t8 -27.5t35 -6.5q26 0 34 6.5t8 27.5t-8 28t-34 7zM211 697h291q109 -371 240 -697h-211q-24 56 -50 134h-270l-36 -134h-207q36 128 111 344
q71 205 132 353zM358 529h-25q-24 -66 -74 -230h167q-39 122 -68 230z" />
    <glyph glyph-name="AE" unicode="&#xc6;" horiz-adv-x="976" 
d="M310 697h645v-168h-343v-88h197v-165h-197v-108h343v-168h-534v134h-278l-82 -134h-232q79 125 231 347q123 179 250 350zM248 299h173v230h-21q-39 -56 -152 -230z" />
    <glyph glyph-name="Ccedilla" unicode="&#xc7;" horiz-adv-x="583" 
d="M44 355q0 209 83 286q42 40 100.5 56.5t150.5 16.5q114 0 205 -24l-34 -168q-54 17 -126 17q-57 0 -84.5 -5.5t-50.5 -23.5q-40 -31 -40 -157q0 -67 8.5 -103.5t31.5 -56.5q23 -18 51.5 -24t83.5 -6q72 0 126 17l34 -172q-72 -17 -186 -22v-22q100 0 100 -81
q0 -48 -33 -67t-116 -19q-51 0 -90 11l26 66q13 -7 54 -7q26 0 26 19q0 26 -68 20l31 82q-148 9 -216 92q-67 82 -67 275z" />
    <glyph glyph-name="Egrave" unicode="&#xc8;" horiz-adv-x="631" 
d="M76 0v697h534v-168h-343v-88h247v-165h-247v-108h343v-168h-534zM368 876l124 -129h-150l-156 129h182z" />
    <glyph glyph-name="Eacute" unicode="&#xc9;" horiz-adv-x="631" 
d="M76 0v697h534v-168h-343v-88h247v-165h-247v-108h343v-168h-534zM546 876l-156 -129h-150l124 129h182z" />
    <glyph glyph-name="Ecircumflex" unicode="&#xca;" horiz-adv-x="631" 
d="M76 0v697h534v-168h-343v-88h247v-165h-247v-108h343v-168h-534zM561 747h-152l-61 66l-59 -66h-148l122 129h172z" />
    <glyph glyph-name="Edieresis" unicode="&#xcb;" horiz-adv-x="631" 
d="M227 881q47 0 62.5 -14t15.5 -58q0 -48 -16 -64t-62 -16t-61.5 16t-15.5 64q0 44 15.5 58t61.5 14zM465 881q46 0 61.5 -14t15.5 -58q0 -48 -15.5 -64t-61.5 -16q-47 0 -62.5 15.5t-15.5 64.5q0 45 15 58.5t63 13.5zM76 0v697h534v-168h-343v-88h247v-165h-247v-108h343
v-168h-534z" />
    <glyph glyph-name="Igrave" unicode="&#xcc;" horiz-adv-x="343" 
d="M76 0v697h191v-697h-191zM155 876l124 -129h-150l-156 129h182z" />
    <glyph glyph-name="Iacute" unicode="&#xcd;" horiz-adv-x="343" 
d="M76 0v697h191v-697h-191zM374 876l-156 -129h-150l124 129h182z" />
    <glyph glyph-name="Icircumflex" unicode="&#xce;" horiz-adv-x="343" 
d="M382 747h-152l-61 66l-59 -66h-148l122 129h172zM76 0v697h191v-697h-191z" />
    <glyph glyph-name="Idieresis" unicode="&#xcf;" horiz-adv-x="343" 
d="M76 0v697h191v-697h-191zM53 881q47 0 62.5 -14t15.5 -58q0 -48 -16 -64t-62 -16t-61.5 16t-15.5 64q0 44 15.5 58t61.5 14zM291 881q46 0 61.5 -14t15.5 -58q0 -48 -15.5 -64t-61.5 -16q-47 0 -62.5 15.5t-15.5 64.5q0 45 15 58.5t63 13.5z" />
    <glyph glyph-name="Eth" unicode="&#xd0;" horiz-adv-x="770" 
d="M76 289h-51v128h51v280h316q90 0 149 -16t101 -54q84 -73 84 -274q0 -198 -80 -276q-80 -77 -254 -77h-316v289zM522 350q0 70 -6 102t-25 50q-18 18 -45 23q-23 4 -79 4h-100v-112h156v-128h-156v-120h100q73 0 109 16q27 16 35.5 49.5t10.5 115.5z" />
    <glyph glyph-name="Ntilde" unicode="&#xd1;" horiz-adv-x="818" 
d="M553 697h189v-697h-237q-104 193 -243 427v-427h-186v697h247q118 -200 230 -415v415zM519 891l83 -67q-16 -42 -50.5 -68.5t-79.5 -26.5q-34 0 -79 20q-42 21 -64 21q-26 0 -44 -41l-76 75q46 79 114 79q43 0 88 -20q42 -19 62 -19q17 0 26.5 9.5t19.5 37.5z" />
    <glyph glyph-name="Ograve" unicode="&#xd2;" horiz-adv-x="781" 
d="M391 714q174 0 257 -72q89 -77 89 -284q0 -211 -90 -294q-84 -78 -256 -78q-173 0 -258 78q-89 83 -89 294q0 205 89 284q45 39 106 55.5t152 16.5zM533 356q0 37 -2 71q-2 59 -21 82q-16 17 -42 23t-77 5q-52 1 -78 -5t-42 -23q-8 -12 -14 -33q-9 -33 -9 -120
q0 -58 1 -77q5 -64 22 -87q13 -18 40.5 -24.5t79.5 -6.5q90 -3 119 31q8 11 14 35q9 36 9 129zM381 876l124 -129h-150l-156 129h182z" />
    <glyph glyph-name="Oacute" unicode="&#xd3;" horiz-adv-x="781" 
d="M391 714q174 0 257 -72q89 -77 89 -284q0 -211 -90 -294q-84 -78 -256 -78q-173 0 -258 78q-89 83 -89 294q0 205 89 284q45 39 106 55.5t152 16.5zM533 356q0 37 -2 71q-2 59 -21 82q-16 17 -42 23t-77 5q-52 1 -78 -5t-42 -23q-8 -12 -14 -33q-9 -33 -9 -120
q0 -58 1 -77q5 -64 22 -87q13 -18 40.5 -24.5t79.5 -6.5q90 -3 119 31q8 11 14 35q9 36 9 129zM546 876l-156 -129h-150l124 129h182z" />
    <glyph glyph-name="Ocircumflex" unicode="&#xd4;" horiz-adv-x="781" 
d="M391 714q174 0 257 -72q89 -77 89 -284q0 -211 -90 -294q-84 -78 -256 -78q-173 0 -258 78q-89 83 -89 294q0 205 89 284q45 39 106 55.5t152 16.5zM533 356q0 37 -2 71q-2 59 -21 82q-16 17 -42 23t-77 5q-52 1 -78 -5t-42 -23q-8 -12 -14 -33q-9 -33 -9 -120
q0 -58 1 -77q5 -64 22 -87q13 -18 40.5 -24.5t79.5 -6.5q90 -3 119 31q8 11 14 35q9 36 9 129zM600 747h-152l-61 66l-59 -66h-148l122 129h172z" />
    <glyph glyph-name="Otilde" unicode="&#xd5;" horiz-adv-x="781" 
d="M391 714q174 0 257 -72q89 -77 89 -284q0 -211 -90 -294q-84 -78 -256 -78q-173 0 -258 78q-89 83 -89 294q0 205 89 284q45 39 106 55.5t152 16.5zM533 356q0 37 -2 71q-2 59 -21 82q-16 17 -42 23t-77 5q-52 1 -78 -5t-42 -23q-8 -12 -14 -33q-9 -33 -9 -120
q0 -58 1 -77q5 -64 22 -87q13 -18 40.5 -24.5t79.5 -6.5q90 -3 119 31q8 11 14 35q9 36 9 129zM504 891l83 -67q-16 -42 -50.5 -68.5t-79.5 -26.5q-34 0 -79 20q-42 21 -64 21q-26 0 -44 -41l-76 75q46 79 114 79q43 0 88 -20q42 -19 62 -19q17 0 26.5 9.5t19.5 37.5z" />
    <glyph glyph-name="Odieresis" unicode="&#xd6;" horiz-adv-x="781" 
d="M391 714q174 0 257 -72q89 -77 89 -284q0 -211 -90 -294q-84 -78 -256 -78q-173 0 -258 78q-89 83 -89 294q0 205 89 284q45 39 106 55.5t152 16.5zM533 356q0 37 -2 71q-2 59 -21 82q-16 17 -42 23t-77 5q-52 1 -78 -5t-42 -23q-8 -12 -14 -33q-9 -33 -9 -120
q0 -58 1 -77q5 -64 22 -87q13 -18 40.5 -24.5t79.5 -6.5q90 -3 119 31q8 11 14 35q9 36 9 129zM269 881q47 0 62.5 -14t15.5 -58q0 -48 -16 -64t-62 -16t-61.5 16t-15.5 64q0 44 15.5 58t61.5 14zM507 881q46 0 61.5 -14t15.5 -58q0 -48 -15.5 -64t-61.5 -16
q-47 0 -62.5 15.5t-15.5 64.5q0 45 15 58.5t63 13.5z" />
    <glyph glyph-name="multiply" unicode="&#xd7;" horiz-adv-x="543" 
d="M271 242l-112 -112l-124 124l112 112l-113 112l125 125l112 -113l112 113l125 -125l-113 -112l112 -112l-124 -124z" />
    <glyph glyph-name="Oslash" unicode="&#xd8;" horiz-adv-x="781" 
d="M589 680l15 17h193l-103 -116q43 -82 43 -223q0 -211 -90 -294q-84 -78 -256 -78q-119 0 -192 33l-17 -19h-193l103 117q-48 85 -48 241q0 205 89 284q45 39 106 55.5t152 16.5q126 0 198 -34zM391 537q-52 1 -78 -5t-42 -23q-8 -12 -14 -33q-9 -33 -9 -120q0 -50 1 -62
l211 239q-21 4 -69 4zM391 161q90 -3 119 31q8 11 14 35q9 36 9 129q0 33 -1 41l-205 -233q25 -3 64 -3z" />
    <glyph glyph-name="Ugrave" unicode="&#xd9;" horiz-adv-x="747" 
d="M486 222v475h192v-517q0 -112 -85 -155q-78 -39 -220 -39q-155 0 -229.5 44.5t-74.5 149.5v517h192v-475q0 -31 25 -44t87 -13t87.5 13.5t25.5 43.5zM374 876l124 -129h-150l-156 129h182z" />
    <glyph glyph-name="Uacute" unicode="&#xda;" horiz-adv-x="747" 
d="M486 222v475h192v-517q0 -112 -85 -155q-78 -39 -220 -39q-155 0 -229.5 44.5t-74.5 149.5v517h192v-475q0 -31 25 -44t87 -13t87.5 13.5t25.5 43.5zM554 876l-156 -129h-150l124 129h182z" />
    <glyph glyph-name="Ucircumflex" unicode="&#xdb;" horiz-adv-x="747" 
d="M486 222v475h192v-517q0 -112 -85 -155q-78 -39 -220 -39q-155 0 -229.5 44.5t-74.5 149.5v517h192v-475q0 -31 25 -44t87 -13t87.5 13.5t25.5 43.5zM580 747h-152l-61 66l-59 -66h-148l122 129h172z" />
    <glyph glyph-name="Udieresis" unicode="&#xdc;" horiz-adv-x="747" 
d="M486 222v475h192v-517q0 -112 -85 -155q-78 -39 -220 -39q-155 0 -229.5 44.5t-74.5 149.5v517h192v-475q0 -31 25 -44t87 -13t87.5 13.5t25.5 43.5zM252 881q47 0 62.5 -14t15.5 -58q0 -48 -16 -64t-62 -16t-61.5 16t-15.5 64q0 44 15.5 58t61.5 14zM490 881
q46 0 61.5 -14t15.5 -58q0 -48 -15.5 -64t-61.5 -16q-47 0 -62.5 15.5t-15.5 64.5q0 45 15 58.5t63 13.5z" />
    <glyph glyph-name="Yacute" unicode="&#xdd;" horiz-adv-x="669" 
d="M-71 697h254l165 -227q111 162 148 227h237q-102 -162 -291 -430v-267h-191v266q-229 319 -322 431zM538 876l-156 -129h-150l124 129h182z" />
    <glyph glyph-name="Thorn" unicode="&#xde;" horiz-adv-x="696" 
d="M76 0v697h191v-89h224q189 0 189 -251q0 -103 -50 -173q-50 -68 -139 -68h-224v-116h-191zM267 445v-174h150q54 0 54 86q0 88 -53 88h-151z" />
    <glyph glyph-name="germandbls" unicode="&#xdf;" horiz-adv-x="692" 
d="M342 714q165 0 230 -41t65 -144q0 -82 -31 -120q-32 -37 -120 -45q95 -5 129 -46q35 -43 35 -133q0 -110 -65 -155q-65 -44 -222 -44q-51 0 -87 4l22 155q39 -4 76 -4q45 0 61 14t16 53q0 43 -17.5 60t-57.5 17h-54v146h49q41 0 57.5 16t16.5 48q0 36 -20.5 47.5
t-83.5 11.5q-95 0 -95 -71v-483h-183v518q0 107 67 151.5t212 44.5z" />
    <glyph glyph-name="agrave" unicode="&#xe0;" horiz-adv-x="578" 
d="M522 329v-303q-116 -40 -256 -40q-133 0 -179 34q-45 34 -45 136q0 101 48 134t152 33q48 0 107 -12q0 44 -19 57q-18 15 -86 15q-73 0 -163 -25l-26 143q113 28 237 28q122 0 176 -45.5t54 -154.5zM349 129v69q-25 5 -65 5q-33 0 -44 -8t-11 -34q0 -27 9.5 -35t42.5 -8
q37 0 68 11zM266 697l124 -129h-150l-156 129h182z" />
    <glyph glyph-name="aacute" unicode="&#xe1;" horiz-adv-x="578" 
d="M522 329v-303q-116 -40 -256 -40q-133 0 -179 34q-45 34 -45 136q0 101 48 134t152 33q48 0 107 -12q0 44 -19 57q-18 15 -86 15q-73 0 -163 -25l-26 143q113 28 237 28q122 0 176 -45.5t54 -154.5zM349 129v69q-25 5 -65 5q-33 0 -44 -8t-11 -34q0 -27 9.5 -35t42.5 -8
q37 0 68 11zM486 697l-156 -129h-150l124 129h182z" />
    <glyph glyph-name="acircumflex" unicode="&#xe2;" horiz-adv-x="578" 
d="M522 329v-303q-116 -40 -256 -40q-133 0 -179 34q-45 34 -45 136q0 101 48 134t152 33q48 0 107 -12q0 44 -19 57q-18 15 -86 15q-73 0 -163 -25l-26 143q113 28 237 28q122 0 176 -45.5t54 -154.5zM349 129v69q-25 5 -65 5q-33 0 -44 -8t-11 -34q0 -27 9.5 -35t42.5 -8
q37 0 68 11zM499 568h-152l-61 66l-59 -66h-148l122 129h172z" />
    <glyph glyph-name="atilde" unicode="&#xe3;" horiz-adv-x="578" 
d="M522 329v-303q-116 -40 -256 -40q-133 0 -179 34q-45 34 -45 136q0 101 48 134t152 33q48 0 107 -12q0 44 -19 57q-18 15 -86 15q-73 0 -163 -25l-26 143q113 28 237 28q122 0 176 -45.5t54 -154.5zM349 129v69q-25 5 -65 5q-33 0 -44 -8t-11 -34q0 -27 9.5 -35t42.5 -8
q37 0 68 11zM391 715l83 -67q-16 -42 -50.5 -68.5t-79.5 -26.5q-34 0 -79 20q-42 21 -64 21q-26 0 -44 -41l-76 75q46 79 114 79q43 0 88 -20q42 -19 62 -19q17 0 26.5 9.5t19.5 37.5z" />
    <glyph glyph-name="adieresis" unicode="&#xe4;" horiz-adv-x="578" 
d="M522 329v-303q-116 -40 -256 -40q-133 0 -179 34q-45 34 -45 136q0 101 48 134t152 33q48 0 107 -12q0 44 -19 57q-18 15 -86 15q-73 0 -163 -25l-26 143q113 28 237 28q122 0 176 -45.5t54 -154.5zM349 129v69q-25 5 -65 5q-33 0 -44 -8t-11 -34q0 -27 9.5 -35t42.5 -8
q37 0 68 11zM162 706q47 0 62.5 -14t15.5 -58q0 -48 -16 -64t-62 -16t-61.5 16t-15.5 64q0 44 15.5 58t61.5 14zM400 706q46 0 61.5 -14t15.5 -58q0 -48 -15.5 -64t-61.5 -16q-47 0 -62.5 15.5t-15.5 64.5q0 45 15 58.5t63 13.5z" />
    <glyph glyph-name="aring" unicode="&#xe5;" horiz-adv-x="578" 
d="M522 329v-303q-116 -40 -256 -40q-133 0 -179 34q-45 34 -45 136q0 101 48 134t152 33q48 0 107 -12q0 44 -19 57q-18 15 -86 15q-73 0 -163 -25l-26 143q113 28 237 28q122 0 176 -45.5t54 -154.5zM349 129v69q-25 5 -65 5q-33 0 -44 -8t-11 -34q0 -27 9.5 -35t42.5 -8
q37 0 68 11zM284 744q70 0 99 -22t29 -80t-28.5 -80t-99.5 -22q-72 0 -101 22t-29 80t29.5 80t100.5 22zM284 676q-26 0 -34.5 -7t-8.5 -28t8 -27.5t35 -6.5q26 0 34 6.5t8 27.5t-8 28t-34 7z" />
    <glyph glyph-name="ae" unicode="&#xe6;" horiz-adv-x="858" 
d="M761 150l26 -136q-83 -28 -191 -28q-75 0 -129 26q-106 -26 -201 -26q-133 0 -179 34q-45 34 -45 136q0 101 48 134t152 33q48 0 107 -12q0 41 -18 55q-17 13 -87 13q-87 0 -163 -21l-26 143q113 28 237 28q99 0 153 -33q53 33 140 33q111 0 166 -36q89 -56 72 -294h-297
q1 -37 22 -50t72 -13q76 0 141 14zM359 131q-12 36 -12 67q-25 5 -61 5q-33 0 -44 -8t-11 -34q0 -27 9.5 -35t42.5 -8q38 0 76 13zM600 394q-36 0 -51 -13.5t-22 -50.5h142q-1 38 -15.5 51t-53.5 13z" />
    <glyph glyph-name="ccedilla" unicode="&#xe7;" horiz-adv-x="474" 
d="M430 163l36 -152q-57 -20 -148 -25v-22q100 0 100 -81q0 -48 -33 -67t-116 -19q-51 0 -90 11l26 66q13 -7 54 -7q26 0 26 19q0 26 -68 20l31 83q-208 20 -208 271q0 147 67.5 208t191.5 61q104 0 167 -22l-36 -152q-69 20 -113 20q-47 0 -69 -17q-25 -20 -25 -101
q0 -73 21 -95q22 -21 73 -21q56 0 113 22z" />
    <glyph glyph-name="egrave" unicode="&#xe8;" horiz-adv-x="559" 
d="M462 150l26 -136q-83 -28 -191 -28q-257 0 -257 274q0 148 63 208q64 61 183 61q75 0 119 -13t76 -47q62 -65 49 -270h-303q1 -37 22 -50t72 -13q76 0 141 14zM296 394q-35 0 -48 -12.5t-20 -51.5h132q-1 39 -14 51.5t-50 12.5zM280 697l124 -129h-150l-156 129h182z" />
    <glyph glyph-name="eacute" unicode="&#xe9;" horiz-adv-x="559" 
d="M462 150l26 -136q-83 -28 -191 -28q-257 0 -257 274q0 148 63 208q64 61 183 61q75 0 119 -13t76 -47q62 -65 49 -270h-303q1 -37 22 -50t72 -13q76 0 141 14zM296 394q-35 0 -48 -12.5t-20 -51.5h132q-1 39 -14 51.5t-50 12.5zM498 697l-156 -129h-150l124 129h182z" />
    <glyph glyph-name="ecircumflex" unicode="&#xea;" horiz-adv-x="559" 
d="M462 150l26 -136q-83 -28 -191 -28q-257 0 -257 274q0 148 63 208q64 61 183 61q75 0 119 -13t76 -47q62 -65 49 -270h-303q1 -37 22 -50t72 -13q76 0 141 14zM296 394q-35 0 -48 -12.5t-20 -51.5h132q-1 39 -14 51.5t-50 12.5zM510 568h-152l-61 66l-59 -66h-148
l122 129h172z" />
    <glyph glyph-name="edieresis" unicode="&#xeb;" horiz-adv-x="559" 
d="M462 150l26 -136q-83 -28 -191 -28q-257 0 -257 274q0 148 63 208q64 61 183 61q75 0 119 -13t76 -47q62 -65 49 -270h-303q1 -37 22 -50t72 -13q76 0 141 14zM296 394q-35 0 -48 -12.5t-20 -51.5h132q-1 39 -14 51.5t-50 12.5zM179 706q47 0 62.5 -14t15.5 -58
q0 -48 -16 -64t-62 -16t-61.5 16t-15.5 64q0 44 15.5 58t61.5 14zM417 706q46 0 61.5 -14t15.5 -58q0 -48 -15.5 -64t-61.5 -16q-47 0 -62.5 15.5t-15.5 64.5q0 45 15 58.5t63 13.5z" />
    <glyph glyph-name="igrave" unicode="&#xec;" horiz-adv-x="307" 
d="M63 514h183v-514h-183v514zM143 697l124 -129h-150l-156 129h182z" />
    <glyph glyph-name="iacute" unicode="&#xed;" horiz-adv-x="307" 
d="M63 514h183v-514h-183v514zM342 697l-156 -129h-150l124 129h182z" />
    <glyph glyph-name="icircumflex" unicode="&#xee;" horiz-adv-x="307" 
d="M63 514h183v-514h-183v514zM365 568h-152l-61 66l-59 -66h-148l122 129h172z" />
    <glyph glyph-name="idieresis" unicode="&#xef;" horiz-adv-x="307" 
d="M63 514h183v-514h-183v514zM37 706q47 0 62.5 -14t15.5 -58q0 -48 -16 -64t-62 -16t-61.5 16t-15.5 64q0 44 15.5 58t61.5 14zM275 706q46 0 61.5 -14t15.5 -58q0 -48 -15.5 -64t-61.5 -16q-47 0 -62.5 15.5t-15.5 64.5q0 45 15 58.5t63 13.5z" />
    <glyph glyph-name="eth" unicode="&#xf0;" horiz-adv-x="630" 
d="M304 506l-63 -36l-65 82l67 38q-23 30 -90 107h229l16 -18l47 27l65 -81l-45 -26q130 -175 130 -377q0 -95 -22 -143q-21 -49 -81.5 -72.5t-173.5 -23.5q-157 0 -216 50q-58 49 -58 190q0 122 55 170q55 49 206 49h38q-23 40 -39 64zM333 281q-59 0 -76 -11
q-15 -10 -15 -51q0 -37 14.5 -48.5t61.5 -11.5q48 0 60 15q13 14 13 64q0 24 -2 42q-13 1 -56 1z" />
    <glyph glyph-name="ntilde" unicode="&#xf1;" horiz-adv-x="612" 
d="M246 360v-360h-183v481q144 48 278 48q111 0 163 -57.5t52 -188.5v-283h-183v271q0 57 -14 76.5t-58 19.5q-20 0 -55 -7zM421 715l83 -67q-16 -42 -50.5 -68.5t-79.5 -26.5q-34 0 -79 20q-42 21 -64 21q-26 0 -44 -41l-76 75q46 79 114 79q43 0 88 -20q42 -19 62 -19
q17 0 26.5 9.5t19.5 37.5z" />
    <glyph glyph-name="ograve" unicode="&#xf2;" 
d="M295 -14q-133 0 -194 60q-61 61 -61 214q0 151 62 210t193 59q133 0 195 -59t62 -210q0 -152 -62 -214q-62 -60 -195 -60zM295 389q-45 0 -59 -23q-13 -22 -13 -109q0 -85 14 -108t58 -23q45 0 59 23t14 108q0 86 -14 109t-59 23zM285 697l124 -129h-150l-156 129h182z
" />
    <glyph glyph-name="oacute" unicode="&#xf3;" 
d="M295 -14q-133 0 -194 60q-61 61 -61 214q0 151 62 210t193 59q133 0 195 -59t62 -210q0 -152 -62 -214q-62 -60 -195 -60zM295 389q-45 0 -59 -23q-13 -22 -13 -109q0 -85 14 -108t58 -23q45 0 59 23t14 108q0 86 -14 109t-59 23zM485 697l-156 -129h-150l124 129h182z
" />
    <glyph glyph-name="ocircumflex" unicode="&#xf4;" 
d="M295 -14q-133 0 -194 60q-61 61 -61 214q0 151 62 210t193 59q133 0 195 -59t62 -210q0 -152 -62 -214q-62 -60 -195 -60zM295 389q-45 0 -59 -23q-13 -22 -13 -109q0 -85 14 -108t58 -23q45 0 59 23t14 108q0 86 -14 109t-59 23zM503 568h-152l-61 66l-59 -66h-148
l122 129h172z" />
    <glyph glyph-name="otilde" unicode="&#xf5;" 
d="M295 -14q-133 0 -194 60q-61 61 -61 214q0 151 62 210t193 59q133 0 195 -59t62 -210q0 -152 -62 -214q-62 -60 -195 -60zM295 389q-45 0 -59 -23q-13 -22 -13 -109q0 -85 14 -108t58 -23q45 0 59 23t14 108q0 86 -14 109t-59 23zM408 715l83 -67q-16 -42 -50.5 -68.5
t-79.5 -26.5q-34 0 -79 20q-42 21 -64 21q-26 0 -44 -41l-76 75q46 79 114 79q43 0 88 -20q42 -19 62 -19q17 0 26.5 9.5t19.5 37.5z" />
    <glyph glyph-name="odieresis" unicode="&#xf6;" 
d="M295 -14q-133 0 -194 60q-61 61 -61 214q0 151 62 210t193 59q133 0 195 -59t62 -210q0 -152 -62 -214q-62 -60 -195 -60zM295 389q-45 0 -59 -23q-13 -22 -13 -109q0 -85 14 -108t58 -23q45 0 59 23t14 108q0 86 -14 109t-59 23zM176 706q47 0 62.5 -14t15.5 -58
q0 -48 -16 -64t-62 -16t-61.5 16t-15.5 64q0 44 15.5 58t61.5 14zM414 706q46 0 61.5 -14t15.5 -58q0 -48 -15.5 -64t-61.5 -16q-47 0 -62.5 15.5t-15.5 64.5q0 45 15 58.5t63 13.5z" />
    <glyph glyph-name="divide" unicode="&#xf7;" horiz-adv-x="543" 
d="M518 278h-493v176h493v-176zM266 241q62 0 84 -18q22 -16 22 -74q0 -63 -22 -82t-84 -19q-61 0 -83 19q-21 19 -21 82q0 57 21 74q23 18 83 18zM266 682q62 0 84 -17q22 -16 22 -75q0 -62 -22 -81t-84 -19q-61 0 -83 19q-21 19 -21 81q0 58 21 75q23 17 83 17z" />
    <glyph glyph-name="oslash" unicode="&#xf8;" 
d="M440 504l9 10h156l-82 -92q29 -63 29 -162q0 -152 -62 -214q-62 -60 -195 -60q-84 0 -141 24l-9 -10h-156l81 91q-30 61 -30 169q0 151 62 210t193 59q94 0 145 -25zM295 389q-46 0 -59 -22q-13 -20 -13 -106l110 123q-13 5 -38 5zM295 126q45 0 58 21q13 23 15 102
l-108 -120q9 -3 35 -3z" />
    <glyph glyph-name="ugrave" unicode="&#xf9;" horiz-adv-x="612" 
d="M367 155v359h182v-480q-144 -48 -278 -48q-111 0 -162.5 57.5t-51.5 188.5v282h182v-271q0 -57 14 -76t58 -19q20 0 56 7zM289 697l124 -129h-150l-156 129h182z" />
    <glyph glyph-name="uacute" unicode="&#xfa;" horiz-adv-x="612" 
d="M367 155v359h182v-480q-144 -48 -278 -48q-111 0 -162.5 57.5t-51.5 188.5v282h182v-271q0 -57 14 -76t58 -19q20 0 56 7zM499 697l-156 -129h-150l124 129h182z" />
    <glyph glyph-name="ucircumflex" unicode="&#xfb;" horiz-adv-x="612" 
d="M367 155v359h182v-480q-144 -48 -278 -48q-111 0 -162.5 57.5t-51.5 188.5v282h182v-271q0 -57 14 -76t58 -19q20 0 56 7zM516 568h-152l-61 66l-59 -66h-148l122 129h172z" />
    <glyph glyph-name="udieresis" unicode="&#xfc;" horiz-adv-x="612" 
d="M367 155v359h182v-480q-144 -48 -278 -48q-111 0 -162.5 57.5t-51.5 188.5v282h182v-271q0 -57 14 -76t58 -19q20 0 56 7zM182 706q47 0 62.5 -14t15.5 -58q0 -48 -16 -64t-62 -16t-61.5 16t-15.5 64q0 44 15.5 58t61.5 14zM420 706q46 0 61.5 -14t15.5 -58
q0 -48 -15.5 -64t-61.5 -16q-47 0 -62.5 15.5t-15.5 64.5q0 45 15 58.5t63 13.5z" />
    <glyph glyph-name="yacute" unicode="&#xfd;" horiz-adv-x="513" 
d="M350 514h180q-105 -371 -264 -706h-200q40 68 84 166q-60 218 -174 540h184q50 -140 97 -326q60 182 93 326zM468 697l-156 -129h-150l124 129h182z" />
    <glyph glyph-name="thorn" unicode="&#xfe;" horiz-adv-x="604" 
d="M246 -192h-183v889h183v-170q50 2 58 2q139 0 199 -60q60 -59 60 -213q0 -270 -213 -270q-45 0 -104 17v-195zM246 369v-208q0 -11 17 -19t43 -8q43 0 59 25.5t16 92.5q0 79 -16 102q-17 24 -61 24q-36 0 -58 -9z" />
    <glyph glyph-name="ydieresis" unicode="&#xff;" horiz-adv-x="513" 
d="M145 706q47 0 62.5 -14t15.5 -58q0 -48 -16 -64t-62 -16t-61.5 16t-15.5 64q0 44 15.5 58t61.5 14zM383 706q46 0 61.5 -14t15.5 -58q0 -48 -15.5 -64t-61.5 -16q-47 0 -62.5 15.5t-15.5 64.5q0 45 15 58.5t63 13.5zM350 514h180q-105 -371 -264 -706h-200q40 68 84 166
q-60 218 -174 540h184q50 -140 97 -326q60 182 93 326z" />
    <glyph glyph-name="Amacron" unicode="&#x100;" horiz-adv-x="696" 
d="M211 697h291q109 -371 240 -697h-211q-24 56 -50 134h-270l-36 -134h-207q36 128 111 344q71 205 132 353zM358 529h-25q-24 -66 -74 -230h167q-39 122 -68 230zM503 737h-305v122h305v-122z" />
    <glyph glyph-name="amacron" unicode="&#x101;" horiz-adv-x="578" 
d="M522 329v-303q-116 -40 -256 -40q-133 0 -179 34q-45 34 -45 136q0 101 48 134t152 33q48 0 107 -12q0 44 -19 57q-18 15 -86 15q-73 0 -163 -25l-26 143q113 28 237 28q122 0 176 -45.5t54 -154.5zM349 129v69q-25 5 -65 5q-33 0 -44 -8t-11 -34q0 -27 9.5 -35t42.5 -8
q37 0 68 11zM438 567h-305v122h305v-122z" />
    <glyph glyph-name="Abreve" unicode="&#x102;" horiz-adv-x="696" 
d="M211 697h291q109 -371 240 -697h-211q-24 56 -50 134h-270l-36 -134h-207q36 128 111 344q71 205 132 353zM358 529h-25q-24 -66 -74 -230h167q-39 122 -68 230zM181 871h116q0 -26 12 -36t42 -10q29 0 41 10t12 36h108q0 -148 -166 -148q-165 0 -165 148z" />
    <glyph glyph-name="abreve" unicode="&#x103;" horiz-adv-x="578" 
d="M522 329v-303q-116 -40 -256 -40q-133 0 -179 34q-45 34 -45 136q0 101 48 134t152 33q48 0 107 -12q0 44 -19 57q-18 15 -86 15q-73 0 -163 -25l-26 143q113 28 237 28q122 0 176 -45.5t54 -154.5zM349 129v69q-25 5 -65 5q-33 0 -44 -8t-11 -34q0 -27 9.5 -35t42.5 -8
q37 0 68 11zM121 697h116q0 -26 12 -36t42 -10q29 0 41 10t12 36h108q0 -148 -166 -148q-165 0 -165 148z" />
    <glyph glyph-name="Aogonek" unicode="&#x104;" horiz-adv-x="696" 
d="M211 697h291q109 -371 240 -697h-78q-32 -21 -43 -38t-11 -42q0 -19 11.5 -27t41.5 -8q45 0 73 24l42 -77q-50 -35 -136 -35q-76 0 -107 21t-31 68q0 76 98 114h-71q-24 56 -50 134h-270l-36 -134h-207q36 128 111 344q71 205 132 353zM358 529h-25q-24 -66 -74 -230h167
q-39 122 -68 230z" />
    <glyph glyph-name="aogonek" unicode="&#x105;" horiz-adv-x="578" 
d="M522 329v-303q-31 -10 -47 -14h1q-44 -27 -59 -46t-15 -46q0 -19 11.5 -27t41.5 -8q45 0 73 24l42 -77q-50 -35 -136 -35q-76 0 -107 21t-31 68q0 69 83 108q-66 -8 -113 -8q-133 0 -179 34q-45 34 -45 136q0 101 48 134t152 33q48 0 107 -12q0 44 -19 57q-18 15 -86 15
q-73 0 -163 -25l-26 143q113 28 237 28q122 0 176 -45.5t54 -154.5zM349 129v69q-25 5 -65 5q-33 0 -44 -8t-11 -34q0 -27 9.5 -35t42.5 -8q37 0 68 11z" />
    <glyph glyph-name="Cacute" unicode="&#x106;" horiz-adv-x="583" 
d="M44 355q0 209 83 286q42 40 100.5 56.5t150.5 16.5q114 0 205 -24l-34 -168q-54 17 -126 17q-57 0 -84.5 -5.5t-50.5 -23.5q-40 -31 -40 -157q0 -67 8.5 -103.5t31.5 -56.5q23 -18 51.5 -24t83.5 -6q72 0 126 17l34 -172q-89 -22 -205 -22q-176 0 -255 81q-79 80 -79 288
zM537 876l-156 -129h-150l124 129h182z" />
    <glyph glyph-name="cacute" unicode="&#x107;" horiz-adv-x="474" 
d="M430 163l36 -152q-65 -25 -167 -25q-128 0 -193.5 64.5t-65.5 209.5q0 147 67.5 208t191.5 61q104 0 167 -22l-36 -152q-69 20 -113 20q-47 0 -69 -17q-25 -20 -25 -101q0 -73 21 -95q22 -21 73 -21q56 0 113 22zM473 697l-156 -129h-150l124 129h182z" />
    <glyph glyph-name="Ccircumflex" unicode="&#x108;" horiz-adv-x="583" 
d="M44 355q0 209 83 286q42 40 100.5 56.5t150.5 16.5q114 0 205 -24l-34 -168q-54 17 -126 17q-57 0 -84.5 -5.5t-50.5 -23.5q-40 -31 -40 -157q0 -67 8.5 -103.5t31.5 -56.5q23 -18 51.5 -24t83.5 -6q72 0 126 17l34 -172q-89 -22 -205 -22q-176 0 -255 81q-79 80 -79 288
zM585 747h-152l-61 66l-59 -66h-148l122 129h172z" />
    <glyph glyph-name="ccircumflex" unicode="&#x109;" horiz-adv-x="474" 
d="M430 163l36 -152q-65 -25 -167 -25q-128 0 -193.5 64.5t-65.5 209.5q0 147 67.5 208t191.5 61q104 0 167 -22l-36 -152q-69 20 -113 20q-47 0 -69 -17q-25 -20 -25 -101q0 -73 21 -95q22 -21 73 -21q56 0 113 22zM505 568h-152l-61 66l-59 -66h-148l122 129h172z" />
    <glyph glyph-name="Cdotaccent" unicode="&#x10a;" horiz-adv-x="583" 
d="M44 355q0 209 83 286q42 40 100.5 56.5t150.5 16.5q114 0 205 -24l-34 -168q-54 17 -126 17q-57 0 -84.5 -5.5t-50.5 -23.5q-40 -31 -40 -157q0 -67 8.5 -103.5t31.5 -56.5q23 -18 51.5 -24t83.5 -6q72 0 126 17l34 -172q-89 -22 -205 -22q-176 0 -255 81q-79 80 -79 288
zM385 887q47 0 62.5 -14t15.5 -58q0 -48 -16 -64t-62 -16t-61.5 16t-15.5 64q0 44 15.5 58t61.5 14z" />
    <glyph glyph-name="cdotaccent" unicode="&#x10b;" horiz-adv-x="474" 
d="M430 163l36 -152q-65 -25 -167 -25q-128 0 -193.5 64.5t-65.5 209.5q0 147 67.5 208t191.5 61q104 0 167 -22l-36 -152q-69 20 -113 20q-47 0 -69 -17q-25 -20 -25 -101q0 -73 21 -95q22 -21 73 -21q56 0 113 22zM289 706q47 0 62.5 -14t15.5 -58q0 -48 -16 -64t-62 -16
t-61.5 16t-15.5 64q0 44 15.5 58t61.5 14z" />
    <glyph glyph-name="Ccaron" unicode="&#x10c;" horiz-adv-x="583" 
d="M44 355q0 209 83 286q42 40 100.5 56.5t150.5 16.5q114 0 205 -24l-34 -168q-54 17 -126 17q-57 0 -84.5 -5.5t-50.5 -23.5q-40 -31 -40 -157q0 -67 8.5 -103.5t31.5 -56.5q23 -18 51.5 -24t83.5 -6q72 0 126 17l34 -172q-89 -22 -205 -22q-176 0 -255 81q-79 80 -79 288
zM155 876h152l61 -66l59 66h148l-122 -129h-172z" />
    <glyph glyph-name="ccaron" unicode="&#x10d;" horiz-adv-x="474" 
d="M430 163l36 -152q-65 -25 -167 -25q-128 0 -193.5 64.5t-65.5 209.5q0 147 67.5 208t191.5 61q104 0 167 -22l-36 -152q-69 20 -113 20q-47 0 -69 -17q-25 -20 -25 -101q0 -73 21 -95q22 -21 73 -21q56 0 113 22zM78 697h152l61 -66l59 66h148l-122 -129h-172z" />
    <glyph glyph-name="Dcaron" unicode="&#x10e;" horiz-adv-x="770" 
d="M76 0v697h316q90 0 149 -16t101 -54q84 -73 84 -274q0 -198 -80 -276q-80 -77 -254 -77h-316zM522 350q0 70 -6 102t-25 50q-18 18 -45 23q-23 4 -79 4h-100v-360h100q73 0 109 16q27 16 35.5 49.5t10.5 115.5zM149 876h152l61 -66l59 66h148l-122 -129h-172z" />
    <glyph glyph-name="dcaron" unicode="&#x10f;" horiz-adv-x="604" 
d="M358 146v208q0 11 -17.5 19.5t-43.5 8.5q-42 0 -58 -25.5t-16 -93.5q0 -79 16 -102q17 -24 61 -24q36 0 58 9zM358 722h183v-701q-99 -35 -241 -35q-138 0 -200 60q-60 60 -60 214q0 269 213 269q54 0 105 -16v209zM581 530l18 192h148l-58 -192h-108z" />
    <glyph glyph-name="Dcroat" unicode="&#x110;" horiz-adv-x="770" 
d="M76 289h-51v128h51v280h316q90 0 149 -16t101 -54q84 -73 84 -274q0 -198 -80 -276q-80 -77 -254 -77h-316v289zM522 350q0 70 -6 102t-25 50q-18 18 -45 23q-23 4 -79 4h-100v-112h156v-128h-156v-120h100q73 0 109 16q27 16 35.5 49.5t10.5 115.5z" />
    <glyph glyph-name="dslash" unicode="&#x111;" horiz-adv-x="604" 
d="M358 567h-73v109h73v46h183v-46h52v-109h-52v-546q-99 -35 -241 -35q-138 0 -200 60q-60 60 -60 214q0 269 213 269q54 0 105 -16v54zM358 146v208q0 11 -17.5 19.5t-43.5 8.5q-42 0 -58 -25.5t-16 -93.5q0 -79 16 -102q17 -24 61 -24q36 0 58 9z" />
    <glyph glyph-name="Emacron" unicode="&#x112;" horiz-adv-x="631" 
d="M76 0v697h534v-168h-343v-88h247v-165h-247v-108h343v-168h-534zM496 737h-305v122h305v-122z" />
    <glyph glyph-name="emacron" unicode="&#x113;" horiz-adv-x="559" 
d="M462 150l26 -136q-83 -28 -191 -28q-257 0 -257 274q0 148 63 208q64 61 183 61q75 0 119 -13t76 -47q62 -65 49 -270h-303q1 -37 22 -50t72 -13q76 0 141 14zM296 394q-35 0 -48 -12.5t-20 -51.5h132q-1 39 -14 51.5t-50 12.5zM454 567h-305v122h305v-122z" />
    <glyph glyph-name="Ebreve" unicode="&#x114;" horiz-adv-x="631" 
d="M76 0v697h534v-168h-343v-88h247v-165h-247v-108h343v-168h-534zM195 871h116q0 -26 12 -36t42 -10q29 0 41 10t12 36h108q0 -148 -166 -148q-165 0 -165 148z" />
    <glyph glyph-name="ebreve" unicode="&#x115;" horiz-adv-x="559" 
d="M462 150l26 -136q-83 -28 -191 -28q-257 0 -257 274q0 148 63 208q64 61 183 61q75 0 119 -13t76 -47q62 -65 49 -270h-303q1 -37 22 -50t72 -13q76 0 141 14zM296 394q-35 0 -48 -12.5t-20 -51.5h132q-1 39 -14 51.5t-50 12.5zM131 697h116q0 -26 12 -36t42 -10
q29 0 41 10t12 36h108q0 -148 -166 -148q-165 0 -165 148z" />
    <glyph glyph-name="Edotaccent" unicode="&#x116;" horiz-adv-x="631" 
d="M76 0v697h534v-168h-343v-88h247v-165h-247v-108h343v-168h-534zM362 887q47 0 62.5 -14t15.5 -58q0 -48 -16 -64t-62 -16t-61.5 16t-15.5 64q0 44 15.5 58t61.5 14z" />
    <glyph glyph-name="edotaccent" unicode="&#x117;" horiz-adv-x="559" 
d="M462 150l26 -136q-83 -28 -191 -28q-257 0 -257 274q0 148 63 208q64 61 183 61q75 0 119 -13t76 -47q62 -65 49 -270h-303q1 -37 22 -50t72 -13q76 0 141 14zM296 394q-35 0 -48 -12.5t-20 -51.5h132q-1 39 -14 51.5t-50 12.5zM298 706q47 0 62.5 -14t15.5 -58
q0 -48 -16 -64t-62 -16t-61.5 16t-15.5 64q0 44 15.5 58t61.5 14z" />
    <glyph glyph-name="Eogonek" unicode="&#x118;" horiz-adv-x="631" 
d="M76 0v697h534v-168h-343v-88h247v-165h-247v-108h343v-168h-65q-32 -21 -43 -38t-11 -42q0 -19 11.5 -27t41.5 -8q44 0 73 24l42 -77q-50 -35 -136 -35q-76 0 -107 21t-31 68q0 76 98 114h-407z" />
    <glyph glyph-name="eogonek" unicode="&#x119;" horiz-adv-x="559" 
d="M462 150l26 -136q-21 -8 -46 -12q-33 -21 -45 -39t-12 -43q0 -19 11.5 -27t41.5 -8q44 0 73 24l42 -77q-50 -35 -136 -35q-76 0 -107 21t-31 68q0 64 73 103q-28 -3 -55 -3q-257 0 -257 274q0 148 63 208q64 61 183 61q75 0 119 -13t76 -47q62 -65 49 -270h-303
q1 -37 22 -50t72 -13q76 0 141 14zM296 394q-35 0 -48 -12.5t-20 -51.5h132q-1 39 -14 51.5t-50 12.5z" />
    <glyph glyph-name="Ecaron" unicode="&#x11a;" horiz-adv-x="631" 
d="M76 0v697h534v-168h-343v-88h247v-165h-247v-108h343v-168h-534zM141 876h152l61 -66l59 66h148l-122 -129h-172z" />
    <glyph glyph-name="ecaron" unicode="&#x11b;" horiz-adv-x="559" 
d="M462 150l26 -136q-83 -28 -191 -28q-257 0 -257 274q0 148 63 208q64 61 183 61q75 0 119 -13t76 -47q62 -65 49 -270h-303q1 -37 22 -50t72 -13q76 0 141 14zM296 394q-35 0 -48 -12.5t-20 -51.5h132q-1 39 -14 51.5t-50 12.5zM84 697h152l61 -66l59 66h148l-122 -129
h-172z" />
    <glyph glyph-name="Gcircumflex" unicode="&#x11c;" horiz-adv-x="724" 
d="M464 165v111h-123v165h320v-418q-49 -16 -129 -26q-85 -11 -154 -11q-176 0 -255 81q-79 80 -79 288t97 286q92 73 275 73q134 0 225 -24l-31 -168q-22 8 -81 12q-65 5 -93 5q-55 0 -90 -5q-30 -4 -56 -24q-24 -17 -33 -53t-9 -104q0 -67 8.5 -103.5t31.5 -56.5
q23 -18 51.5 -24t83.5 -6q7 0 41 2zM608 747h-152l-61 66l-59 -66h-148l122 129h172z" />
    <glyph glyph-name="gcircumflex" unicode="&#x11d;" horiz-adv-x="604" 
d="M358 166v209q-29 12 -58 12q-46 0 -62 -24q-15 -23 -15 -107q0 -68 14 -91q15 -23 58 -23q27 0 45 7t18 17zM541 494v-452q0 -153 -87 -203q-74 -43 -207 -43q-107 0 -195 30l30 139q94 -21 162 -21q58 0 86 16.5t28 54.5q-56 -25 -119 -25q-101 0 -150 57
q-49 56 -49 204q0 155 61 216q62 62 199 62q142 0 241 -35zM516 568h-152l-61 66l-59 -66h-148l122 129h172z" />
    <glyph glyph-name="Gbreve" unicode="&#x11e;" horiz-adv-x="724" 
d="M464 165v111h-123v165h320v-418q-49 -16 -129 -26q-85 -11 -154 -11q-176 0 -255 81q-79 80 -79 288t97 286q92 73 275 73q134 0 225 -24l-31 -168q-22 8 -81 12q-65 5 -93 5q-55 0 -90 -5q-30 -4 -56 -24q-24 -17 -33 -53t-9 -104q0 -67 8.5 -103.5t31.5 -56.5
q23 -18 51.5 -24t83.5 -6q7 0 41 2zM224 871h116q0 -26 12 -36t42 -10q29 0 41 10t12 36h108q0 -148 -166 -148q-165 0 -165 148z" />
    <glyph glyph-name="gbreve" unicode="&#x11f;" horiz-adv-x="604" 
d="M358 166v209q-29 12 -58 12q-46 0 -62 -24q-15 -23 -15 -107q0 -68 14 -91q15 -23 58 -23q27 0 45 7t18 17zM541 494v-452q0 -153 -87 -203q-74 -43 -207 -43q-107 0 -195 30l30 139q94 -21 162 -21q58 0 86 16.5t28 54.5q-56 -25 -119 -25q-101 0 -150 57
q-49 56 -49 204q0 155 61 216q62 62 199 62q142 0 241 -35zM137 697h116q0 -26 12 -36t42 -10q29 0 41 10t12 36h108q0 -148 -166 -148q-165 0 -165 148z" />
    <glyph glyph-name="Gdotaccent" unicode="&#x120;" horiz-adv-x="724" 
d="M464 165v111h-123v165h320v-418q-49 -16 -129 -26q-85 -11 -154 -11q-176 0 -255 81q-79 80 -79 288t97 286q92 73 275 73q134 0 225 -24l-31 -168q-22 8 -81 12q-65 5 -93 5q-55 0 -90 -5q-30 -4 -56 -24q-24 -17 -33 -53t-9 -104q0 -67 8.5 -103.5t31.5 -56.5
q23 -18 51.5 -24t83.5 -6q7 0 41 2zM411 887q47 0 62.5 -14t15.5 -58q0 -48 -16 -64t-62 -16t-61.5 16t-15.5 64q0 44 15.5 58t61.5 14z" />
    <glyph glyph-name="gdotaccent" unicode="&#x121;" horiz-adv-x="604" 
d="M358 166v209q-29 12 -58 12q-46 0 -62 -24q-15 -23 -15 -107q0 -68 14 -91q15 -23 58 -23q27 0 45 7t18 17zM541 494v-452q0 -153 -87 -203q-74 -43 -207 -43q-107 0 -195 30l30 139q94 -21 162 -21q58 0 86 16.5t28 54.5q-56 -25 -119 -25q-101 0 -150 57
q-49 56 -49 204q0 155 61 216q62 62 199 62q142 0 241 -35zM296 706q47 0 62.5 -14t15.5 -58q0 -48 -16 -64t-62 -16t-61.5 16t-15.5 64q0 44 15.5 58t61.5 14z" />
    <glyph glyph-name="Gcommaaccent" unicode="&#x122;" horiz-adv-x="724" 
d="M464 165v111h-123v165h320v-418q-49 -16 -129 -26q-85 -11 -154 -11q-176 0 -255 81q-79 80 -79 288t97 286q92 73 275 73q134 0 225 -24l-31 -168q-22 8 -81 12q-65 5 -93 5q-55 0 -90 -5q-30 -4 -56 -24q-24 -17 -33 -53t-9 -104q0 -67 8.5 -103.5t31.5 -56.5
q23 -18 51.5 -24t83.5 -6q7 0 41 2zM320 -51h184l-114 -167h-142z" />
    <glyph glyph-name="gcommaaccent" unicode="&#x123;" horiz-adv-x="604" 
d="M374 591h-184l114 167h142zM358 166v209q-29 12 -58 12q-46 0 -62 -24q-15 -23 -15 -107q0 -68 14 -91q15 -23 58 -23q27 0 45 7t18 17zM541 494v-452q0 -153 -87 -203q-74 -43 -207 -43q-107 0 -195 30l30 139q94 -21 162 -21q58 0 86 16.5t28 54.5q-56 -25 -119 -25
q-101 0 -150 57q-49 56 -49 204q0 155 61 216q62 62 199 62q142 0 241 -35z" />
    <glyph glyph-name="Hcircumflex" unicode="&#x124;" horiz-adv-x="759" 
d="M493 278h-226v-278h-191v697h191v-241h226v241h190v-697h-190v278zM588 747h-152l-61 66l-59 -66h-148l122 129h172z" />
    <glyph glyph-name="hcircumflex" unicode="&#x125;" horiz-adv-x="612" 
d="M556 302v-302h-183v294q0 74 -72 74q-55 0 -55 -19v-349h-183v722h183v-222q78 29 133 29q82 0 125 -40q52 -46 52 -187zM448 747h-152l-61 66l-59 -66h-148l122 129h172z" />
    <glyph glyph-name="Hbar" unicode="&#x126;" horiz-adv-x="759" 
d="M76 502h-51v152h51v43h191v-43h226v43h190v-43h51v-152h-51v-502h-190v278h-226v-278h-191v502zM267 502v-46h226v46h-226z" />
    <glyph glyph-name="hbar" unicode="&#x127;" horiz-adv-x="612" 
d="M63 567h-39v122h39v33h183v-33h83v-122h-83v-67q78 29 133 29q82 0 125 -40q52 -46 52 -187v-302h-183v294q0 74 -72 74q-55 0 -55 -19v-349h-183v567z" />
    <glyph glyph-name="Itilde" unicode="&#x128;" horiz-adv-x="343" 
d="M285 891l83 -67q-16 -42 -50.5 -68.5t-79.5 -26.5q-34 0 -79 20q-42 21 -64 21q-26 0 -44 -41l-76 75q46 79 114 79q43 0 88 -20q42 -19 62 -19q17 0 26.5 9.5t19.5 37.5zM76 0v697h191v-697h-191z" />
    <glyph glyph-name="itilde" unicode="&#x129;" horiz-adv-x="307" 
d="M268 715l83 -67q-16 -42 -50.5 -68.5t-79.5 -26.5q-34 0 -79 20q-42 21 -64 21q-26 0 -44 -41l-76 75q46 79 114 79q43 0 88 -20q42 -19 62 -19q17 0 26.5 9.5t19.5 37.5zM63 514h183v-514h-183v514z" />
    <glyph glyph-name="Imacron" unicode="&#x12a;" horiz-adv-x="343" 
d="M76 0v697h191v-697h-191zM324 737h-305v122h305v-122z" />
    <glyph glyph-name="imacron" unicode="&#x12b;" horiz-adv-x="307" 
d="M63 514h183v-514h-183v514zM307 567h-305v122h305v-122z" />
    <glyph glyph-name="Ibreve" unicode="&#x12c;" horiz-adv-x="343" 
d="M6 871h116q0 -26 12 -36t42 -10q29 0 41 10t12 36h108q0 -148 -166 -148q-165 0 -165 148zM76 0v697h191v-697h-191z" />
    <glyph glyph-name="ibreve" unicode="&#x12d;" horiz-adv-x="307" 
d="M63 514h183v-514h-183v514zM-12 697h116q0 -26 12 -36t42 -10q29 0 41 10t12 36h108q0 -148 -166 -148q-165 0 -165 148z" />
    <glyph glyph-name="Iogonek" unicode="&#x12e;" horiz-adv-x="343" 
d="M76 0v697h191v-697h-69q-32 -21 -43 -38t-11 -42q0 -19 11.5 -27t41.5 -8q45 0 73 24l42 -77q-50 -35 -136 -35q-76 0 -107 21t-31 68q0 76 98 114h-60z" />
    <glyph glyph-name="iogonek" unicode="&#x12f;" horiz-adv-x="307" 
d="M63 514h183v-514h-50q-32 -21 -43 -38t-11 -42q0 -19 11.5 -27t41.5 -8q45 0 73 24l42 -77q-50 -35 -136 -35q-76 0 -107 21t-31 68q0 76 98 114h-71v514zM256 662q0 -58 -21 -76t-81 -18t-81 18t-21 76q0 53 21 68q20 16 81 16t81 -16q21 -15 21 -68z" />
    <glyph glyph-name="Idot" unicode="&#x130;" horiz-adv-x="343" 
d="M170 887q47 0 62.5 -14t15.5 -58q0 -48 -16 -64t-62 -16t-61.5 16t-15.5 64q0 44 15.5 58t61.5 14zM76 0v697h191v-697h-191z" />
    <glyph glyph-name="dotlessi" unicode="&#x131;" horiz-adv-x="307" 
d="M63 514h183v-514h-183v514z" />
    <glyph glyph-name="IJ" unicode="&#x132;" horiz-adv-x="824" 
d="M561 697h192l1 -505q0 -57 -20 -99t-54.5 -64.5t-73.5 -32.5t-85 -10q-104 0 -180 25l28 169q57 -17 126 -17q66 0 66 64v470zM76 0v697h191v-697h-191z" />
    <glyph glyph-name="ij" unicode="&#x133;" horiz-adv-x="616" 
d="M564 662q0 -58 -21 -76t-81 -18t-81 18t-21 76q0 53 21 68q20 16 81 16t81 -16q21 -15 21 -68zM371 514h183v-507q0 -116 -58 -162q-57 -48 -196 -48v146q71 0 71 58v513zM63 514h183v-514h-183v514zM256 662q0 -58 -21 -76t-81 -18t-81 18t-21 76q0 53 21 68
q20 16 81 16t81 -16q21 -15 21 -68z" />
    <glyph glyph-name="Jcircumflex" unicode="&#x134;" horiz-adv-x="483" 
d="M220 697h192l1 -505q0 -57 -20 -99t-54.5 -64.5t-73.5 -32.5t-85 -10q-104 0 -180 25l28 169q57 -17 126 -17q66 0 66 64v470zM524 747h-152l-61 66l-59 -66h-148l122 129h172z" />
    <glyph glyph-name="jcircumflex" unicode="&#x135;" horiz-adv-x="307" 
d="M63 514h183v-507q0 -116 -58 -162q-57 -48 -196 -48v146q71 0 71 58v513zM358 568h-152l-61 66l-59 -66h-148l122 129h172z" />
    <glyph glyph-name="Kcommaaccent" unicode="&#x136;" horiz-adv-x="707" 
d="M76 697h191v-697h-191v697zM726 0h-227q-79 162 -141 257q-63 97 -90 111q30 29 88 116q62 92 128 213h225q-145 -252 -209 -320q28 -25 89 -122q65 -104 137 -255zM275 -51h184l-114 -167h-142z" />
    <glyph glyph-name="kcommaaccent" unicode="&#x137;" horiz-adv-x="625" 
d="M625 0h-209q-146 258 -170 272v-272h-183v722h183v-450q35 37 157 242h209q-111 -190 -158 -233q19 -14 67 -90q49 -77 104 -191zM232 -51h184l-114 -167h-142z" />
    <glyph glyph-name="Lacute" unicode="&#x139;" horiz-adv-x="556" 
d="M76 0v697h191v-529h298v-168h-489zM410 876l-156 -129h-150l124 129h182z" />
    <glyph glyph-name="lacute" unicode="&#x13a;" horiz-adv-x="315" 
d="M63 722h183v-566q0 -74 30 -130l-168 -52q-45 62 -45 177v571zM364 876l-156 -129h-150l124 129h182z" />
    <glyph glyph-name="Lcommaaccent" unicode="&#x13b;" horiz-adv-x="556" 
d="M76 0v697h191v-529h298v-168h-489zM238 -51h184l-114 -167h-142z" />
    <glyph glyph-name="lcommaaccent" unicode="&#x13c;" horiz-adv-x="315" 
d="M63 722h183v-566q0 -74 30 -130l-168 -52q-45 62 -45 177v571zM105 -51h184l-114 -167h-142z" />
    <glyph glyph-name="Lcaron" unicode="&#x13d;" horiz-adv-x="556" 
d="M76 0v697h191v-529h298v-168h-489zM341 530l18 192h148l-58 -192h-108z" />
    <glyph glyph-name="lcaron" unicode="&#x13e;" horiz-adv-x="315" 
d="M63 722h183v-566q0 -74 30 -130l-168 -52q-45 62 -45 177v571zM298 530l18 192h148l-58 -192h-108z" />
    <glyph glyph-name="Ldot" unicode="&#x13f;" horiz-adv-x="556" 
d="M395 505q47 0 62.5 -14t15.5 -58q0 -48 -16 -64t-62 -16t-61.5 16t-15.5 64q0 44 15.5 58t61.5 14zM76 0v697h191v-529h298v-168h-489z" />
    <glyph glyph-name="ldot" unicode="&#x140;" horiz-adv-x="315" 
d="M343 487q47 0 62.5 -14t15.5 -58q0 -48 -16 -64t-62 -16t-61.5 16t-15.5 64q0 44 15.5 58t61.5 14zM63 722h183v-566q0 -74 30 -130l-168 -52q-45 62 -45 177v571z" />
    <glyph glyph-name="Lslash" unicode="&#x141;" horiz-adv-x="556" 
d="M267 473l147 117v-172l-147 -117v-133h298v-168h-489v150l-61 -48v172l61 48v375h191v-224z" />
    <glyph glyph-name="lslash" unicode="&#x142;" horiz-adv-x="315" 
d="M63 722h183v-195l60 64v-172l-60 -64v-199q0 -74 30 -130l-168 -52q-45 62 -45 177v10l-55 -58v172l55 58v389z" />
    <glyph glyph-name="Nacute" unicode="&#x143;" horiz-adv-x="818" 
d="M553 697h189v-697h-237q-104 193 -243 427v-427h-186v697h247q118 -200 230 -415v415zM599 876l-156 -129h-150l124 129h182z" />
    <glyph glyph-name="nacute" unicode="&#x144;" horiz-adv-x="612" 
d="M246 360v-360h-183v481q144 48 278 48q111 0 163 -57.5t52 -188.5v-283h-183v271q0 57 -14 76.5t-58 19.5q-20 0 -55 -7zM495 697l-156 -129h-150l124 129h182z" />
    <glyph glyph-name="Ncommaaccent" unicode="&#x145;" horiz-adv-x="818" 
d="M553 697h189v-697h-237q-104 193 -243 427v-427h-186v697h247q118 -200 230 -415v415zM321 -51h184l-114 -167h-142z" />
    <glyph glyph-name="ncommaaccent" unicode="&#x146;" horiz-adv-x="612" 
d="M246 360v-360h-183v481q144 48 278 48q111 0 163 -57.5t52 -188.5v-283h-183v271q0 57 -14 76.5t-58 19.5q-20 0 -55 -7zM218 -51h184l-114 -167h-142z" />
    <glyph glyph-name="Ncaron" unicode="&#x147;" horiz-adv-x="818" 
d="M553 697h189v-697h-237q-104 193 -243 427v-427h-186v697h247q118 -200 230 -415v415zM215 876h152l61 -66l59 66h148l-122 -129h-172z" />
    <glyph glyph-name="ncaron" unicode="&#x148;" horiz-adv-x="612" 
d="M246 360v-360h-183v481q144 48 278 48q111 0 163 -57.5t52 -188.5v-283h-183v271q0 57 -14 76.5t-58 19.5q-20 0 -55 -7zM95 697h152l61 -66l59 66h148l-122 -129h-172z" />
    <glyph glyph-name="napostrophe" unicode="&#x149;" horiz-adv-x="612" 
d="M246 360v-360h-183v481q144 48 278 48q111 0 163 -57.5t52 -188.5v-283h-183v271q0 57 -14 76.5t-58 19.5q-20 0 -55 -7zM115 714h184l-114 -167h-142z" />
    <glyph glyph-name="Omacron" unicode="&#x14c;" horiz-adv-x="781" 
d="M391 714q174 0 257 -72q89 -77 89 -284q0 -211 -90 -294q-84 -78 -256 -78q-173 0 -258 78q-89 83 -89 294q0 205 89 284q45 39 106 55.5t152 16.5zM533 356q0 37 -2 71q-2 59 -21 82q-16 17 -42 23t-77 5q-52 1 -78 -5t-42 -23q-8 -12 -14 -33q-9 -33 -9 -120
q0 -58 1 -77q5 -64 22 -87q13 -18 40.5 -24.5t79.5 -6.5q90 -3 119 31q8 11 14 35q9 36 9 129zM544 737h-305v122h305v-122z" />
    <glyph glyph-name="omacron" unicode="&#x14d;" 
d="M295 -14q-133 0 -194 60q-61 61 -61 214q0 151 62 210t193 59q133 0 195 -59t62 -210q0 -152 -62 -214q-62 -60 -195 -60zM295 389q-45 0 -59 -23q-13 -22 -13 -109q0 -85 14 -108t58 -23q45 0 59 23t14 108q0 86 -14 109t-59 23zM448 567h-305v122h305v-122z" />
    <glyph glyph-name="Obreve" unicode="&#x14e;" horiz-adv-x="781" 
d="M391 714q174 0 257 -72q89 -77 89 -284q0 -211 -90 -294q-84 -78 -256 -78q-173 0 -258 78q-89 83 -89 294q0 205 89 284q45 39 106 55.5t152 16.5zM533 356q0 37 -2 71q-2 59 -21 82q-16 17 -42 23t-77 5q-52 1 -78 -5t-42 -23q-8 -12 -14 -33q-9 -33 -9 -120
q0 -58 1 -77q5 -64 22 -87q13 -18 40.5 -24.5t79.5 -6.5q90 -3 119 31q8 11 14 35q9 36 9 129zM227 871h116q0 -26 12 -36t42 -10q29 0 41 10t12 36h108q0 -148 -166 -148q-165 0 -165 148z" />
    <glyph glyph-name="obreve" unicode="&#x14f;" 
d="M295 -14q-133 0 -194 60q-61 61 -61 214q0 151 62 210t193 59q133 0 195 -59t62 -210q0 -152 -62 -214q-62 -60 -195 -60zM295 389q-45 0 -59 -23q-13 -22 -13 -109q0 -85 14 -108t58 -23q45 0 59 23t14 108q0 86 -14 109t-59 23zM129 697h116q0 -26 12 -36t42 -10
q29 0 41 10t12 36h108q0 -148 -166 -148q-165 0 -165 148z" />
    <glyph glyph-name="Ohungarumlaut" unicode="&#x150;" horiz-adv-x="781" 
d="M391 714q174 0 257 -72q89 -77 89 -284q0 -211 -90 -294q-84 -78 -256 -78q-173 0 -258 78q-89 83 -89 294q0 205 89 284q45 39 106 55.5t152 16.5zM533 356q0 37 -2 71q-2 59 -21 82q-16 17 -42 23t-77 5q-52 1 -78 -5t-42 -23q-8 -12 -14 -33q-9 -33 -9 -120
q0 -58 1 -77q5 -64 22 -87q13 -18 40.5 -24.5t79.5 -6.5q90 -3 119 31q8 11 14 35q9 36 9 129zM199 747l97 129h143l-122 -129h-118zM389 747l97 129h143l-122 -129h-118z" />
    <glyph glyph-name="ohungarumlaut" unicode="&#x151;" 
d="M295 -14q-133 0 -194 60q-61 61 -61 214q0 151 62 210t193 59q133 0 195 -59t62 -210q0 -152 -62 -214q-62 -60 -195 -60zM295 389q-45 0 -59 -23q-13 -22 -13 -109q0 -85 14 -108t58 -23q45 0 59 23t14 108q0 86 -14 109t-59 23zM105 568l97 129h143l-122 -129h-118z
M295 568l97 129h143l-122 -129h-118z" />
    <glyph glyph-name="OE" unicode="&#x152;" horiz-adv-x="1087" 
d="M543 697h523v-168h-351q12 -39 18 -88h187v-165h-187q-6 -59 -22 -108h355v-168h-539q-58 -14 -136 -14q-173 0 -258 78q-89 83 -89 294q0 205 89 284q45 39 106 55.5t152 16.5q89 0 152 -17zM533 356q0 37 -2 71q-2 59 -21 82q-16 17 -42 23t-77 5q-52 1 -78 -5t-42 -23
q-8 -12 -14 -33q-9 -33 -9 -120q0 -58 1 -77q5 -64 22 -87q13 -18 40.5 -24.5t79.5 -6.5q90 -3 119 31q8 11 14 35q9 36 9 129z" />
    <glyph glyph-name="oe" unicode="&#x153;" horiz-adv-x="883" 
d="M786 150l26 -136q-83 -28 -191 -28q-101 0 -157 45q-53 -45 -169 -45q-133 0 -194 60q-61 61 -61 214q0 151 62 210t193 59q113 0 165 -40q50 40 150 40q111 0 166 -36q89 -56 72 -294h-297q1 -37 22 -50t72 -13q76 0 141 14zM295 389q-45 0 -59 -23q-13 -22 -13 -109
q0 -85 14 -108t58 -23q45 0 59 23t14 108q0 86 -14 109t-59 23zM625 394q-36 0 -51 -13.5t-22 -50.5h142q-1 38 -15.5 51t-53.5 13z" />
    <glyph glyph-name="Racute" unicode="&#x154;" horiz-adv-x="738" 
d="M428 534h-161v-148h160q40 0 40 73q0 75 -39 75zM515 295q36 -13 79 -70q44 -55 144 -225h-237q-81 141 -116 184q-38 47 -67 47h-51v-231h-191v697h415q96 0 142.5 -53.5t46.5 -150.5q0 -185 -165 -198zM534 876l-156 -129h-150l124 129h182z" />
    <glyph glyph-name="racute" unicode="&#x155;" horiz-adv-x="415" 
d="M246 0h-183v514h183v-41q30 56 118 56q22 0 51 -3v-169q-29 10 -78 10q-39 0 -65 -13t-26 -34v-320zM459 697l-156 -129h-150l124 129h182z" />
    <glyph glyph-name="Rcommaaccent" unicode="&#x156;" horiz-adv-x="738" 
d="M428 534h-161v-148h160q40 0 40 73q0 75 -39 75zM515 295q36 -13 79 -70q44 -55 144 -225h-237q-81 141 -116 184q-38 47 -67 47h-51v-231h-191v697h415q96 0 142.5 -53.5t46.5 -150.5q0 -185 -165 -198zM294 -51h184l-114 -167h-142z" />
    <glyph glyph-name="rcommaaccent" unicode="&#x157;" horiz-adv-x="415" 
d="M246 0h-183v514h183v-41q30 56 118 56q22 0 51 -3v-169q-29 10 -78 10q-39 0 -65 -13t-26 -34v-320zM96 -51h184l-114 -167h-142z" />
    <glyph glyph-name="Rcaron" unicode="&#x158;" horiz-adv-x="738" 
d="M428 534h-161v-148h160q40 0 40 73q0 75 -39 75zM515 295q36 -13 79 -70q44 -55 144 -225h-237q-81 141 -116 184q-38 47 -67 47h-51v-231h-191v697h415q96 0 142.5 -53.5t46.5 -150.5q0 -185 -165 -198zM141 876h152l61 -66l59 66h148l-122 -129h-172z" />
    <glyph glyph-name="rcaron" unicode="&#x159;" horiz-adv-x="415" 
d="M246 0h-183v514h183v-41q30 56 118 56q22 0 51 -3v-169q-29 10 -78 10q-39 0 -65 -13t-26 -34v-320zM41 697h152l61 -66l59 66h148l-122 -129h-172z" />
    <glyph glyph-name="Sacute" unicode="&#x15a;" horiz-adv-x="621" 
d="M350 714q140 0 233 -35l-37 -162q-89 22 -198 22q-66 0 -88.5 -10t-22.5 -35q0 -28 22 -38q20 -9 107 -20q120 -15 173.5 -65.5t53.5 -149.5q0 -133 -71 -184q-70 -51 -247 -51q-140 0 -236 35l38 163q97 -23 195 -23q71 0 92 9q22 10 22 37t-24 38q-27 12 -118 22
q-112 13 -161 58t-49 139q0 133 74.5 191.5t241.5 58.5zM511 876l-156 -129h-150l124 129h182z" />
    <glyph glyph-name="sacute" unicode="&#x15b;" horiz-adv-x="478" 
d="M443 500l-32 -132q-82 20 -153 20q-32 0 -43 -5t-11 -23q0 -15 13 -19q19 -6 70 -13q92 -14 128 -47q39 -34 39 -113q0 -182 -241 -182q-107 0 -182 28l33 135q72 -19 140 -19q44 0 60 5.5t16 23.5q0 15 -18 21.5t-77 12.5q-84 8 -119.5 42t-35.5 113q0 181 236 181
q99 0 177 -29zM433 697l-156 -129h-150l124 129h182z" />
    <glyph glyph-name="Scircumflex" unicode="&#x15c;" horiz-adv-x="621" 
d="M350 714q140 0 233 -35l-37 -162q-89 22 -198 22q-66 0 -88.5 -10t-22.5 -35q0 -28 22 -38q20 -9 107 -20q120 -15 173.5 -65.5t53.5 -149.5q0 -133 -71 -184q-70 -51 -247 -51q-140 0 -236 35l38 163q97 -23 195 -23q71 0 92 9q22 10 22 37t-24 38q-27 12 -118 22
q-112 13 -161 58t-49 139q0 133 74.5 191.5t241.5 58.5zM538 747h-152l-61 66l-59 -66h-148l122 129h172z" />
    <glyph glyph-name="scircumflex" unicode="&#x15d;" horiz-adv-x="478" 
d="M443 500l-32 -132q-82 20 -153 20q-32 0 -43 -5t-11 -23q0 -15 13 -19q19 -6 70 -13q92 -14 128 -47q39 -34 39 -113q0 -182 -241 -182q-107 0 -182 28l33 135q72 -19 140 -19q44 0 60 5.5t16 23.5q0 15 -18 21.5t-77 12.5q-84 8 -119.5 42t-35.5 113q0 181 236 181
q99 0 177 -29zM468 568h-152l-61 66l-59 -66h-148l122 129h172z" />
    <glyph glyph-name="Scedilla" unicode="&#x15e;" horiz-adv-x="621" 
d="M350 714q140 0 233 -35l-37 -162q-89 22 -198 22q-66 0 -88.5 -10t-22.5 -35q0 -28 22 -38q20 -9 107 -20q120 -15 173.5 -65.5t53.5 -149.5q0 -121 -58 -173q-59 -52 -198 -60v-24q100 0 100 -81q0 -48 -33 -67t-116 -19q-51 0 -90 11l26 66q13 -7 54 -7q26 0 26 19
q0 26 -68 20l30 80q-137 1 -227 35l38 163q97 -23 195 -23q71 0 92 9q22 10 22 37t-24 38q-27 12 -118 22q-112 13 -161 58t-49 139q0 133 74.5 191.5t241.5 58.5z" />
    <glyph glyph-name="Scedilla" unicode="&#xf6c1;" horiz-adv-x="621" 
d="M350 714q140 0 233 -35l-37 -162q-89 22 -198 22q-66 0 -88.5 -10t-22.5 -35q0 -28 22 -38q20 -9 107 -20q120 -15 173.5 -65.5t53.5 -149.5q0 -121 -58 -173q-59 -52 -198 -60v-24q100 0 100 -81q0 -48 -33 -67t-116 -19q-51 0 -90 11l26 66q13 -7 54 -7q26 0 26 19
q0 26 -68 20l30 80q-137 1 -227 35l38 163q97 -23 195 -23q71 0 92 9q22 10 22 37t-24 38q-27 12 -118 22q-112 13 -161 58t-49 139q0 133 74.5 191.5t241.5 58.5z" />
    <glyph glyph-name="scedilla" unicode="&#x15f;" horiz-adv-x="478" 
d="M443 500l-32 -132q-82 20 -153 20q-32 0 -43 -5t-11 -23q0 -15 13 -19q19 -6 70 -13q92 -14 128 -47q39 -34 39 -113q0 -160 -184 -179v-25q100 0 100 -81q0 -48 -33 -67t-116 -19q-51 0 -90 11l26 66q13 -7 54 -7q26 0 26 19q0 26 -68 20l30 80q-102 5 -168 28l33 135
q72 -19 140 -19q44 0 60 5.5t16 23.5q0 15 -18 21.5t-77 12.5q-84 8 -119.5 42t-35.5 113q0 181 236 181q99 0 177 -29z" />
    <glyph glyph-name="scedilla" unicode="&#xf6c2;" horiz-adv-x="478" 
d="M443 500l-32 -132q-82 20 -153 20q-32 0 -43 -5t-11 -23q0 -15 13 -19q19 -6 70 -13q92 -14 128 -47q39 -34 39 -113q0 -160 -184 -179v-25q100 0 100 -81q0 -48 -33 -67t-116 -19q-51 0 -90 11l26 66q13 -7 54 -7q26 0 26 19q0 26 -68 20l30 80q-102 5 -168 28l33 135
q72 -19 140 -19q44 0 60 5.5t16 23.5q0 15 -18 21.5t-77 12.5q-84 8 -119.5 42t-35.5 113q0 181 236 181q99 0 177 -29z" />
    <glyph glyph-name="Scaron" unicode="&#x160;" horiz-adv-x="621" 
d="M350 714q140 0 233 -35l-37 -162q-89 22 -198 22q-66 0 -88.5 -10t-22.5 -35q0 -28 22 -38q20 -9 107 -20q120 -15 173.5 -65.5t53.5 -149.5q0 -133 -71 -184q-70 -51 -247 -51q-140 0 -236 35l38 163q97 -23 195 -23q71 0 92 9q22 10 22 37t-24 38q-27 12 -118 22
q-112 13 -161 58t-49 139q0 133 74.5 191.5t241.5 58.5zM114 876h152l61 -66l59 66h148l-122 -129h-172z" />
    <glyph glyph-name="scaron" unicode="&#x161;" horiz-adv-x="478" 
d="M443 500l-32 -132q-82 20 -153 20q-32 0 -43 -5t-11 -23q0 -15 13 -19q19 -6 70 -13q92 -14 128 -47q39 -34 39 -113q0 -182 -241 -182q-107 0 -182 28l33 135q72 -19 140 -19q44 0 60 5.5t16 23.5q0 15 -18 21.5t-77 12.5q-84 8 -119.5 42t-35.5 113q0 181 236 181
q99 0 177 -29zM39 697h152l61 -66l59 66h148l-122 -129h-172z" />
    <glyph glyph-name="Tcommaaccent" unicode="&#x162;" horiz-adv-x="650" 
d="M421 529v-529h-192v529h-229v168h650v-168h-229zM261 -51h184l-114 -167h-142z" />
    <glyph glyph-name="Tcommaaccent" unicode="&#x21a;" horiz-adv-x="650" 
d="M421 529v-529h-192v529h-229v168h650v-168h-229zM261 -51h184l-114 -167h-142z" />
    <glyph glyph-name="tcommaaccent" unicode="&#x163;" horiz-adv-x="438" 
d="M422 514v-156h-151v-163q0 -31 13 -43.5t48 -12.5t77 13l29 -138q-68 -28 -169 -28q-92 0 -137 39q-44 41 -44 149v184h-81v156h81v66l183 74v-140h151zM158 -51h184l-114 -167h-142z" />
    <glyph glyph-name="tcommaaccent" unicode="&#x21b;" horiz-adv-x="438" 
d="M422 514v-156h-151v-163q0 -31 13 -43.5t48 -12.5t77 13l29 -138q-68 -28 -169 -28q-92 0 -137 39q-44 41 -44 149v184h-81v156h81v66l183 74v-140h151zM158 -51h184l-114 -167h-142z" />
    <glyph glyph-name="Tcaron" unicode="&#x164;" horiz-adv-x="650" 
d="M421 529v-529h-192v529h-229v168h650v-168h-229zM119 876h152l61 -66l59 66h148l-122 -129h-172z" />
    <glyph glyph-name="tcaron" unicode="&#x165;" horiz-adv-x="438" 
d="M422 514v-156h-151v-163q0 -31 13 -43.5t48 -12.5t77 13l29 -138q-68 -28 -169 -28q-92 0 -137 39q-44 41 -44 149v184h-81v156h81v66l183 74v-140h151zM335 581l18 192h148l-58 -192h-108z" />
    <glyph glyph-name="Tbar" unicode="&#x166;" horiz-adv-x="650" 
d="M229 219h-60v122h60v188h-229v168h650v-168h-229v-188h55v-122h-55v-219h-192v219z" />
    <glyph glyph-name="tbar" unicode="&#x167;" horiz-adv-x="438" 
d="M88 207h-47v102h47v49h-81v156h81v66l183 74v-140h151v-156h-151v-49h75v-102h-75v-12q0 -31 14 -43.5t50 -12.5q32 0 74 13l29 -138q-68 -28 -166 -28q-92 0 -138 40t-46 148v33z" />
    <glyph glyph-name="Utilde" unicode="&#x168;" horiz-adv-x="747" 
d="M486 222v475h192v-517q0 -112 -85 -155q-78 -39 -220 -39q-155 0 -229.5 44.5t-74.5 149.5v517h192v-475q0 -31 25 -44t87 -13t87.5 13.5t25.5 43.5zM487 891l83 -67q-16 -42 -50.5 -68.5t-79.5 -26.5q-34 0 -79 20q-42 21 -64 21q-26 0 -44 -41l-76 75q46 79 114 79
q43 0 88 -20q42 -19 62 -19q17 0 26.5 9.5t19.5 37.5z" />
    <glyph glyph-name="utilde" unicode="&#x169;" horiz-adv-x="612" 
d="M367 155v359h182v-480q-144 -48 -278 -48q-111 0 -162.5 57.5t-51.5 188.5v282h182v-271q0 -57 14 -76t58 -19q20 0 56 7zM418 715l83 -67q-16 -42 -50.5 -68.5t-79.5 -26.5q-34 0 -79 20q-42 21 -64 21q-26 0 -44 -41l-76 75q46 79 114 79q43 0 88 -20q42 -19 62 -19
q17 0 26.5 9.5t19.5 37.5z" />
    <glyph glyph-name="Umacron" unicode="&#x16a;" horiz-adv-x="747" 
d="M486 222v475h192v-517q0 -112 -85 -155q-78 -39 -220 -39q-155 0 -229.5 44.5t-74.5 149.5v517h192v-475q0 -31 25 -44t87 -13t87.5 13.5t25.5 43.5zM523 737h-305v122h305v-122z" />
    <glyph glyph-name="umacron" unicode="&#x16b;" horiz-adv-x="612" 
d="M367 155v359h182v-480q-144 -48 -278 -48q-111 0 -162.5 57.5t-51.5 188.5v282h182v-271q0 -57 14 -76t58 -19q20 0 56 7zM454 567h-305v122h305v-122z" />
    <glyph glyph-name="Ubreve" unicode="&#x16c;" horiz-adv-x="747" 
d="M486 222v475h192v-517q0 -112 -85 -155q-78 -39 -220 -39q-155 0 -229.5 44.5t-74.5 149.5v517h192v-475q0 -31 25 -44t87 -13t87.5 13.5t25.5 43.5zM206 871h116q0 -26 12 -36t42 -10q29 0 41 10t12 36h108q0 -148 -166 -148q-165 0 -165 148z" />
    <glyph glyph-name="ubreve" unicode="&#x16d;" horiz-adv-x="612" 
d="M367 155v359h182v-480q-144 -48 -278 -48q-111 0 -162.5 57.5t-51.5 188.5v282h182v-271q0 -57 14 -76t58 -19q20 0 56 7zM136 697h116q0 -26 12 -36t42 -10q29 0 41 10t12 36h108q0 -148 -166 -148q-165 0 -165 148z" />
    <glyph glyph-name="Uring" unicode="&#x16e;" horiz-adv-x="747" 
d="M372 908q70 0 99 -22t29 -80t-28.5 -80t-99.5 -22q-72 0 -101 22t-29 80t29.5 80t100.5 22zM372 840q-26 0 -34.5 -7t-8.5 -28t8 -27.5t35 -6.5q26 0 34 6.5t8 27.5t-8 28t-34 7zM486 222v475h192v-517q0 -112 -85 -155q-78 -39 -220 -39q-155 0 -229.5 44.5t-74.5 149.5
v517h192v-475q0 -31 25 -44t87 -13t87.5 13.5t25.5 43.5z" />
    <glyph glyph-name="uring" unicode="&#x16f;" horiz-adv-x="612" 
d="M302 744q70 0 99 -22t29 -80t-28.5 -80t-99.5 -22q-72 0 -101 22t-29 80t29.5 80t100.5 22zM302 676q-26 0 -34.5 -7t-8.5 -28t8 -27.5t35 -6.5q26 0 34 6.5t8 27.5t-8 28t-34 7zM367 155v359h182v-480q-144 -48 -278 -48q-111 0 -162.5 57.5t-51.5 188.5v282h182v-271
q0 -57 14 -76t58 -19q20 0 56 7z" />
    <glyph glyph-name="Uhungarumlaut" unicode="&#x170;" horiz-adv-x="747" 
d="M486 222v475h192v-517q0 -112 -85 -155q-78 -39 -220 -39q-155 0 -229.5 44.5t-74.5 149.5v517h192v-475q0 -31 25 -44t87 -13t87.5 13.5t25.5 43.5zM192 747l97 129h143l-122 -129h-118zM382 747l97 129h143l-122 -129h-118z" />
    <glyph glyph-name="uhungarumlaut" unicode="&#x171;" horiz-adv-x="612" 
d="M367 155v359h182v-480q-144 -48 -278 -48q-111 0 -162.5 57.5t-51.5 188.5v282h182v-271q0 -57 14 -76t58 -19q20 0 56 7zM108 568l97 129h143l-122 -129h-118zM298 568l97 129h143l-122 -129h-118z" />
    <glyph glyph-name="Uogonek" unicode="&#x172;" horiz-adv-x="747" 
d="M486 222v475h192v-517q0 -98 -65.5 -143t-199.5 -50q-36 -29 -36 -67q0 -19 11.5 -27t41.5 -8q44 0 73 24l42 -77q-50 -35 -136 -35q-76 0 -107 21t-31 68q0 64 69 101q-138 4 -204.5 48.5t-66.5 144.5v517h192v-475q0 -31 25 -44t87 -13t87.5 13.5t25.5 43.5z" />
    <glyph glyph-name="uogonek" unicode="&#x173;" horiz-adv-x="612" 
d="M367 155v359h182v-480q-43 -13 -83 -24q-42 -24 -56.5 -43t-14.5 -47q0 -19 11.5 -27t41.5 -8q44 0 73 24l42 -77q-50 -35 -136 -35q-76 0 -107 21t-31 68q0 70 81 107q-52 -7 -99 -7q-111 0 -162.5 57.5t-51.5 188.5v282h182v-271q0 -57 14 -76t58 -19q20 0 56 7z" />
    <glyph glyph-name="Wcircumflex" unicode="&#x174;" horiz-adv-x="1046" 
d="M525 363q-39 -165 -98 -363h-243q-98 419 -194 697h207q77 -228 124 -443q88 287 119 443h170q71 -223 124 -443q69 222 111 443h201q-29 -128 -90 -340q-55 -197 -107 -357h-243q-33 168 -81 363zM735 747h-152l-61 66l-59 -66h-148l122 129h172z" />
    <glyph glyph-name="wcircumflex" unicode="&#x175;" horiz-adv-x="847" 
d="M420 253q-21 -112 -67 -253h-214q-72 256 -163 514h184q54 -149 97 -321q41 128 89 321h158q56 -178 87 -321q65 197 93 321h180q-85 -288 -177 -514h-215q-16 94 -52 253zM634 568h-152l-61 66l-59 -66h-148l122 129h172z" />
    <glyph glyph-name="Ycircumflex" unicode="&#x176;" horiz-adv-x="669" 
d="M-71 697h254l165 -227q111 162 148 227h237q-102 -162 -291 -430v-267h-191v266q-229 319 -322 431zM557 747h-152l-61 66l-59 -66h-148l122 129h172z" />
    <glyph glyph-name="ycircumflex" unicode="&#x177;" horiz-adv-x="513" 
d="M350 514h180q-105 -371 -264 -706h-200q40 68 84 166q-60 218 -174 540h184q50 -140 97 -326q60 182 93 326zM469 568h-152l-61 66l-59 -66h-148l122 129h172z" />
    <glyph glyph-name="Ydieresis" unicode="&#x178;" horiz-adv-x="669" 
d="M-71 697h254l165 -227q111 162 148 227h237q-102 -162 -291 -430v-267h-191v266q-229 319 -322 431zM228 881q47 0 62.5 -14t15.5 -58q0 -48 -16 -64t-62 -16t-61.5 16t-15.5 64q0 44 15.5 58t61.5 14zM466 881q46 0 61.5 -14t15.5 -58q0 -48 -15.5 -64t-61.5 -16
q-47 0 -62.5 15.5t-15.5 64.5q0 45 15 58.5t63 13.5z" />
    <glyph glyph-name="Zacute" unicode="&#x179;" horiz-adv-x="634" 
d="M628 0h-615v36q188 289 305 493h-287v168h593v-34q-44 -82 -148 -252q-111 -179 -157 -243h309v-168zM513 876l-156 -129h-150l124 129h182z" />
    <glyph glyph-name="zacute" unicode="&#x17a;" horiz-adv-x="499" 
d="M19 358v156h477v-25q-86 -151 -215 -333h199v-156h-479v24q59 83 121 179q74 114 95 155h-198zM456 697l-156 -129h-150l124 129h182z" />
    <glyph glyph-name="Zdotaccent" unicode="&#x17b;" horiz-adv-x="634" 
d="M628 0h-615v36q188 289 305 493h-287v168h593v-34q-44 -82 -148 -252q-111 -179 -157 -243h309v-168zM327 887q47 0 62.5 -14t15.5 -58q0 -48 -16 -64t-62 -16t-61.5 16t-15.5 64q0 44 15.5 58t61.5 14z" />
    <glyph glyph-name="zdotaccent" unicode="&#x17c;" horiz-adv-x="499" 
d="M19 358v156h477v-25q-86 -151 -215 -333h199v-156h-479v24q59 83 121 179q74 114 95 155h-198zM254 706q47 0 62.5 -14t15.5 -58q0 -48 -16 -64t-62 -16t-61.5 16t-15.5 64q0 44 15.5 58t61.5 14z" />
    <glyph glyph-name="Zcaron" unicode="&#x17d;" horiz-adv-x="634" 
d="M628 0h-615v36q188 289 305 493h-287v168h593v-34q-44 -82 -148 -252q-111 -179 -157 -243h309v-168zM122 876h152l61 -66l59 66h148l-122 -129h-172z" />
    <glyph glyph-name="zcaron" unicode="&#x17e;" horiz-adv-x="499" 
d="M19 358v156h477v-25q-86 -151 -215 -333h199v-156h-479v24q59 83 121 179q74 114 95 155h-198zM44 697h152l61 -66l59 66h148l-122 -129h-172z" />
    <glyph glyph-name="longs" unicode="&#x17f;" horiz-adv-x="308" 
d="M239 0h-183v534q0 196 205 196q93 0 167 -28l-38 -139q-44 14 -87 14q-36 0 -50 -13t-14 -44v-520z" />
    <glyph glyph-name="florin" unicode="&#x192;" horiz-adv-x="398" 
d="M60 0l64 358h-91l28 156h91l3 20q34 196 240 196q103 0 172 -28l-63 -139q-40 14 -94 14q-36 0 -52.5 -13t-21.5 -44l-1 -6h161l-28 -156h-161l-64 -358q-14 -75 -57 -121q-76 -82 -208 -82q-101 0 -175 25l52 131q56 -17 123 -17q72 0 82 64z" />
    <glyph glyph-name="Ohorn" unicode="&#x1a0;" horiz-adv-x="781" 
d="M724 595v101h121v-96q0 -28 -20 -56t-53 -43h-49q14 -67 14 -143q0 -211 -90 -294q-84 -78 -256 -78q-173 0 -258 78q-89 83 -89 294q0 205 89 284q45 39 106 55.5t152 16.5q144 0 222.5 -46.5t107.5 -157.5q54 38 54 85h-51zM533 356q0 37 -2 71q-2 59 -21 82
q-16 17 -42 23t-77 5q-52 1 -78 -5t-42 -23q-8 -12 -14 -33q-9 -33 -9 -120q0 -58 1 -77q5 -64 22 -87q13 -18 40.5 -24.5t79.5 -6.5q90 -3 119 31q8 11 14 35q9 36 9 129z" />
    <glyph glyph-name="ohorn" unicode="&#x1a1;" 
d="M559 413v101h121v-96q0 -28 -20 -56t-53 -43h-58q3 -27 3 -59q0 -152 -62 -214q-62 -60 -195 -60t-194 60q-61 61 -61 214q0 151 62 210t193 59q121 0 181.5 -47t72.5 -158q61 39 61 89h-51zM295 389q-45 0 -59 -23q-13 -22 -13 -109q0 -85 14 -108t58 -23q45 0 59 23
t14 108q0 86 -14 109t-59 23z" />
    <glyph glyph-name="Uhorn" unicode="&#x1af;" horiz-adv-x="747" 
d="M486 222v475h192v-517q0 -112 -85 -155q-78 -39 -220 -39q-155 0 -229.5 44.5t-74.5 149.5v517h192v-475q0 -31 25 -44t87 -13t87.5 13.5t25.5 43.5zM723 596v101h121v-96q0 -28 -20 -56t-53 -43h-66q69 40 69 94h-51z" />
    <glyph glyph-name="uhorn" unicode="&#x1b0;" horiz-adv-x="612" 
d="M367 155v359h182v-480q-144 -48 -278 -48q-111 0 -162.5 57.5t-51.5 188.5v282h182v-271q0 -57 14 -76t58 -19q20 0 56 7zM587 413v101h121v-96q0 -28 -20 -56t-53 -43h-66q69 41 69 94h-51z" />
    <glyph glyph-name="uni01CD" unicode="&#x1cd;" horiz-adv-x="696" 
d="M211 697h291q109 -371 240 -697h-211q-24 56 -50 134h-270l-36 -134h-207q36 128 111 344q71 205 132 353zM358 529h-25q-24 -66 -74 -230h167q-39 122 -68 230zM138 876h152l61 -66l59 66h148l-122 -129h-172z" />
    <glyph glyph-name="uni01CE" unicode="&#x1ce;" horiz-adv-x="578" 
d="M522 329v-303q-116 -40 -256 -40q-133 0 -179 34q-45 34 -45 136q0 101 48 134t152 33q48 0 107 -12q0 44 -19 57q-18 15 -86 15q-73 0 -163 -25l-26 143q113 28 237 28q122 0 176 -45.5t54 -154.5zM349 129v69q-25 5 -65 5q-33 0 -44 -8t-11 -34q0 -27 9.5 -35t42.5 -8
q37 0 68 11zM79 697h152l61 -66l59 66h148l-122 -129h-172z" />
    <glyph glyph-name="uni01CF" unicode="&#x1cf;" horiz-adv-x="343" 
d="M-39 876h152l61 -66l59 66h148l-122 -129h-172zM76 0v697h191v-697h-191z" />
    <glyph glyph-name="uni01D0" unicode="&#x1d0;" horiz-adv-x="307" 
d="M-56 697h152l61 -66l59 66h148l-122 -129h-172zM63 514h183v-514h-183v514z" />
    <glyph glyph-name="uni01D1" unicode="&#x1d1;" horiz-adv-x="781" 
d="M391 714q174 0 257 -72q89 -77 89 -284q0 -211 -90 -294q-84 -78 -256 -78q-173 0 -258 78q-89 83 -89 294q0 205 89 284q45 39 106 55.5t152 16.5zM533 356q0 37 -2 71q-2 59 -21 82q-16 17 -42 23t-77 5q-52 1 -78 -5t-42 -23q-8 -12 -14 -33q-9 -33 -9 -120
q0 -58 1 -77q5 -64 22 -87q13 -18 40.5 -24.5t79.5 -6.5q90 -3 119 31q8 11 14 35q9 36 9 129zM180 876h152l61 -66l59 66h148l-122 -129h-172z" />
    <glyph glyph-name="uni01D2" unicode="&#x1d2;" 
d="M295 -14q-133 0 -194 60q-61 61 -61 214q0 151 62 210t193 59q133 0 195 -59t62 -210q0 -152 -62 -214q-62 -60 -195 -60zM295 389q-45 0 -59 -23q-13 -22 -13 -109q0 -85 14 -108t58 -23q45 0 59 23t14 108q0 86 -14 109t-59 23zM86 697h152l61 -66l59 66h148l-122 -129
h-172z" />
    <glyph glyph-name="uni01D3" unicode="&#x1d3;" horiz-adv-x="747" 
d="M486 222v475h192v-517q0 -112 -85 -155q-78 -39 -220 -39q-155 0 -229.5 44.5t-74.5 149.5v517h192v-475q0 -31 25 -44t87 -13t87.5 13.5t25.5 43.5zM163 876h152l61 -66l59 66h148l-122 -129h-172z" />
    <glyph glyph-name="uni01D4" unicode="&#x1d4;" horiz-adv-x="612" 
d="M367 155v359h182v-480q-144 -48 -278 -48q-111 0 -162.5 57.5t-51.5 188.5v282h182v-271q0 -57 14 -76t58 -19q20 0 56 7zM96 697h152l61 -66l59 66h148l-122 -129h-172z" />
    <glyph glyph-name="uni01D5" unicode="&#x1d5;" horiz-adv-x="747" 
d="M252 858q47 0 62.5 -14t15.5 -58q0 -48 -16 -64t-62 -16t-61.5 16t-15.5 64q0 44 15.5 58t61.5 14zM490 858q46 0 61.5 -14t15.5 -58q0 -48 -15.5 -64t-61.5 -16q-47 0 -62.5 15.5t-15.5 64.5q0 45 15 58.5t63 13.5zM486 222v475h192v-517q0 -112 -85 -155
q-78 -39 -220 -39q-155 0 -229.5 44.5t-74.5 149.5v517h192v-475q0 -31 25 -44t87 -13t87.5 13.5t25.5 43.5zM526 867h-305v122h305v-122z" />
    <glyph glyph-name="uni01D6" unicode="&#x1d6;" horiz-adv-x="612" 
d="M187 706q47 0 62.5 -14t15.5 -58q0 -48 -16 -64t-62 -16t-61.5 16t-15.5 64q0 44 15.5 58t61.5 14zM425 706q46 0 61.5 -14t15.5 -58q0 -48 -15.5 -64t-61.5 -16q-47 0 -62.5 15.5t-15.5 64.5q0 45 15 58.5t63 13.5zM367 155v359h182v-480q-144 -48 -278 -48
q-111 0 -162.5 57.5t-51.5 188.5v282h182v-271q0 -57 14 -76t58 -19q20 0 56 7zM459 737h-305v122h305v-122z" />
    <glyph glyph-name="uni01D7" unicode="&#x1d7;" horiz-adv-x="747" 
d="M486 222v475h192v-517q0 -112 -85 -155q-78 -39 -220 -39q-155 0 -229.5 44.5t-74.5 149.5v517h192v-475q0 -31 25 -44t87 -13t87.5 13.5t25.5 43.5zM254 861q47 0 62.5 -14t15.5 -58q0 -48 -16 -64t-62 -16t-61.5 16t-15.5 64q0 44 15.5 58t61.5 14zM492 861
q46 0 61.5 -14t15.5 -58q0 -48 -15.5 -64t-61.5 -16q-47 0 -62.5 15.5t-15.5 64.5q0 45 15 58.5t63 13.5zM557 977l-146 -101h-140l116 101h170z" />
    <glyph glyph-name="uni01D8" unicode="&#x1d8;" horiz-adv-x="612" 
d="M187 706q47 0 62.5 -14t15.5 -58q0 -48 -16 -64t-62 -16t-61.5 16t-15.5 64q0 44 15.5 58t61.5 14zM425 706q46 0 61.5 -14t15.5 -58q0 -48 -15.5 -64t-61.5 -16q-47 0 -62.5 15.5t-15.5 64.5q0 45 15 58.5t63 13.5zM367 155v359h182v-480q-144 -48 -278 -48
q-111 0 -162.5 57.5t-51.5 188.5v282h182v-271q0 -57 14 -76t58 -19q20 0 56 7zM510 876l-156 -129h-150l124 129h182z" />
    <glyph glyph-name="uni01D9" unicode="&#x1d9;" horiz-adv-x="747" 
d="M486 222v475h192v-517q0 -112 -85 -155q-78 -39 -220 -39q-155 0 -229.5 44.5t-74.5 149.5v517h192v-475q0 -31 25 -44t87 -13t87.5 13.5t25.5 43.5zM252 881q47 0 62.5 -14t15.5 -58q0 -48 -16 -64t-62 -16t-61.5 16t-15.5 64q0 44 15.5 58t61.5 14zM490 881
q46 0 61.5 -14t15.5 -58q0 -48 -15.5 -64t-61.5 -16q-47 0 -62.5 15.5t-15.5 64.5q0 45 15 58.5t63 13.5z" />
    <glyph glyph-name="uni01DA" unicode="&#x1da;" horiz-adv-x="612" 
d="M367 155v359h182v-480q-144 -48 -278 -48q-111 0 -162.5 57.5t-51.5 188.5v282h182v-271q0 -57 14 -76t58 -19q20 0 56 7zM182 706q47 0 62.5 -14t15.5 -58q0 -48 -16 -64t-62 -16t-61.5 16t-15.5 64q0 44 15.5 58t61.5 14zM420 706q46 0 61.5 -14t15.5 -58
q0 -48 -15.5 -64t-61.5 -16q-47 0 -62.5 15.5t-15.5 64.5q0 45 15 58.5t63 13.5z" />
    <glyph glyph-name="uni01DB" unicode="&#x1db;" horiz-adv-x="747" 
d="M486 222v475h192v-517q0 -112 -85 -155q-78 -39 -220 -39q-155 0 -229.5 44.5t-74.5 149.5v517h192v-475q0 -31 25 -44t87 -13t87.5 13.5t25.5 43.5zM490 881q46 0 61.5 -14t15.5 -58q0 -48 -15.5 -64t-61.5 -16q-47 0 -62.5 15.5t-15.5 64.5q0 57 30 67h-116l-144 101
h168l111 -97q5 1 29 1zM252 881q47 0 62.5 -14t15.5 -58q0 -48 -16 -64t-62 -16t-61.5 16t-15.5 64q0 44 15.5 58t61.5 14z" />
    <glyph glyph-name="uni01DC" unicode="&#x1dc;" horiz-adv-x="612" 
d="M367 155v359h182v-480q-144 -48 -278 -48q-111 0 -162.5 57.5t-51.5 188.5v282h182v-271q0 -57 14 -76t58 -19q20 0 56 7zM182 706q47 0 62.5 -14t15.5 -58q0 -48 -16 -64t-62 -16t-61.5 16t-15.5 64q0 44 15.5 58t61.5 14zM420 706q46 0 61.5 -14t15.5 -58
q0 -48 -15.5 -64t-61.5 -16q-47 0 -62.5 15.5t-15.5 64.5q0 45 15 58.5t63 13.5zM276 876l124 -129h-150l-156 129h182z" />
    <glyph glyph-name="AEacute" unicode="&#x1fc;" horiz-adv-x="976" 
d="M310 697h645v-168h-343v-88h197v-165h-197v-108h343v-168h-534v134h-278l-82 -134h-232q79 125 231 347q123 179 250 350zM248 299h173v230h-21q-39 -56 -152 -230zM740 876l-156 -129h-150l124 129h182z" />
    <glyph glyph-name="aeacute" unicode="&#x1fd;" horiz-adv-x="858" 
d="M761 150l26 -136q-83 -28 -191 -28q-75 0 -129 26q-106 -26 -201 -26q-133 0 -179 34q-45 34 -45 136q0 101 48 134t152 33q48 0 107 -12q0 41 -18 55q-17 13 -87 13q-87 0 -163 -21l-26 143q113 28 237 28q99 0 153 -33q53 33 140 33q111 0 166 -36q89 -56 72 -294h-297
q1 -37 22 -50t72 -13q76 0 141 14zM359 131q-12 36 -12 67q-25 5 -61 5q-33 0 -44 -8t-11 -34q0 -27 9.5 -35t42.5 -8q38 0 76 13zM600 394q-36 0 -51 -13.5t-22 -50.5h142q-1 38 -15.5 51t-53.5 13zM602 697l-156 -129h-150l124 129h182z" />
    <glyph glyph-name="Oslashacute" unicode="&#x1fe;" horiz-adv-x="781" 
d="M589 680l15 17h193l-103 -116q43 -82 43 -223q0 -211 -90 -294q-84 -78 -256 -78q-119 0 -192 33l-17 -19h-193l103 117q-48 85 -48 241q0 205 89 284q45 39 106 55.5t152 16.5q126 0 198 -34zM391 537q-52 1 -78 -5t-42 -23q-8 -12 -14 -33q-9 -33 -9 -120q0 -50 1 -62
l211 239q-21 4 -69 4zM391 161q90 -3 119 31q8 11 14 35q9 36 9 129q0 33 -1 41l-205 -233q25 -3 64 -3zM570 876l-156 -129h-150l124 129h182z" />
    <glyph glyph-name="oslashacute" unicode="&#x1ff;" 
d="M440 504l9 10h156l-82 -92q29 -63 29 -162q0 -152 -62 -214q-62 -60 -195 -60q-84 0 -141 24l-9 -10h-156l81 91q-30 61 -30 169q0 151 62 210t193 59q94 0 145 -25zM295 389q-46 0 -59 -22q-13 -20 -13 -106l110 123q-13 5 -38 5zM295 126q45 0 58 21q13 23 15 102
l-108 -120q9 -3 35 -3zM464 697l-156 -129h-150l124 129h182z" />
    <glyph glyph-name="Scommaaccent" unicode="&#x218;" horiz-adv-x="621" 
d="M350 714q140 0 233 -35l-37 -162q-89 22 -198 22q-66 0 -88.5 -10t-22.5 -35q0 -28 22 -38q20 -9 107 -20q120 -15 173.5 -65.5t53.5 -149.5q0 -133 -71 -184q-70 -51 -247 -51q-140 0 -236 35l38 163q97 -23 195 -23q71 0 92 9q22 10 22 37t-24 38q-27 12 -118 22
q-112 13 -161 58t-49 139q0 133 74.5 191.5t241.5 58.5zM242 -51h184l-114 -167h-142z" />
    <glyph glyph-name="scommaaccent" unicode="&#x219;" horiz-adv-x="478" 
d="M443 500l-32 -132q-82 20 -153 20q-32 0 -43 -5t-11 -23q0 -15 13 -19q19 -6 70 -13q92 -14 128 -47q39 -34 39 -113q0 -182 -241 -182q-107 0 -182 28l33 135q72 -19 140 -19q44 0 60 5.5t16 23.5q0 15 -18 21.5t-77 12.5q-84 8 -119.5 42t-35.5 113q0 181 236 181
q99 0 177 -29zM170 -51h184l-114 -167h-142z" />
    <glyph glyph-name="circumflex" unicode="&#x2c6;" horiz-adv-x="641" 
d="M546 568h-152l-61 66l-59 -66h-148l122 129h172z" />
    <glyph glyph-name="caron" unicode="&#x2c7;" horiz-adv-x="641" 
d="M126 697h152l61 -66l59 66h148l-122 -129h-172z" />
    <glyph glyph-name="breve" unicode="&#x2d8;" horiz-adv-x="512" 
d="M89 697h116q0 -26 12 -36t42 -10q29 0 41 10t12 36h108q0 -148 -166 -148q-165 0 -165 148z" />
    <glyph glyph-name="dotaccent" unicode="&#x2d9;" horiz-adv-x="517" 
d="M263 706q47 0 62.5 -14t15.5 -58q0 -48 -16 -64t-62 -16t-61.5 16t-15.5 64q0 44 15.5 58t61.5 14z" />
    <glyph glyph-name="ring" unicode="&#x2da;" horiz-adv-x="702" 
d="M360 744q70 0 99 -22t29 -80t-28.5 -80t-99.5 -22q-72 0 -101 22t-29 80t29.5 80t100.5 22zM360 676q-26 0 -34.5 -7t-8.5 -28t8 -27.5t35 -6.5q26 0 34 6.5t8 27.5t-8 28t-34 7z" />
    <glyph glyph-name="ogonek" unicode="&#x2db;" horiz-adv-x="629" 
d="M448 12h45q-44 -27 -59 -46t-15 -46q0 -19 11.5 -27t41.5 -8q44 0 73 24l42 -77q-50 -35 -136 -35q-76 0 -107 21t-31 68q0 42 35 75.5t100 50.5z" />
    <glyph glyph-name="tilde" unicode="&#x2dc;" horiz-adv-x="703" 
d="M451 715l83 -67q-16 -42 -50.5 -68.5t-79.5 -26.5q-34 0 -79 20q-42 21 -64 21q-26 0 -44 -41l-76 75q46 79 114 79q43 0 88 -20q42 -19 62 -19q17 0 26.5 9.5t19.5 37.5z" />
    <glyph glyph-name="hungarumlaut" unicode="&#x2dd;" horiz-adv-x="469" 
d="M150 568l97 129h143l-122 -129h-118zM340 568l97 129h143l-122 -129h-118z" />
    <glyph glyph-name="gravecomb" unicode="&#x300;" horiz-adv-x="469" 
d="M266 697l124 -129h-150l-156 129h182z" />
    <glyph glyph-name="acutecomb" unicode="&#x301;" horiz-adv-x="469" 
d="M390 697l-156 -129h-150l124 129h182z" />
    <glyph glyph-name="tildecomb" unicode="&#x303;" horiz-adv-x="703" 
d="M451 715l83 -67q-16 -42 -50.5 -68.5t-79.5 -26.5q-34 0 -79 20q-42 21 -64 21q-26 0 -44 -41l-76 75q46 79 114 79q43 0 88 -20q42 -19 62 -19q17 0 26.5 9.5t19.5 37.5z" />
    <glyph glyph-name="hookabovecomb" unicode="&#x309;" horiz-adv-x="629" 
d="M339 542h-45q44 27 59 46t15 46q0 19 -11.5 27t-41.5 8q-45 0 -73 -24l-42 77q50 35 136 35q76 0 107 -21t31 -68q0 -42 -35 -75.5t-100 -50.5z" />
    <glyph glyph-name="uni031B" unicode="&#x31b;" horiz-adv-x="215" 
d="M113 413v101h121v-96q0 -28 -20 -56t-53 -43h-66q69 41 69 94h-51z" />
    <glyph glyph-name="dotbelowcomb" unicode="&#x323;" horiz-adv-x="517" 
d="M255 -50q47 0 62 -13.5t15 -57.5q0 -48 -15.5 -63.5t-61.5 -15.5q-45 0 -60 15.5t-15 63.5q0 44 15 57.5t60 13.5z" />
    <glyph glyph-name="tonos" unicode="&#x384;" horiz-adv-x="391" 
d="M153 560l-29 162h168l-40 -162h-99z" />
    <glyph glyph-name="dieresistonos" unicode="&#x385;" horiz-adv-x="594" 
d="M243 560l-15 162h140l-26 -162h-99zM129 706q47 0 62.5 -14t15.5 -58q0 -48 -16 -64t-62 -16t-61.5 16t-15.5 64q0 44 15.5 58t61.5 14zM465 706q46 0 61.5 -14t15.5 -58q0 -48 -15.5 -64t-61.5 -16q-47 0 -62.5 15.5t-15.5 64.5q0 45 15 58.5t63 13.5z" />
    <glyph glyph-name="Alphatonos" unicode="&#x386;" horiz-adv-x="696" 
d="M211 697h291q109 -371 240 -697h-211q-24 56 -50 134h-270l-36 -134h-207q36 128 111 344q71 205 132 353zM358 529h-25q-24 -66 -74 -230h167q-39 122 -68 230zM-17 560l-29 162h168l-40 -162h-99z" />
    <glyph glyph-name="anoteleia" unicode="&#x387;" horiz-adv-x="331" 
d="M164 404q69 0 91 -19q24 -18 24 -80q0 -67 -24 -88t-91 -21q-65 0 -89 21q-23 21 -23 88q0 62 23 80q22 19 89 19z" />
    <glyph glyph-name="Epsilontonos" unicode="&#x388;" horiz-adv-x="631" 
d="M76 0v697h534v-168h-343v-88h247v-165h-247v-108h343v-168h-534zM-67 560l-29 162h168l-40 -162h-99z" />
    <glyph glyph-name="Etatonos" unicode="&#x389;" horiz-adv-x="759" 
d="M493 278h-226v-278h-191v697h191v-241h226v241h190v-697h-190v278zM-67 560l-29 162h168l-40 -162h-99z" />
    <glyph glyph-name="Iotatonos" unicode="&#x38a;" horiz-adv-x="343" 
d="M76 0v697h191v-697h-191zM-67 560l-29 162h168l-40 -162h-99z" />
    <glyph glyph-name="Omicrontonos" unicode="&#x38c;" horiz-adv-x="781" 
d="M391 714q174 0 257 -72q89 -77 89 -284q0 -211 -90 -294q-84 -78 -256 -78q-173 0 -258 78q-89 83 -89 294q0 205 89 284q45 39 106 55.5t152 16.5zM533 356q0 37 -2 71q-2 59 -21 82q-16 17 -42 23t-77 5q-52 1 -78 -5t-42 -23q-8 -12 -14 -33q-9 -33 -9 -120
q0 -58 1 -77q5 -64 22 -87q13 -18 40.5 -24.5t79.5 -6.5q90 -3 119 31q8 11 14 35q9 36 9 129zM-57 560l-29 162h168l-40 -162h-99z" />
    <glyph glyph-name="Upsilontonos" unicode="&#x38e;" horiz-adv-x="669" 
d="M-167 560l-29 162h168l-6 -25h217l165 -227q111 162 148 227h237q-102 -162 -291 -430v-267h-191v266q-194 270 -293 396l-26 -102h-99z" />
    <glyph glyph-name="Omegatonos" unicode="&#x38f;" horiz-adv-x="821" 
d="M354 0h-354v176h133q-25 20 -47 86q-23 69 -23 136q0 174 84 245q86 71 263 71q176 0 261 -71q85 -70 85 -245q0 -67 -23 -136q-22 -66 -47 -86h135v-176h-358v165q56 12 72 61q17 51 17 170q0 95 -23 118t-119 23q-97 0 -120 -23t-23 -118q0 -120 16 -168q16 -49 71 -62
v-166zM-57 560l-29 162h168l-40 -162h-99z" />
    <glyph glyph-name="iotadieresistonos" unicode="&#x390;" horiz-adv-x="330" 
d="M109 560l-15 162h140l-26 -162h-99zM-5 706q47 0 62.5 -14t15.5 -58q0 -48 -16 -64t-62 -16t-61.5 16t-15.5 64q0 44 15.5 58t61.5 14zM331 706q46 0 61.5 -14t15.5 -58q0 -48 -15.5 -64t-61.5 -16q-47 0 -62.5 15.5t-15.5 64.5q0 45 15 58.5t63 13.5zM63 514h183v-311
q0 -20 16.5 -29t57.5 -9l-28 -179q-74 0 -112.5 7t-66.5 28t-39 59t-11 107v327z" />
    <glyph glyph-name="Alpha" unicode="&#x391;" horiz-adv-x="696" 
d="M211 697h291q109 -371 240 -697h-211q-24 56 -50 134h-270l-36 -134h-207q36 128 111 344q71 205 132 353zM358 529h-25q-24 -66 -74 -230h167q-39 122 -68 230z" />
    <glyph glyph-name="Beta" unicode="&#x392;" horiz-adv-x="735" 
d="M267 281v-118h168q36 0 36 57q0 61 -40 61h-164zM432 534h-165v-98h165q16 0 22.5 9.5t6.5 38.5q0 50 -29 50zM515 364q95 -5 129 -46t34 -133q0 -99 -46.5 -142t-140.5 -43h-415v697h415q101 0 138 -39q38 -38 38 -129q0 -80 -32 -120q-31 -37 -120 -45z" />
    <glyph glyph-name="Gamma" unicode="&#x393;" horiz-adv-x="556" 
d="M267 529v-529h-191v697h509v-168h-318z" />
    <glyph glyph-name="increment" unicode="&#x394;" horiz-adv-x="658" 
d="M690 0h-733q37 131 111 338q79 222 136 359h243q49 -167 119 -370q73 -207 124 -327zM312 484q-31 -84 -102 -316h205q-72 202 -103 316z" />
    <glyph glyph-name="increment" unicode="&#x2206;" horiz-adv-x="658" 
d="M690 0h-733q37 131 111 338q79 222 136 359h243q49 -167 119 -370q73 -207 124 -327zM312 484q-31 -84 -102 -316h205q-72 202 -103 316z" />
    <glyph glyph-name="Epsilon" unicode="&#x395;" horiz-adv-x="631" 
d="M76 0v697h534v-168h-343v-88h247v-165h-247v-108h343v-168h-534z" />
    <glyph glyph-name="Zeta" unicode="&#x396;" horiz-adv-x="634" 
d="M628 0h-615v36q188 289 305 493h-287v168h593v-34q-44 -82 -148 -252q-111 -179 -157 -243h309v-168z" />
    <glyph glyph-name="Eta" unicode="&#x397;" horiz-adv-x="759" 
d="M493 278h-226v-278h-191v697h191v-241h226v241h190v-697h-190v278z" />
    <glyph glyph-name="Theta" unicode="&#x398;" horiz-adv-x="781" 
d="M391 714q174 0 257 -72q89 -77 89 -284q0 -211 -90 -294q-84 -78 -256 -78q-173 0 -258 78q-89 83 -89 294q0 205 89 284q45 39 106 55.5t152 16.5zM533 356q0 37 -2 71q-2 59 -21 82q-16 17 -42 23t-77 5q-52 1 -78 -5t-42 -23q-8 -12 -14 -33q-9 -33 -9 -120
q0 -58 1 -77q5 -64 22 -87q13 -18 40.5 -24.5t79.5 -6.5q90 -3 119 31q8 11 14 35q9 36 9 129zM507 300h-234v122h234v-122z" />
    <glyph glyph-name="Iota" unicode="&#x399;" horiz-adv-x="343" 
d="M76 0v697h191v-697h-191z" />
    <glyph glyph-name="Kappa" unicode="&#x39a;" horiz-adv-x="707" 
d="M76 697h191v-697h-191v697zM726 0h-227q-79 162 -141 257q-63 97 -90 111q30 29 88 116q62 92 128 213h225q-145 -252 -209 -320q28 -25 89 -122q65 -104 137 -255z" />
    <glyph glyph-name="Lambda" unicode="&#x39b;" horiz-adv-x="658" 
d="M699 0h-210q-36 86 -90 239q-54 155 -78 245q-73 -199 -149 -484h-206q37 131 111 338q79 222 136 359h243q49 -167 119 -370q73 -207 124 -327z" />
    <glyph glyph-name="Mu" unicode="&#x39c;" horiz-adv-x="963" 
d="M491 328q80 213 155 369h241v-697h-185v422q-73 -163 -150 -370h-153q-94 270 -139 370v-422h-184v697h252q73 -145 163 -369z" />
    <glyph glyph-name="Nu" unicode="&#x39d;" horiz-adv-x="818" 
d="M553 697h189v-697h-237q-104 193 -243 427v-427h-186v697h247q118 -200 230 -415v415z" />
    <glyph glyph-name="Xi" unicode="&#x39e;" horiz-adv-x="591" 
d="M20 0v168h551v-168h-551zM571 697v-168h-551v168h551zM482 276h-374v165h374v-165z" />
    <glyph glyph-name="Omicron" unicode="&#x39f;" horiz-adv-x="781" 
d="M391 714q174 0 257 -72q89 -77 89 -284q0 -211 -90 -294q-84 -78 -256 -78q-173 0 -258 78q-89 83 -89 294q0 205 89 284q45 39 106 55.5t152 16.5zM533 356q0 37 -2 71q-2 59 -21 82q-16 17 -42 23t-77 5q-52 1 -78 -5t-42 -23q-8 -12 -14 -33q-9 -33 -9 -120
q0 -58 1 -77q5 -64 22 -87q13 -18 40.5 -24.5t79.5 -6.5q90 -3 119 31q8 11 14 35q9 36 9 129z" />
    <glyph glyph-name="Pi" unicode="&#x3a0;" horiz-adv-x="759" 
d="M493 529h-226v-529h-191v697h607v-697h-190v529z" />
    <glyph glyph-name="Rho" unicode="&#x3a1;" horiz-adv-x="696" 
d="M267 534v-174h150q54 0 54 86q0 88 -53 88h-151zM267 205v-205h-191v697h415q189 0 189 -251q0 -103 -50 -173q-50 -68 -139 -68h-224z" />
    <glyph glyph-name="Sigma" unicode="&#x3a3;" horiz-adv-x="636" 
d="M618 0h-599v27q81 122 193 323q-107 176 -182 319v28h588v-168h-287q22 -40 107 -183q-69 -111 -115 -178h295v-168z" />
    <glyph glyph-name="Tau" unicode="&#x3a4;" horiz-adv-x="650" 
d="M421 529v-529h-192v529h-229v168h650v-168h-229z" />
    <glyph glyph-name="Upsilon" unicode="&#x3a5;" horiz-adv-x="669" 
d="M-71 697h254l165 -227q111 162 148 227h237q-102 -162 -291 -430v-267h-191v266q-229 319 -322 431z" />
    <glyph glyph-name="Phi" unicode="&#x3a6;" horiz-adv-x="858" 
d="M328 624v73h191v-73q176 -11 241 -71q66 -61 66 -203t-66 -203q-65 -60 -241 -71v-76h-191v75q-173 11 -234 70q-62 62 -62 205q0 144 62 204q61 59 234 70zM519 469v-239q70 1 90 25q19 22 19 95q0 72 -19 94q-20 24 -90 25zM226 350q0 -70 19 -93q20 -24 83 -27v238
q-64 -1 -84 -25q-18 -23 -18 -93z" />
    <glyph glyph-name="Chi" unicode="&#x3a7;" horiz-adv-x="701" 
d="M-21 697h252l127 -174q81 118 109 174h240q-79 -123 -229 -343q175 -249 241 -354h-241q-57 91 -121 183q-91 -125 -137 -183h-240q82 104 257 352q-181 250 -258 345z" />
    <glyph glyph-name="Psi" unicode="&#x3a8;" horiz-adv-x="854" 
d="M28 697h198q0 -191 19 -257q19 -67 83 -70v327h191v-327q69 1 89 68q20 68 20 259h198q0 -265 -66 -373t-241 -118v-206h-191v205q-173 11 -234 116q-61 106 -66 376z" />
    <glyph glyph-name="Omega" unicode="&#x3a9;" horiz-adv-x="821" 
d="M354 0h-354v176h133q-25 20 -47 86q-23 69 -23 136q0 174 84 245q86 71 263 71q176 0 261 -71q85 -70 85 -245q0 -67 -23 -136q-22 -66 -47 -86h135v-176h-358v165q56 12 72 61q17 51 17 170q0 95 -23 118t-119 23q-97 0 -120 -23t-23 -118q0 -120 16 -168q16 -49 71 -62
v-166z" />
    <glyph glyph-name="Omega" unicode="&#x2126;" horiz-adv-x="821" 
d="M354 0h-354v176h133q-25 20 -47 86q-23 69 -23 136q0 174 84 245q86 71 263 71q176 0 261 -71q85 -70 85 -245q0 -67 -23 -136q-22 -66 -47 -86h135v-176h-358v165q56 12 72 61q17 51 17 170q0 95 -23 118t-119 23q-97 0 -120 -23t-23 -118q0 -120 16 -168q16 -49 71 -62
v-166z" />
    <glyph glyph-name="Iotadieresis" unicode="&#x3aa;" horiz-adv-x="343" 
d="M76 0v697h191v-697h-191zM53 881q47 0 62.5 -14t15.5 -58q0 -48 -16 -64t-62 -16t-61.5 16t-15.5 64q0 44 15.5 58t61.5 14zM291 881q46 0 61.5 -14t15.5 -58q0 -48 -15.5 -64t-61.5 -16q-47 0 -62.5 15.5t-15.5 64.5q0 45 15 58.5t63 13.5z" />
    <glyph glyph-name="Upsilondieresis" unicode="&#x3ab;" horiz-adv-x="669" 
d="M-71 697h254l165 -227q111 162 148 227h237q-102 -162 -291 -430v-267h-191v266q-229 319 -322 431zM228 881q47 0 62.5 -14t15.5 -58q0 -48 -16 -64t-62 -16t-61.5 16t-15.5 64q0 44 15.5 58t61.5 14zM466 881q46 0 61.5 -14t15.5 -58q0 -48 -15.5 -64t-61.5 -16
q-47 0 -62.5 15.5t-15.5 64.5q0 45 15 58.5t63 13.5z" />
    <glyph glyph-name="alphatonos" unicode="&#x3ac;" horiz-adv-x="690" 
d="M490 514h168q-39 -149 -104 -293q15 -34 39 -45t82 -11l-28 -179q-155 0 -192 87q-25 -47 -66 -67t-110 -20q-115 0 -177 59.5t-62 214.5q0 159 69 216q60 52 170 52q87 0 131 -19.5t62 -70.5q17 39 18 76zM292 126q29 0 45 19q15 18 47 83q-22 97 -40 130q-16 31 -52 31
q-46 0 -58 -23q-11 -24 -11 -109q0 -83 11 -108q12 -23 58 -23zM263 560l-29 162h168l-40 -162h-99z" />
    <glyph glyph-name="epsilontonos" unicode="&#x3ad;" horiz-adv-x="533" 
d="M299 529q103 0 209 -20l-33 -155q-88 24 -172 24q-41 0 -53 -5.5t-12 -22.5q0 -14 11 -18.5t45 -4.5h81v-129h-81q-38 0 -51.5 -5.5t-13.5 -22.5q0 -19 14.5 -25.5t60.5 -6.5q95 0 173 28l33 -162q-112 -18 -211 -18q-153 0 -209 30q-56 32 -56 118q0 67 30 98.5
t101 35.5q-68 5 -94 32.5t-26 90.5q0 83 50 110q50 28 204 28zM233 560l-29 162h168l-40 -162h-99z" />
    <glyph glyph-name="etatonos" unicode="&#x3ae;" horiz-adv-x="638" 
d="M253 455q74 74 163 74q76 0 121 -66q45 -65 45 -168v-487h-183v476q0 66 -51 66q-41 0 -75 -19v-331h-184v306q0 42 -14.5 56.5t-59.5 14.5l15 152q117 0 162 -14t61 -60zM273 560l-29 162h168l-40 -162h-99z" />
    <glyph glyph-name="iotatonos" unicode="&#x3af;" horiz-adv-x="330" 
d="M63 514h183v-311q0 -20 16.5 -29t57.5 -9l-28 -179q-74 0 -112.5 7t-66.5 28t-39 59t-11 107v327zM103 560l-29 162h168l-40 -162h-99z" />
    <glyph glyph-name="upsilondieresistonos" unicode="&#x3b0;" horiz-adv-x="639" 
d="M265 560l-15 162h140l-26 -162h-99zM151 706q47 0 62.5 -14t15.5 -58q0 -48 -16 -64t-62 -16t-61.5 16t-15.5 64q0 44 15.5 58t61.5 14zM487 706q46 0 61.5 -14t15.5 -58q0 -48 -15.5 -64t-61.5 -16q-47 0 -62.5 15.5t-15.5 64.5q0 45 15 58.5t63 13.5zM15 350l28 179
q131 0 177 -25q46 -24 46 -94v-167q0 -58 11.5 -77t49.5 -19q37 0 52 20.5t15 72.5v274h182v-285q0 -132 -59 -188q-58 -55 -190 -55q-139 0 -192 53q-51 53 -51 192v81q0 21 -14.5 29.5t-54.5 8.5z" />
    <glyph glyph-name="alpha" unicode="&#x3b1;" horiz-adv-x="690" 
d="M490 514h168q-39 -149 -104 -293q15 -34 39 -45t82 -11l-28 -179q-155 0 -192 87q-25 -47 -66 -67t-110 -20q-115 0 -177 59.5t-62 214.5q0 159 69 216q60 52 170 52q87 0 131 -19.5t62 -70.5q17 39 18 76zM292 126q29 0 45 19q15 18 47 83q-22 97 -40 130q-16 31 -52 31
q-46 0 -58 -23q-11 -24 -11 -109q0 -83 11 -108q12 -23 58 -23z" />
    <glyph glyph-name="beta" unicode="&#x3b2;" horiz-adv-x="682" 
d="M332 714q166 0 225 -37q60 -37 60 -141q0 -73 -31.5 -109t-109.5 -43q91 -4 127.5 -49t36.5 -140q0 -111 -66 -161q-64 -48 -221 -48q-50 0 -107 6v-184h-183v710q0 111 64 153q64 43 205 43zM246 483v-335q39 -7 118 -7q47 0 62 17.5t15 70.5q0 41 -16 58.5t-59 17.5
h-54v146h49q36 0 50 12t14 42q0 29 -19.5 39t-74.5 10q-47 0 -66 -17.5t-19 -53.5z" />
    <glyph glyph-name="gamma" unicode="&#x3b3;" horiz-adv-x="517" 
d="M354 514h180q-76 -274 -201 -564q15 -67 17 -142h-220q6 59 34 143q-54 198 -184 563h184q50 -140 97 -326q60 182 93 326z" />
    <glyph glyph-name="delta" unicode="&#x3b4;" horiz-adv-x="612" 
d="M40 213q0 143 96 198q-78 33 -78 129q0 92 57.5 133t180.5 41q77 0 150 -10q76 -9 114 -21l-42 -159q-108 41 -220 41q-30 0 -40.5 -5.5t-10.5 -19.5q0 -10 12.5 -16t48.5 -15q151 -36 207 -91q57 -56 57 -181q0 -141 -66 -196q-64 -55 -201 -55t-201 48t-64 179z
M295 346q-37 -16 -54.5 -43.5t-17.5 -73.5q0 -64 17 -84q16 -19 65 -19q50 0 66 19q17 20 17 84q0 55 -20 80q-19 24 -73 37z" />
    <glyph glyph-name="epsilon" unicode="&#x3b5;" horiz-adv-x="533" 
d="M299 529q103 0 209 -20l-33 -155q-88 24 -172 24q-41 0 -53 -5.5t-12 -22.5q0 -14 11 -18.5t45 -4.5h81v-129h-81q-38 0 -51.5 -5.5t-13.5 -22.5q0 -19 14.5 -25.5t60.5 -6.5q95 0 173 28l33 -162q-112 -18 -211 -18q-153 0 -209 30q-56 32 -56 118q0 67 30 98.5
t101 35.5q-68 5 -94 32.5t-26 90.5q0 83 50 110q50 28 204 28z" />
    <glyph glyph-name="zeta" unicode="&#x3b6;" horiz-adv-x="587" 
d="M324 528h-279v169h542v-151q-121 -87 -185 -137q-58 -44 -96 -85q-34 -37 -40 -57q-6 -19 -6 -54q0 -38 27 -52.5t95 -17.5q79 -4 117 -33t38 -95q0 -109 -69 -207h-198q58 92 58 137q0 36 -22 46q-20 10 -99 13q-77 3 -114 39q-36 36 -36 141q0 74 20 121
q22 44 71.5 87.5t175.5 135.5z" />
    <glyph glyph-name="eta" unicode="&#x3b7;" horiz-adv-x="638" 
d="M253 455q74 74 163 74q76 0 121 -66q45 -65 45 -168v-487h-183v476q0 66 -51 66q-41 0 -75 -19v-331h-184v306q0 42 -14.5 56.5t-59.5 14.5l15 152q117 0 162 -14t61 -60z" />
    <glyph glyph-name="theta" unicode="&#x3b8;" horiz-adv-x="630" 
d="M592 358q0 -207 -68 -290q-67 -82 -209 -82q-143 0 -210 82t-67 290q0 138 33 217q32 78 88.5 108.5t155.5 30.5q95 0 153 -30q124 -63 124 -326zM402 300h-173q1 -89 17 -114q17 -23 70 -23q54 0 69 23t17 114zM229 422h173q-1 77 -18 97q-15 20 -68 20q-52 0 -69 -20
q-16 -19 -18 -97z" />
    <glyph glyph-name="iota" unicode="&#x3b9;" horiz-adv-x="330" 
d="M63 514h183v-311q0 -20 16.5 -29t57.5 -9l-28 -179q-74 0 -112.5 7t-66.5 28t-39 59t-11 107v327z" />
    <glyph glyph-name="kappa" unicode="&#x3ba;" horiz-adv-x="625" 
d="M63 514h183v-209q84 84 157 209h209q-58 -100 -168 -222q32 -32 88 -113q51 -74 103 -179h-209q-54 116 -96 178q-43 -38 -84 -65v-113h-183v514z" />
    <glyph glyph-name="lambda" unicode="&#x3bb;" horiz-adv-x="520" 
d="M160 500q-16 40 -34 51q-17 11 -61 11l16 152q139 0 193 -20q53 -20 73 -91q103 -364 193 -603h-193q-53 143 -90 316q-72 -180 -100 -316h-178q60 212 181 500z" />
    <glyph glyph-name="nu" unicode="&#x3bd;" horiz-adv-x="517" 
d="M-20 494l184 40q67 -183 97 -346q60 182 93 326h180q-79 -271 -177 -514h-214q-73 266 -163 494z" />
    <glyph glyph-name="xi" unicode="&#x3be;" horiz-adv-x="597" 
d="M382 143q78 -2 116.5 -32t38.5 -96q0 -109 -69 -207h-198q58 92 58 137q0 36 -22 46q-20 10 -99 13t-115 27q-35 24 -35 100q0 56 39 93.5t122 65.5q-76 0 -104 15q-27 15 -27 63q0 43 26 72q13 15 40 29q36 19 53 26q26 12 78 33h-239v169h542v-151q-115 -37 -178 -65
q-61 -25 -78 -39q-15 -12 -15 -24q0 -13 5 -18t26 -9q31 -5 168 -5v-111q-214 -33 -242 -59q-13 -12 -13 -34t21 -29q19 -7 101 -10z" />
    <glyph glyph-name="omicron" unicode="&#x3bf;" 
d="M295 -14q-133 0 -194 60q-61 61 -61 214q0 151 62 210t193 59q133 0 195 -59t62 -210q0 -152 -62 -214q-62 -60 -195 -60zM295 389q-45 0 -59 -23q-13 -22 -13 -109q0 -85 14 -108t58 -23q45 0 59 23t14 108q0 86 -14 109t-59 23z" />
    <glyph glyph-name="pi" unicode="&#x3c0;" horiz-adv-x="673" 
d="M394 187v160h-111v-347h-183v347h-80v167h633v-167h-76v-144q0 -22 11 -30t43 -8l-28 -179q-130 0 -170 43q-23 24 -31 59.5t-8 98.5z" />
    <glyph glyph-name="rho" unicode="&#x3c1;" horiz-adv-x="604" 
d="M246 253v-92q0 -11 17 -19t43 -8q43 0 59 25.5t16 92.5q0 79 -16 102q-17 24 -61 24q-34 0 -46 -24t-12 -101zM246 -192h-183v450q0 148 65 210q64 61 196 61q128 0 184 -60q55 -58 55 -213q0 -270 -213 -270q-45 0 -104 17v-195z" />
    <glyph glyph-name="sigma" unicode="&#x3c3;" horiz-adv-x="672" 
d="M295 -14q-133 0 -194 60q-61 61 -61 214q0 151 62 210t193 59q1 0 14 -1t44.5 -3t66.5 -4q113 -7 242 -7v-167h-143q33 -59 33 -123q0 -127 -62 -182.5t-195 -55.5zM295 389q-45 0 -59 -23q-13 -22 -13 -109q0 -85 14 -108t58 -23q45 0 59 23t14 108q0 86 -14 109t-59 23
z" />
    <glyph glyph-name="tau" unicode="&#x3c4;" horiz-adv-x="521" 
d="M164 187v160h-156v167h513v-167h-174v-144q0 -20 16.5 -29t57.5 -9l-28 -179q-74 0 -112.5 7t-66.5 28t-39 59t-11 107z" />
    <glyph glyph-name="upsilon" unicode="&#x3c5;" horiz-adv-x="639" 
d="M15 350l28 179q131 0 177 -25q46 -24 46 -94v-167q0 -58 11.5 -77t49.5 -19q37 0 52 20.5t15 72.5v274h182v-285q0 -132 -59 -188q-58 -55 -190 -55q-139 0 -192 53q-51 53 -51 192v81q0 21 -14.5 29.5t-54.5 8.5z" />
    <glyph glyph-name="phi" unicode="&#x3c6;" horiz-adv-x="834" 
d="M508 -11v-181h-183v181q-153 11 -219 72t-66 199q0 136 66 195q67 61 219 71v196h183v-196q152 -10 219 -71q67 -58 67 -195q0 -138 -67 -199q-66 -61 -219 -72zM223 257q0 -68 21 -95t81 -33v257q-60 -6 -81 -33q-21 -25 -21 -96zM610 257q0 69 -21 96t-81 33v-257
q60 7 81 34t21 94z" />
    <glyph glyph-name="chi" unicode="&#x3c7;" horiz-adv-x="541" 
d="M378 166q31 -81 85 -165q16 -25 72 -25l-28 -179q-84 0 -120 14q-35 14 -57 55q-32 58 -53 105l-90 -163h-197q49 80 193 352q-34 81 -88 166q-15 24 -72 24l28 179q87 0 120 -13q35 -14 57 -55q32 -58 53 -105q45 92 74 158h196q-43 -96 -173 -348z" />
    <glyph glyph-name="psi" unicode="&#x3c8;" horiz-adv-x="854" 
d="M40 260q0 78 9 158q9 81 21 112l182 -35q-29 -72 -29 -228q0 -62 24 -88.5t88 -33.5v577h183v-576q63 7 87.5 33.5t24.5 87.5q0 156 -29 228l182 35q12 -31 21 -113q10 -76 10 -157q0 -137 -70 -198q-72 -63 -226 -73v-181h-183v181q-155 10 -226 72q-69 61 -69 199z" />
    <glyph glyph-name="omega" unicode="&#x3c9;" horiz-adv-x="856" 
d="M348 417h160v-161q0 -51 11.5 -69.5t45.5 -18.5q39 0 53 17t14 72q0 166 -29 238l182 35q12 -31 21 -113q10 -76 10 -157q0 -139 -51 -206.5t-161 -67.5q-89 0 -127 28q-38 29 -49 103q-11 -74 -50 -103q-37 -28 -126 -28q-110 0 -161 67.5t-51 206.5q0 78 9 157
q11 84 22 113l182 -35q-29 -72 -29 -238q0 -55 14 -72t53 -17q34 0 45.5 18.5t11.5 69.5v161z" />
    <glyph glyph-name="iotadieresis" unicode="&#x3ca;" horiz-adv-x="330" 
d="M36 706q47 0 62.5 -14t15.5 -58q0 -48 -16 -64t-62 -16t-61.5 16t-15.5 64q0 44 15.5 58t61.5 14zM274 706q46 0 61.5 -14t15.5 -58q0 -48 -15.5 -64t-61.5 -16q-47 0 -62.5 15.5t-15.5 64.5q0 45 15 58.5t63 13.5zM63 514h183v-311q0 -20 16.5 -29t57.5 -9l-28 -179
q-74 0 -112.5 7t-66.5 28t-39 59t-11 107v327z" />
    <glyph glyph-name="upsilondieresis" unicode="&#x3cb;" horiz-adv-x="639" 
d="M15 350l28 179q131 0 177 -25q46 -24 46 -94v-167q0 -58 11.5 -77t49.5 -19q37 0 52 20.5t15 72.5v274h182v-285q0 -132 -59 -188q-58 -55 -190 -55q-139 0 -192 53q-51 53 -51 192v81q0 21 -14.5 29.5t-54.5 8.5zM200 706q47 0 62.5 -14t15.5 -58q0 -48 -16 -64t-62 -16
t-61.5 16t-15.5 64q0 44 15.5 58t61.5 14zM438 706q46 0 61.5 -14t15.5 -58q0 -48 -15.5 -64t-61.5 -16q-47 0 -62.5 15.5t-15.5 64.5q0 45 15 58.5t63 13.5z" />
    <glyph glyph-name="omicrontonos" unicode="&#x3cc;" 
d="M295 -14q-133 0 -194 60q-61 61 -61 214q0 151 62 210t193 59q133 0 195 -59t62 -210q0 -152 -62 -214q-62 -60 -195 -60zM295 389q-45 0 -59 -23q-13 -22 -13 -109q0 -85 14 -108t58 -23q45 0 59 23t14 108q0 86 -14 109t-59 23zM241 560l-29 162h168l-40 -162h-99z" />
    <glyph glyph-name="upsilontonos" unicode="&#x3cd;" horiz-adv-x="639" 
d="M15 350l28 179q131 0 177 -25q46 -24 46 -94v-167q0 -58 11.5 -77t49.5 -19q37 0 52 20.5t15 72.5v274h182v-285q0 -132 -59 -188q-58 -55 -190 -55q-139 0 -192 53q-51 53 -51 192v81q0 21 -14.5 29.5t-54.5 8.5zM272 560l-29 162h168l-40 -162h-99z" />
    <glyph glyph-name="omegatonos" unicode="&#x3ce;" horiz-adv-x="856" 
d="M348 417h160v-161q0 -51 11.5 -69.5t45.5 -18.5q39 0 53 17t14 72q0 166 -29 238l182 35q12 -31 21 -113q10 -76 10 -157q0 -139 -51 -206.5t-161 -67.5q-89 0 -127 28q-38 29 -49 103q-11 -74 -50 -103q-37 -28 -126 -28q-110 0 -161 67.5t-51 206.5q0 78 9 157
q11 84 22 113l182 -35q-29 -72 -29 -238q0 -55 14 -72t53 -17q34 0 45.5 18.5t11.5 69.5v161zM373 560l-29 162h168l-40 -162h-99z" />
    <glyph glyph-name="afii10023" unicode="&#x401;" horiz-adv-x="631" 
d="M219 881q47 0 62.5 -14t15.5 -58q0 -48 -16 -64t-62 -16t-61.5 16t-15.5 64q0 44 15.5 58t61.5 14zM457 881q46 0 61.5 -14t15.5 -58q0 -48 -15.5 -64t-61.5 -16q-47 0 -62.5 15.5t-15.5 64.5q0 45 15 58.5t63 13.5zM76 0v697h534v-168h-343v-88h247v-165h-247v-108h343
v-168h-534z" />
    <glyph glyph-name="afii10051" unicode="&#x402;" horiz-adv-x="781" 
d="M650 697v-168h-229v-109q78 29 133 29q47 0 78 -10.5t57.5 -39t39 -85.5t12.5 -145q0 -282 -136 -364l-142 118q45 33 64 82q21 51 21 156q0 82 -16 104q-15 23 -56 23q-52 0 -55 -17v-271h-192v529h-229v168h650z" />
    <glyph glyph-name="afii10052" unicode="&#x403;" horiz-adv-x="556" 
d="M267 529v-529h-191v697h509v-168h-318zM526 876l-156 -129h-150l124 129h182z" />
    <glyph glyph-name="afii10053" unicode="&#x404;" horiz-adv-x="624" 
d="M255 441h249v-165h-251q10 -69 51 -92q40 -21 129 -21q82 0 136 17l34 -172q-89 -22 -215 -22q-172 0 -256 78q-88 82 -88 291t88 287q44 39 104.5 55.5t151.5 16.5q123 0 215 -24l-34 -168q-54 17 -136 17q-87 0 -127 -18t-51 -80z" />
    <glyph glyph-name="afii10054" unicode="&#x405;" horiz-adv-x="621" 
d="M350 714q140 0 233 -35l-37 -162q-89 22 -198 22q-66 0 -88.5 -10t-22.5 -35q0 -28 22 -38q20 -9 107 -20q120 -15 173.5 -65.5t53.5 -149.5q0 -133 -71 -184q-70 -51 -247 -51q-140 0 -236 35l38 163q97 -23 195 -23q71 0 92 9q22 10 22 37t-24 38q-27 12 -118 22
q-112 13 -161 58t-49 139q0 133 74.5 191.5t241.5 58.5z" />
    <glyph glyph-name="afii10055" unicode="&#x406;" horiz-adv-x="343" 
d="M76 0v697h191v-697h-191z" />
    <glyph glyph-name="afii10056" unicode="&#x407;" horiz-adv-x="343" 
d="M52 881q47 0 62.5 -14t15.5 -58q0 -48 -16 -64t-62 -16t-61.5 16t-15.5 64q0 44 15.5 58t61.5 14zM290 881q46 0 61.5 -14t15.5 -58q0 -48 -15.5 -64t-61.5 -16q-47 0 -62.5 15.5t-15.5 64.5q0 45 15 58.5t63 13.5zM76 0v697h191v-697h-191z" />
    <glyph glyph-name="afii10057" unicode="&#x408;" horiz-adv-x="483" 
d="M220 697h192l1 -505q0 -57 -20 -99t-54.5 -64.5t-73.5 -32.5t-85 -10q-104 0 -180 25l28 169q57 -17 126 -17q66 0 66 64v470z" />
    <glyph glyph-name="afii10058" unicode="&#x409;" horiz-adv-x="1114" 
d="M818 337h-150v-174h151q53 0 53 88q0 86 -54 86zM668 492h224q90 0 139 -69q50 -68 50 -172q0 -251 -189 -251h-415v529h-120q-25 -277 -99.5 -410t-204.5 -133l-34 182q73 0 111.5 130t50.5 399h487v-205z" />
    <glyph glyph-name="afii10059" unicode="&#x40a;" horiz-adv-x="1130" 
d="M493 323h-226v-323h-191v697h191v-212h226v212h191v-213h224q89 0 139 -68t50 -171q0 -122 -45.5 -183.5t-143.5 -61.5h-415v323zM834 323h-150v-160h151q28 0 40.5 18t12.5 64q0 45 -13 61.5t-41 16.5z" />
    <glyph glyph-name="afii10060" unicode="&#x40b;" horiz-adv-x="787" 
d="M731 222v-222h-183v214q0 74 -72 74q-52 0 -55 -17v-271h-192v529h-229v168h650v-168h-229v-109q78 29 133 29q82 0 125 -40q52 -46 52 -187z" />
    <glyph glyph-name="afii10061" unicode="&#x40c;" horiz-adv-x="711" 
d="M729 0h-227q-39 126 -74 189q-36 67 -72 95.5t-89 34.5v-319h-191v697h191v-332q115 144 217 332h225q-143 -249 -201 -312q31 -13 53 -32.5t49 -59.5q56 -76 119 -293zM590 876l-156 -129h-150l124 129h182z" />
    <glyph glyph-name="afii10062" unicode="&#x40e;" horiz-adv-x="669" 
d="M346 395q72 150 125 302h224q-62 -158 -160 -356q-96 -194 -183 -341h-245q61 82 119 184q-46 113 -118 261q-70 146 -133 252h232q67 -119 139 -302zM176 871h116q0 -26 12 -36t42 -10q29 0 41 10t12 36h108q0 -148 -166 -148q-165 0 -165 148z" />
    <glyph glyph-name="afii10145" unicode="&#x40f;" horiz-adv-x="759" 
d="M683 697v-697h-220l-21 -192h-123l-21 192h-222v697h191v-519h226v519h190z" />
    <glyph glyph-name="afii10017" unicode="&#x410;" horiz-adv-x="696" 
d="M211 697h291q109 -371 240 -697h-211q-24 56 -50 134h-270l-36 -134h-207q36 128 111 344q71 205 132 353zM358 529h-25q-24 -66 -74 -230h167q-39 122 -68 230z" />
    <glyph glyph-name="afii10018" unicode="&#x411;" horiz-adv-x="734" 
d="M267 281v-118h168q36 0 36 57q0 61 -40 61h-164zM76 697h559v-168h-368v-93h224q89 0 138 -55t49 -163q0 -124 -47 -171t-140 -47h-415v697z" />
    <glyph glyph-name="afii10019" unicode="&#x412;" horiz-adv-x="735" 
d="M267 281v-118h168q36 0 36 57q0 61 -40 61h-164zM432 534h-165v-98h165q16 0 22.5 9.5t6.5 38.5q0 50 -29 50zM515 364q95 -5 129 -46t34 -133q0 -99 -46.5 -142t-140.5 -43h-415v697h415q101 0 138 -39q38 -38 38 -129q0 -80 -32 -120q-31 -37 -120 -45z" />
    <glyph glyph-name="afii10020" unicode="&#x413;" horiz-adv-x="556" 
d="M267 529v-529h-191v697h509v-168h-318z" />
    <glyph glyph-name="afii10021" unicode="&#x414;" horiz-adv-x="842" 
d="M215 697h506v-519h121l-23 -332h-170v154h-446v-154h-171l-23 332h116q79 279 90 519zM328 178h203v351h-140q-21 -197 -63 -351z" />
    <glyph glyph-name="afii10022" unicode="&#x415;" horiz-adv-x="631" 
d="M76 0v697h534v-168h-343v-88h247v-165h-247v-108h343v-168h-534z" />
    <glyph glyph-name="afii10024" unicode="&#x416;" horiz-adv-x="1059" 
d="M209 0h-227q42 146 80 224q40 84 69 114t67 47q-44 48 -196 312h225q107 -197 207 -331v331h191v-331q100 134 207 331h225q-152 -264 -196 -312q38 -17 67 -47q75 -77 149 -338h-227q-56 180 -104 244q-48 66 -121 75v-319h-191v319q-74 -9 -123 -75q-48 -66 -102 -244z
" />
    <glyph glyph-name="afii10025" unicode="&#x417;" horiz-adv-x="648" 
d="M307 276h-128v165h123q41 0 55.5 9t14.5 38q0 30 -26 41q-24 10 -104 10q-105 0 -168 -17l-34 168q111 24 253 24q159 0 221 -41q63 -41 63 -144q0 -82 -31 -120q-32 -37 -120 -45q93 -4 129 -45t36 -134q0 -109 -70 -154q-69 -45 -228 -45q-145 0 -255 22l34 172
q24 -8 79 -12q62 -5 91 -5q82 0 112 11q28 10 28 45q0 33 -17.5 45t-57.5 12z" />
    <glyph glyph-name="afii10026" unicode="&#x418;" horiz-adv-x="818" 
d="M509 697h233v-697h-188v415q-112 -215 -230 -415h-248v697h187v-430q155 262 246 430z" />
    <glyph glyph-name="afii10027" unicode="&#x419;" horiz-adv-x="818" 
d="M509 697h233v-697h-188v415q-112 -215 -230 -415h-248v697h187v-430q155 262 246 430zM239 871h116q0 -26 12 -36t42 -10q29 0 41 10t12 36h108q0 -148 -166 -148q-165 0 -165 148z" />
    <glyph glyph-name="afii10028" unicode="&#x41a;" horiz-adv-x="711" 
d="M729 0h-227q-39 126 -74 189q-36 67 -72 95.5t-89 34.5v-319h-191v697h191v-332q115 144 217 332h225q-143 -249 -201 -312q31 -13 53 -32.5t49 -59.5q56 -76 119 -293z" />
    <glyph glyph-name="afii10029" unicode="&#x41b;" horiz-adv-x="743" 
d="M477 0v529h-120q-25 -277 -99.5 -410t-204.5 -133l-34 182q73 0 111.5 130t50.5 399h486v-697h-190z" />
    <glyph glyph-name="afii10030" unicode="&#x41c;" horiz-adv-x="963" 
d="M491 328q80 213 155 369h241v-697h-185v422q-73 -163 -150 -370h-153q-94 270 -139 370v-422h-184v697h252q73 -145 163 -369z" />
    <glyph glyph-name="afii10031" unicode="&#x41d;" horiz-adv-x="759" 
d="M493 278h-226v-278h-191v697h191v-241h226v241h190v-697h-190v278z" />
    <glyph glyph-name="afii10032" unicode="&#x41e;" horiz-adv-x="781" 
d="M391 714q174 0 257 -72q89 -77 89 -284q0 -211 -90 -294q-84 -78 -256 -78q-173 0 -258 78q-89 83 -89 294q0 205 89 284q45 39 106 55.5t152 16.5zM533 356q0 37 -2 71q-2 59 -21 82q-16 17 -42 23t-77 5q-52 1 -78 -5t-42 -23q-8 -12 -14 -33q-9 -33 -9 -120
q0 -58 1 -77q5 -64 22 -87q13 -18 40.5 -24.5t79.5 -6.5q90 -3 119 31q8 11 14 35q9 36 9 129z" />
    <glyph glyph-name="afii10033" unicode="&#x41f;" horiz-adv-x="759" 
d="M493 529h-226v-529h-191v697h607v-697h-190v529z" />
    <glyph glyph-name="afii10034" unicode="&#x420;" horiz-adv-x="696" 
d="M267 534v-174h150q54 0 54 86q0 88 -53 88h-151zM267 205v-205h-191v697h415q189 0 189 -251q0 -103 -50 -173q-50 -68 -139 -68h-224z" />
    <glyph glyph-name="afii10035" unicode="&#x421;" horiz-adv-x="583" 
d="M44 355q0 209 83 286q42 40 100.5 56.5t150.5 16.5q114 0 205 -24l-34 -168q-54 17 -126 17q-57 0 -84.5 -5.5t-50.5 -23.5q-40 -31 -40 -157q0 -67 8.5 -103.5t31.5 -56.5q23 -18 51.5 -24t83.5 -6q72 0 126 17l34 -172q-89 -22 -205 -22q-176 0 -255 81q-79 80 -79 288
z" />
    <glyph glyph-name="afii10036" unicode="&#x422;" horiz-adv-x="650" 
d="M421 529v-529h-192v529h-229v168h650v-168h-229z" />
    <glyph glyph-name="afii10037" unicode="&#x423;" horiz-adv-x="669" 
d="M346 395q72 150 125 302h224q-62 -158 -160 -356q-96 -194 -183 -341h-245q61 82 119 184q-46 113 -118 261q-70 146 -133 252h232q67 -119 139 -302z" />
    <glyph glyph-name="afii10038" unicode="&#x424;" horiz-adv-x="858" 
d="M328 624v73h191v-73q176 -11 241 -71q66 -61 66 -203t-66 -203q-65 -60 -241 -71v-76h-191v75q-173 11 -234 70q-62 62 -62 205q0 144 62 204q61 59 234 70zM519 469v-239q70 1 90 25q19 22 19 95q0 72 -19 94q-20 24 -90 25zM226 350q0 -70 19 -93q20 -24 83 -27v238
q-64 -1 -84 -25q-18 -23 -18 -93z" />
    <glyph glyph-name="afii10039" unicode="&#x425;" horiz-adv-x="701" 
d="M-21 697h252l127 -174q81 118 109 174h240q-79 -123 -229 -343q175 -249 241 -354h-241q-57 91 -121 183q-91 -125 -137 -183h-240q82 104 257 352q-181 250 -258 345z" />
    <glyph glyph-name="afii10040" unicode="&#x426;" horiz-adv-x="804" 
d="M76 697h191v-519h226v519h190v-519h121l-23 -332h-170v154h-535v697z" />
    <glyph glyph-name="afii10041" unicode="&#x427;" horiz-adv-x="734" 
d="M467 417v280h191v-697h-191v204q-60 -23 -168 -23q-107 0 -174 50q-75 58 -75 207v259h192v-255q0 -48 22 -65t85 -17t90.5 13.5t27.5 43.5z" />
    <glyph glyph-name="afii10042" unicode="&#x428;" horiz-adv-x="1044" 
d="M778 697h190v-697h-892v697h191v-519h160v519h191v-519h160v519z" />
    <glyph glyph-name="afii10043" unicode="&#x429;" horiz-adv-x="1089" 
d="M76 697h191v-519h160v519h191v-519h160v519h190v-519h121l-23 -332h-170v154h-820v697z" />
    <glyph glyph-name="afii10044" unicode="&#x42a;" horiz-adv-x="763" 
d="M126 0v529h-106v168h297v-202h224q90 0 139 -70q50 -71 50 -174q0 -251 -189 -251h-415zM467 334h-150v-171h151q53 0 53 88q0 83 -54 83z" />
    <glyph glyph-name="afii10045" unicode="&#x42b;" horiz-adv-x="1003" 
d="M417 334h-150v-171h151q53 0 53 88q0 83 -54 83zM76 0v697h191v-202h224q90 0 139 -70q50 -71 50 -174q0 -251 -189 -251h-415zM736 0v697h191v-697h-191z" />
    <glyph glyph-name="afii10046" unicode="&#x42c;" horiz-adv-x="713" 
d="M417 334h-150v-171h151q53 0 53 88q0 83 -54 83zM76 0v697h191v-202h224q90 0 139 -70q50 -71 50 -174q0 -251 -189 -251h-415z" />
    <glyph glyph-name="afii10047" unicode="&#x42d;" horiz-adv-x="624" 
d="M371 276h-251v165h249q-11 62 -52 80t-126 18q-82 0 -136 -17l-34 168q92 24 215 24q91 0 151.5 -16.5t104.5 -55.5q88 -78 88 -287t-88 -291q-84 -78 -256 -78q-126 0 -215 22l34 172q54 -17 136 -17q89 0 129 21q41 23 51 92z" />
    <glyph glyph-name="afii10048" unicode="&#x42e;" horiz-adv-x="1011" 
d="M675 714q140 0 213 -72q79 -78 79 -284q0 -105 -20 -178.5t-59 -115t-91 -60t-122 -18.5q-131 0 -207 66q-75 68 -87 226h-114v-278h-191v697h191v-241h115q17 143 90 200q74 58 203 58zM676 163q35 0 50 5.5t26 26.5q11 20 13.5 53t2.5 110q0 73 -3 103.5t-14 49.5
t-25 23.5t-50 4.5q-29 -2 -42.5 -5t-26 -11t-17 -29.5t-7 -50.5t-4.5 -85q2 -59 4.5 -90t7 -54.5t17 -32.5t26 -12.5t42.5 -5.5z" />
    <glyph glyph-name="afii10049" unicode="&#x42f;" horiz-adv-x="738" 
d="M311 386h160v148h-161q-39 0 -39 -75q0 -73 40 -73zM223 295q-165 13 -165 198q0 97 46.5 150.5t142.5 53.5h415v-697h-191v231h-90q-53 0 -79 -42q-24 -39 -62 -189h-220q35 117 70 188q32 63 61 83q29 19 72 24z" />
    <glyph glyph-name="afii10065" unicode="&#x430;" horiz-adv-x="578" 
d="M522 329v-303q-116 -40 -256 -40q-133 0 -179 34q-45 34 -45 136q0 101 48 134t152 33q48 0 107 -12q0 41 -18 55q-17 13 -87 13q-87 0 -163 -21l-26 143q113 28 237 28q122 0 176 -45.5t54 -154.5zM349 129v69q-25 5 -65 5q-33 0 -44 -8t-11 -34q0 -27 9.5 -35t42.5 -8
q37 0 68 11z" />
    <glyph glyph-name="afii10066" unicode="&#x431;" horiz-adv-x="586" 
d="M228 248q0 -79 13 -99q13 -21 51 -21q25 0 35 2t19.5 15t12 35.5t4.5 68.5q0 65 -14 85q-13 19 -58 19q-40 0 -52 -20q-11 -20 -11 -85zM228 456q39 49 116 49q98 0 147 -48q55 -52 55 -203q0 -152 -60 -211q-60 -57 -200 -57q-93 0 -148 32q-93 59 -93 290q0 193 36 285
q18 45 53 69q34 24 73.5 34t108.5 16q131 9 205 36v-156q-51 -21 -192 -31q-51 -4 -72.5 -27.5t-28.5 -77.5z" />
    <glyph glyph-name="afii10067" unicode="&#x432;" horiz-adv-x="609" 
d="M246 198v-66h104q31 0 31 32q0 20 -8 27t-27 7h-100zM347 382h-101v-60h101q14 0 19.5 6t5.5 23q0 31 -25 31zM429 268q79 -3 109.5 -33t30.5 -99q0 -73 -39.5 -104.5t-120.5 -31.5h-346v514h346q86 0 118.5 -28t32.5 -96q0 -61 -28.5 -89t-102.5 -33z" />
    <glyph glyph-name="afii10068" unicode="&#x433;" horiz-adv-x="449" 
d="M449 358h-203v-358h-183v514h386v-156z" />
    <glyph glyph-name="afii10069" unicode="&#x434;" horiz-adv-x="717" 
d="M160 514h453v-358h104l-40 -310h-150v154h-336v-154h-151l-40 310h100q49 202 60 358zM430 156v202h-105q-4 -80 -34 -202h139z" />
    <glyph glyph-name="afii10070" unicode="&#x435;" horiz-adv-x="559" 
d="M462 150l26 -136q-83 -28 -191 -28q-257 0 -257 274q0 148 63 208q64 61 183 61q75 0 119 -13t76 -47q62 -65 49 -270h-303q1 -37 22 -50t72 -13q76 0 141 14zM296 394q-35 0 -48 -12.5t-20 -51.5h132q-1 39 -14 51.5t-50 12.5z" />
    <glyph glyph-name="afii10072" unicode="&#x436;" horiz-adv-x="921" 
d="M212 0h-207q36 106 67 163q34 63 54 82q23 22 50 33q-76 76 -163 236h207q86 -155 149 -243v243h183v-243q76 112 149 243h207q-87 -160 -163 -236q28 -12 49 -33q58 -54 122 -245h-207q-74 195 -157 226v-226h-183v226q-85 -31 -157 -226z" />
    <glyph glyph-name="afii10073" unicode="&#x437;" horiz-adv-x="533" 
d="M239 198h-81v129h81q34 0 45 4.5t11 18.5q0 17 -12 22.5t-53 5.5q-84 0 -172 -24l-33 155q106 20 209 20q154 0 203 -28q51 -27 51 -110q0 -63 -26 -90.5t-94 -32.5q71 -4 101 -35.5t30 -98.5q0 -86 -56 -118q-55 -30 -209 -30q-98 0 -211 18l33 162q78 -28 173 -28
q46 0 60.5 6.5t14.5 25.5q0 17 -13.5 22.5t-51.5 5.5z" />
    <glyph glyph-name="afii10074" unicode="&#x438;" horiz-adv-x="632" 
d="M63 514h183v-237q57 64 140 237h183v-514h-183v226q-63 -124 -140 -226h-183v514z" />
    <glyph glyph-name="afii10075" unicode="&#x439;" horiz-adv-x="632" 
d="M63 514h183v-237q57 64 140 237h183v-514h-183v226q-63 -124 -140 -226h-183v514zM147 697h116q0 -26 12 -36t42 -10q29 0 41 10t12 36h108q0 -148 -166 -148q-165 0 -165 148z" />
    <glyph glyph-name="afii10076" unicode="&#x43a;" horiz-adv-x="625" 
d="M620 0h-209q-43 117 -80 164q-37 49 -85 62v-226h-183v514h183v-247q65 92 157 247h209q-105 -181 -161 -236q40 -16 79 -73q37 -54 90 -205z" />
    <glyph glyph-name="afii10077" unicode="&#x43b;" horiz-adv-x="619" 
d="M373 0v358h-87q-13 -163 -65 -262q-56 -110 -180 -110l-36 182q47 0 75 76q29 75 43 270h433v-514h-183z" />
    <glyph glyph-name="afii10078" unicode="&#x43c;" horiz-adv-x="822" 
d="M419 283q59 145 99 231h241v-514h-180v295q-48 -103 -108 -271h-126q-49 157 -101 271v-295h-181v514h252q32 -60 104 -231z" />
    <glyph glyph-name="afii10079" unicode="&#x43d;" horiz-adv-x="619" 
d="M63 514h183v-172h127v172h183v-514h-183v186h-127v-186h-183v514z" />
    <glyph glyph-name="afii10080" unicode="&#x43e;" 
d="M295 -14q-133 0 -194 60q-61 61 -61 214q0 151 62 210t193 59q133 0 195 -59t62 -210q0 -152 -62 -214q-62 -60 -195 -60zM295 389q-45 0 -59 -23q-13 -22 -13 -109q0 -85 14 -108t58 -23q45 0 59 23t14 108q0 86 -14 109t-59 23z" />
    <glyph glyph-name="afii10081" unicode="&#x43f;" horiz-adv-x="619" 
d="M373 358h-127v-358h-183v514h493v-514h-183v358z" />
    <glyph glyph-name="afii10082" unicode="&#x440;" horiz-adv-x="604" 
d="M246 369v-208q0 -11 17 -19t43 -8q43 0 59 25.5t16 92.5q0 79 -16 102q-17 24 -61 24q-36 0 -58 -9zM246 -192h-183v686q97 35 241 35q139 0 199 -60q60 -59 60 -213q0 -270 -213 -270q-45 0 -104 17v-195z" />
    <glyph glyph-name="afii10083" unicode="&#x441;" horiz-adv-x="474" 
d="M430 163l36 -152q-65 -25 -167 -25q-128 0 -193.5 64.5t-65.5 209.5q0 147 67.5 208t191.5 61q104 0 167 -22l-36 -152q-69 20 -113 20q-47 0 -69 -17q-25 -20 -25 -101q0 -73 21 -95q22 -21 73 -21q56 0 113 22z" />
    <glyph glyph-name="afii10084" unicode="&#x442;" horiz-adv-x="489" 
d="M489 358h-153v-358h-183v358h-153v156h489v-156z" />
    <glyph glyph-name="afii10085" unicode="&#x443;" horiz-adv-x="513" 
d="M350 514h180q-105 -371 -264 -706h-200q40 68 84 166q-60 218 -174 540h184q50 -140 97 -326q60 182 93 326z" />
    <glyph glyph-name="afii10086" unicode="&#x444;" horiz-adv-x="834" 
d="M508 -11v-181h-183v181q-153 11 -219 72t-66 199q0 136 66 195q67 61 219 71v196h183v-196q152 -10 219 -71q67 -58 67 -195q0 -138 -67 -199q-66 -61 -219 -72zM223 257q0 -68 21 -95t81 -33v257q-60 -6 -81 -33q-21 -25 -21 -96zM610 257q0 69 -21 96t-81 33v-257
q60 7 81 34t21 94z" />
    <glyph glyph-name="afii10087" unicode="&#x445;" horiz-adv-x="520" 
d="M346 514h196q-44 -73 -173 -253q131 -192 174 -261h-198q-19 33 -77 119l-90 -119h-197q52 60 193 256q-115 165 -190 258h206q22 -29 82 -115q45 65 74 115z" />
    <glyph glyph-name="afii10088" unicode="&#x446;" horiz-adv-x="691" 
d="M556 514v-358h135l-41 -310h-150v154h-437v514h183v-358h127v358h183z" />
    <glyph glyph-name="afii10089" unicode="&#x447;" horiz-adv-x="586" 
d="M30 370v144h183v-136q0 -74 72 -74q55 0 55 19v191h183v-514h-183v172q-78 -29 -133 -29q-81 0 -126 40q-51 48 -51 187z" />
    <glyph glyph-name="afii10090" unicode="&#x448;" horiz-adv-x="929" 
d="M683 514h183v-514h-803v514h183v-358h127v358h183v-358h127v358z" />
    <glyph glyph-name="afii10091" unicode="&#x449;" horiz-adv-x="1001" 
d="M866 514v-358h135l-41 -310h-150v154h-747v514h183v-358h127v358h183v-358h127v358h183z" />
    <glyph glyph-name="afii10092" unicode="&#x44a;" horiz-adv-x="619" 
d="M266 514v-167h163q75 0 117.5 -46.5t42.5 -129.5q0 -91 -40 -131t-120 -40h-346v358h-73v156h256zM266 213v-88h104q31 0 31 44t-35 44h-100z" />
    <glyph glyph-name="afii10093" unicode="&#x44b;" horiz-adv-x="852" 
d="M246 213v-88h104q31 0 31 43q0 45 -35 45h-100zM246 514v-167h163q75 0 117.5 -46.5t42.5 -129.5q0 -91 -40 -131t-120 -40h-346v514h183zM606 514h183v-514h-183v514z" />
    <glyph glyph-name="afii10094" unicode="&#x44c;" horiz-adv-x="599" 
d="M246 213v-88h104q31 0 31 44t-35 44h-100zM246 514v-167h163q75 0 117.5 -46.5t42.5 -129.5q0 -91 -40 -131t-120 -40h-346v514h183z" />
    <glyph glyph-name="afii10095" unicode="&#x44d;" horiz-adv-x="479" 
d="M15 11l34 137q41 -15 117 -15q72 0 86 66h-173v131h171q-15 52 -84 52t-117 -14l-34 139q63 22 167 22q257 0 257 -269q0 -274 -257 -274q-102 0 -167 25z" />
    <glyph glyph-name="afii10096" unicode="&#x44e;" horiz-adv-x="889" 
d="M592 -14q-117 0 -177 46t-74 154h-95v-186h-183v514h183v-172h96q15 102 75 144.5t175 42.5q133 0 195 -59t62 -210q0 -152 -62 -214q-61 -60 -195 -60zM592 389q-45 0 -59 -23q-13 -22 -13 -109q0 -85 14 -108t58 -23q45 0 59 23t14 108q0 86 -14 109t-59 23z" />
    <glyph glyph-name="afii10097" unicode="&#x44f;" horiz-adv-x="637" 
d="M287 289h104v84h-105q-33 0 -33 -42t34 -42zM198 213q-73 6 -108 45.5t-35 104.5q0 72 40.5 111.5t124.5 39.5h354v-514h-183v150h-60q-39 0 -62 -30q-21 -28 -45 -120h-209q41 122 76 162q38 42 107 51z" />
    <glyph glyph-name="afii10071" unicode="&#x451;" horiz-adv-x="559" 
d="M462 150l26 -136q-83 -28 -191 -28q-257 0 -257 274q0 148 63 208q64 61 183 61q75 0 119 -13t76 -47q62 -65 49 -270h-303q1 -37 22 -50t72 -13q76 0 141 14zM296 394q-35 0 -48 -12.5t-20 -51.5h132q-1 39 -14 51.5t-50 12.5zM171 706q47 0 62.5 -14t15.5 -58
q0 -48 -16 -64t-62 -16t-61.5 16t-15.5 64q0 44 15.5 58t61.5 14zM409 706q46 0 61.5 -14t15.5 -58q0 -48 -15.5 -64t-61.5 -16q-47 0 -62.5 15.5t-15.5 64.5q0 45 15 58.5t63 13.5z" />
    <glyph glyph-name="afii10099" unicode="&#x452;" horiz-adv-x="606" 
d="M329 567h-83v-90q69 29 133 29q46 0 78 -12t58 -42.5t38.5 -89t12.5 -146.5q0 -154 -40 -264q-39 -112 -96 -147l-142 118q85 58 85 285q0 82 -16 104q-15 23 -56 23q-52 0 -55 -17v-318h-183v567h-39v122h39v33h183v-33h83v-122z" />
    <glyph glyph-name="afii10100" unicode="&#x453;" horiz-adv-x="449" 
d="M449 358h-203v-358h-183v514h386v-156zM448 697l-156 -129h-150l124 129h182z" />
    <glyph glyph-name="afii10101" unicode="&#x454;" horiz-adv-x="479" 
d="M430 148l34 -137q-65 -25 -165 -25q-259 0 -259 274q0 269 257 269q104 0 167 -22l-34 -139q-48 14 -117 14t-84 -52h171v-131h-173q13 -66 86 -66q77 0 117 15z" />
    <glyph glyph-name="afii10102" unicode="&#x455;" horiz-adv-x="478" 
d="M443 500l-32 -132q-82 20 -153 20q-32 0 -43 -5t-11 -23q0 -15 13 -19q19 -6 70 -13q92 -14 128 -47q39 -34 39 -113q0 -182 -241 -182q-107 0 -182 28l33 135q72 -19 140 -19q44 0 60 5.5t16 23.5q0 15 -18 21.5t-77 12.5q-84 8 -119.5 42t-35.5 113q0 181 236 181
q99 0 177 -29z" />
    <glyph glyph-name="afii10103" unicode="&#x456;" horiz-adv-x="307" 
d="M63 514h183v-514h-183v514zM256 662q0 -58 -21 -76t-81 -18t-81 18t-21 76q0 53 21 68q20 16 81 16t81 -16q21 -15 21 -68z" />
    <glyph glyph-name="afii10104" unicode="&#x457;" horiz-adv-x="307" 
d="M35 706q47 0 62.5 -14t15.5 -58q0 -48 -16 -64t-62 -16t-61.5 16t-15.5 64q0 44 15.5 58t61.5 14zM273 706q46 0 61.5 -14t15.5 -58q0 -48 -15.5 -64t-61.5 -16q-47 0 -62.5 15.5t-15.5 64.5q0 45 15 58.5t63 13.5zM63 514h183v-514h-183v514z" />
    <glyph glyph-name="afii10105" unicode="&#x458;" horiz-adv-x="307" 
d="M256 662q0 -58 -21 -76t-81 -18t-81 18t-21 76q0 53 21 68q20 16 81 16t81 -16q21 -15 21 -68zM63 514h183v-507q0 -116 -58 -162q-57 -48 -196 -48v146q71 0 71 58v513z" />
    <glyph glyph-name="afii10106" unicode="&#x459;" horiz-adv-x="919" 
d="M556 213v-88h104q31 0 31 44t-35 44h-100zM123 514h433v-167h163q75 0 117.5 -46.5t42.5 -129.5q0 -91 -40 -131t-120 -40h-346v358h-87q-13 -163 -65 -262q-56 -110 -180 -110l-36 182q47 0 75 76q29 75 43 270z" />
    <glyph glyph-name="afii10107" unicode="&#x45a;" horiz-adv-x="919" 
d="M556 514v-167h163q75 0 117.5 -46.5t42.5 -129.5q0 -91 -40 -131t-120 -40h-346v213h-127v-213h-183v514h183v-167h127v167h183zM556 213v-88h104q14 0 22.5 12.5t8.5 32.5q0 43 -35 43h-100z" />
    <glyph glyph-name="afii10108" unicode="&#x45b;" horiz-adv-x="612" 
d="M63 567h-39v122h39v33h183v-33h83v-122h-83v-67q78 29 133 29q82 0 125 -40q52 -46 52 -187v-302h-183v294q0 74 -72 74q-55 0 -55 -19v-349h-183v567z" />
    <glyph glyph-name="afii10109" unicode="&#x45c;" horiz-adv-x="625" 
d="M620 0h-209q-43 117 -80 164q-37 49 -85 62v-226h-183v514h183v-247q65 92 157 247h209q-105 -181 -161 -236q40 -16 79 -73q37 -54 90 -205zM530 697l-156 -129h-150l124 129h182z" />
    <glyph glyph-name="afii10110" unicode="&#x45e;" horiz-adv-x="513" 
d="M350 514h180q-105 -371 -264 -706h-200q40 68 84 166q-60 218 -174 540h184q50 -140 97 -326q60 182 93 326zM89 697h116q0 -26 12 -36t42 -10q29 0 41 10t12 36h108q0 -148 -166 -148q-165 0 -165 148z" />
    <glyph glyph-name="afii10193" unicode="&#x45f;" horiz-adv-x="619" 
d="M63 514h183v-358h127v358h183v-514h-163l-21 -192h-123l-21 192h-165v514z" />
    <glyph glyph-name="afii10050" unicode="&#x490;" horiz-adv-x="556" 
d="M267 0h-191v697h344l42 192h123v-360h-318v-529z" />
    <glyph glyph-name="afii10098" unicode="&#x491;" horiz-adv-x="449" 
d="M63 0v514h241l42 183h103v-339h-203v-358h-183z" />
    <glyph glyph-name="Wgrave" unicode="&#x1e80;" horiz-adv-x="1046" 
d="M525 363q-39 -165 -98 -363h-243q-98 419 -194 697h207q77 -228 124 -443q88 287 119 443h170q71 -223 124 -443q69 222 111 443h201q-29 -128 -90 -340q-55 -197 -107 -357h-243q-33 168 -81 363zM516 876l124 -129h-150l-156 129h182z" />
    <glyph glyph-name="wgrave" unicode="&#x1e81;" horiz-adv-x="847" 
d="M420 253q-21 -112 -67 -253h-214q-72 256 -163 514h184q54 -149 97 -321q41 128 89 321h158q56 -178 87 -321q65 197 93 321h180q-85 -288 -177 -514h-215q-16 94 -52 253zM432 697l124 -129h-150l-156 129h182z" />
    <glyph glyph-name="Wacute" unicode="&#x1e82;" horiz-adv-x="1046" 
d="M525 363q-39 -165 -98 -363h-243q-98 419 -194 697h207q77 -228 124 -443q88 287 119 443h170q71 -223 124 -443q69 222 111 443h201q-29 -128 -90 -340q-55 -197 -107 -357h-243q-33 168 -81 363zM710 876l-156 -129h-150l124 129h182z" />
    <glyph glyph-name="wacute" unicode="&#x1e83;" horiz-adv-x="847" 
d="M420 253q-21 -112 -67 -253h-214q-72 256 -163 514h184q54 -149 97 -321q41 128 89 321h158q56 -178 87 -321q65 197 93 321h180q-85 -288 -177 -514h-215q-16 94 -52 253zM606 697l-156 -129h-150l124 129h182z" />
    <glyph glyph-name="Wdieresis" unicode="&#x1e84;" horiz-adv-x="1046" 
d="M525 363q-39 -165 -98 -363h-243q-98 419 -194 697h207q77 -228 124 -443q88 287 119 443h170q71 -223 124 -443q69 222 111 443h201q-29 -128 -90 -340q-55 -197 -107 -357h-243q-33 168 -81 363zM406 881q47 0 62.5 -14t15.5 -58q0 -48 -16 -64t-62 -16t-61.5 16
t-15.5 64q0 44 15.5 58t61.5 14zM644 881q46 0 61.5 -14t15.5 -58q0 -48 -15.5 -64t-61.5 -16q-47 0 -62.5 15.5t-15.5 64.5q0 45 15 58.5t63 13.5z" />
    <glyph glyph-name="wdieresis" unicode="&#x1e85;" horiz-adv-x="847" 
d="M420 253q-21 -112 -67 -253h-214q-72 256 -163 514h184q54 -149 97 -321q41 128 89 321h158q56 -178 87 -321q65 197 93 321h180q-85 -288 -177 -514h-215q-16 94 -52 253zM304 706q47 0 62.5 -14t15.5 -58q0 -48 -16 -64t-62 -16t-61.5 16t-15.5 64q0 44 15.5 58
t61.5 14zM542 706q46 0 61.5 -14t15.5 -58q0 -48 -15.5 -64t-61.5 -16q-47 0 -62.5 15.5t-15.5 64.5q0 45 15 58.5t63 13.5z" />
    <glyph glyph-name="uni1EA0" unicode="&#x1ea0;" horiz-adv-x="696" 
d="M211 697h291q109 -371 240 -697h-211q-24 56 -50 134h-270l-36 -134h-207q36 128 111 344q71 205 132 353zM358 529h-25q-24 -66 -74 -230h167q-39 122 -68 230zM350 -50q47 0 62 -13.5t15 -57.5q0 -48 -15.5 -63.5t-61.5 -15.5q-45 0 -60 15.5t-15 63.5q0 44 15 57.5
t60 13.5z" />
    <glyph glyph-name="uni1EA1" unicode="&#x1ea1;" horiz-adv-x="578" 
d="M522 329v-303q-116 -40 -256 -40q-133 0 -179 34q-45 34 -45 136q0 101 48 134t152 33q48 0 107 -12q0 44 -19 57q-18 15 -86 15q-73 0 -163 -25l-26 143q113 28 237 28q122 0 176 -45.5t54 -154.5zM349 129v69q-25 5 -65 5q-33 0 -44 -8t-11 -34q0 -27 9.5 -35t42.5 -8
q37 0 68 11zM291 -50q47 0 62 -13.5t15 -57.5q0 -48 -15.5 -63.5t-61.5 -15.5q-45 0 -60 15.5t-15 63.5q0 44 15 57.5t60 13.5z" />
    <glyph glyph-name="uni1EA2" unicode="&#x1ea2;" horiz-adv-x="696" 
d="M211 697h291q109 -371 240 -697h-211q-24 56 -50 134h-270l-36 -134h-207q36 128 111 344q71 205 132 353zM358 529h-25q-24 -66 -74 -230h167q-39 122 -68 230zM341 715h-45q44 24 59.5 42t15.5 43q0 18 -11.5 25t-42.5 7q-45 0 -73 -22l-43 71q52 32 137 32
q77 0 108 -19t31 -63q0 -39 -35 -70t-101 -46z" />
    <glyph glyph-name="uni1EA3" unicode="&#x1ea3;" horiz-adv-x="578" 
d="M522 329v-303q-116 -40 -256 -40q-133 0 -179 34q-45 34 -45 136q0 101 48 134t152 33q48 0 107 -12q0 44 -19 57q-18 15 -86 15q-73 0 -163 -25l-26 143q113 28 237 28q122 0 176 -45.5t54 -154.5zM349 129v69q-25 5 -65 5q-33 0 -44 -8t-11 -34q0 -27 9.5 -35t42.5 -8
q37 0 68 11zM291 542h-45q44 27 59 46t15 46q0 19 -11.5 27t-41.5 8q-45 0 -73 -24l-42 77q50 35 136 35q76 0 107 -21t31 -68q0 -42 -35 -75.5t-100 -50.5z" />
    <glyph glyph-name="uni1EA4" unicode="&#x1ea4;" horiz-adv-x="696" 
d="M211 697h291q109 -371 240 -697h-211q-24 56 -50 134h-270l-36 -134h-207q36 128 111 344q71 205 132 353zM358 529h-25q-24 -66 -74 -230h167q-39 122 -68 230zM563 727h-153l-61 49l-60 -49h-148l122 97h173zM542 943l-154 -100h-148l122 100h180z" />
    <glyph glyph-name="uni1EA5" unicode="&#x1ea5;" horiz-adv-x="578" 
d="M522 329v-303q-116 -40 -256 -40q-133 0 -179 34q-45 34 -45 136q0 101 48 134t152 33q48 0 107 -12q0 44 -19 57q-18 15 -86 15q-73 0 -163 -25l-26 143q113 28 237 28q122 0 176 -45.5t54 -154.5zM349 129v69q-25 5 -65 5q-33 0 -44 -8t-11 -34q0 -27 9.5 -35t42.5 -8
q37 0 68 11zM499 568h-152l-61 66l-59 -66h-148l122 129h172zM460 876l-156 -129h-150l124 129h182z" />
    <glyph glyph-name="uni1EA6" unicode="&#x1ea6;" horiz-adv-x="696" 
d="M211 697h291q109 -371 240 -697h-211q-24 56 -50 134h-270l-36 -134h-207q36 128 111 344q71 205 132 353zM358 529h-25q-24 -66 -74 -230h167q-39 122 -68 230zM563 727h-153l-61 49l-60 -49h-148l122 97h173zM358 943l122 -100h-147l-153 100h178z" />
    <glyph glyph-name="uni1EA7" unicode="&#x1ea7;" horiz-adv-x="578" 
d="M522 329v-303q-116 -40 -256 -40q-133 0 -179 34q-45 34 -45 136q0 101 48 134t152 33q48 0 107 -12q0 44 -19 57q-18 15 -86 15q-73 0 -163 -25l-26 143q113 28 237 28q122 0 176 -45.5t54 -154.5zM349 129v69q-25 5 -65 5q-33 0 -44 -8t-11 -34q0 -27 9.5 -35t42.5 -8
q37 0 68 11zM499 568h-152l-61 66l-59 -66h-148l122 129h172zM284 876l124 -129h-150l-156 129h182z" />
    <glyph glyph-name="uni1EA8" unicode="&#x1ea8;" horiz-adv-x="696" 
d="M211 697h291q109 -371 240 -697h-211q-24 56 -50 134h-270l-36 -134h-207q36 128 111 344q71 205 132 353zM358 529h-25q-24 -66 -74 -230h167q-39 122 -68 230zM354 833h-46q44 18 60 32t16 32q0 13 -12 19t-43 6q-43 0 -75 -17l-43 54q50 25 140 25q79 0 110.5 -14.5
t31.5 -48.5q0 -30 -35.5 -53t-103.5 -35zM563 727h-153l-61 49l-60 -49h-148l122 97h173z" />
    <glyph glyph-name="uni1EA9" unicode="&#x1ea9;" horiz-adv-x="578" 
d="M522 329v-303q-116 -40 -256 -40q-133 0 -179 34q-45 34 -45 136q0 101 48 134t152 33q48 0 107 -12q0 44 -19 57q-18 15 -86 15q-73 0 -163 -25l-26 143q113 28 237 28q122 0 176 -45.5t54 -154.5zM349 129v69q-25 5 -65 5q-33 0 -44 -8t-11 -34q0 -27 9.5 -35t42.5 -8
q37 0 68 11zM499 568h-152l-61 66l-59 -66h-148l122 129h172zM291 712h-45q44 27 59 46t15 46q0 19 -11.5 27t-41.5 8q-45 0 -73 -24l-42 77q50 35 136 35q76 0 107 -21t31 -68q0 -42 -35 -75.5t-100 -50.5z" />
    <glyph glyph-name="uni1EAA" unicode="&#x1eaa;" horiz-adv-x="696" 
d="M211 697h291q109 -371 240 -697h-211q-24 56 -50 134h-270l-36 -134h-207q36 128 111 344q71 205 132 353zM358 529h-25q-24 -66 -74 -230h167q-39 122 -68 230zM563 727h-153l-61 49l-60 -49h-148l122 97h173zM461 960l82 -50q-16 -31 -50 -50.5t-79 -19.5q-35 0 -77 15
t-64 15q-27 0 -44 -30l-75 56q46 58 113 58q43 0 86 -15q45 -14 62 -14t26.5 7t19.5 28z" />
    <glyph glyph-name="uni1EAB" unicode="&#x1eab;" horiz-adv-x="578" 
d="M522 329v-303q-116 -40 -256 -40q-133 0 -179 34q-45 34 -45 136q0 101 48 134t152 33q48 0 107 -12q0 44 -19 57q-18 15 -86 15q-73 0 -163 -25l-26 143q113 28 237 28q122 0 176 -45.5t54 -154.5zM349 129v69q-25 5 -65 5q-33 0 -44 -8t-11 -34q0 -27 9.5 -35t42.5 -8
q37 0 68 11zM499 568h-152l-61 66l-59 -66h-148l122 129h172zM416 891l83 -67q-16 -42 -50.5 -68.5t-79.5 -26.5q-34 0 -79 20q-42 21 -64 21q-26 0 -44 -41l-76 75q46 79 114 79q43 0 88 -20q42 -19 62 -19q17 0 26.5 9.5t19.5 37.5z" />
    <glyph glyph-name="uni1EAC" unicode="&#x1eac;" horiz-adv-x="696" 
d="M211 697h291q109 -371 240 -697h-211q-24 56 -50 134h-270l-36 -134h-207q36 128 111 344q71 205 132 353zM358 529h-25q-24 -66 -74 -230h167q-39 122 -68 230zM350 -50q47 0 62 -13.5t15 -57.5q0 -48 -15.5 -63.5t-61.5 -15.5q-45 0 -60 15.5t-15 63.5q0 44 15 57.5
t60 13.5zM558 747h-152l-61 66l-59 -66h-148l122 129h172z" />
    <glyph glyph-name="uni1EAD" unicode="&#x1ead;" horiz-adv-x="578" 
d="M522 329v-303q-116 -40 -256 -40q-133 0 -179 34q-45 34 -45 136q0 101 48 134t152 33q48 0 107 -12q0 44 -19 57q-18 15 -86 15q-73 0 -163 -25l-26 143q113 28 237 28q122 0 176 -45.5t54 -154.5zM349 129v69q-25 5 -65 5q-33 0 -44 -8t-11 -34q0 -27 9.5 -35t42.5 -8
q37 0 68 11zM291 -50q47 0 62 -13.5t15 -57.5q0 -48 -15.5 -63.5t-61.5 -15.5q-45 0 -60 15.5t-15 63.5q0 44 15 57.5t60 13.5zM499 568h-152l-61 66l-59 -66h-148l122 129h172z" />
    <glyph glyph-name="uni1EAE" unicode="&#x1eae;" horiz-adv-x="696" 
d="M211 697h291q109 -371 240 -697h-211q-24 56 -50 134h-270l-36 -134h-207q36 128 111 344q71 205 132 353zM358 529h-25q-24 -66 -74 -230h167q-39 122 -68 230zM179 824h118q0 -18 12 -24.5t43 -6.5q29 0 41.5 7t12.5 24h110q0 -101 -169 -101q-168 0 -168 101zM535 943
l-154 -100h-148l122 100h180z" />
    <glyph glyph-name="uni1EAF" unicode="&#x1eaf;" horiz-adv-x="578" 
d="M522 329v-303q-116 -40 -256 -40q-133 0 -179 34q-45 34 -45 136q0 101 48 134t152 33q48 0 107 -12q0 44 -19 57q-18 15 -86 15q-73 0 -163 -25l-26 143q113 28 237 28q122 0 176 -45.5t54 -154.5zM349 129v69q-25 5 -65 5q-33 0 -44 -8t-11 -34q0 -27 9.5 -35t42.5 -8
q37 0 68 11zM121 697h116q0 -26 12 -36t42 -10q29 0 41 10t12 36h108q0 -148 -166 -148q-165 0 -165 148zM470 876l-156 -129h-150l124 129h182z" />
    <glyph glyph-name="uni1EB0" unicode="&#x1eb0;" horiz-adv-x="696" 
d="M211 697h291q109 -371 240 -697h-211q-24 56 -50 134h-270l-36 -134h-207q36 128 111 344q71 205 132 353zM358 529h-25q-24 -66 -74 -230h167q-39 122 -68 230zM179 824h118q0 -18 12 -24.5t43 -6.5q29 0 41.5 7t12.5 24h110q0 -101 -169 -101q-168 0 -168 101zM348 943
l122 -100h-147l-153 100h178z" />
    <glyph glyph-name="uni1EB1" unicode="&#x1eb1;" horiz-adv-x="578" 
d="M522 329v-303q-116 -40 -256 -40q-133 0 -179 34q-45 34 -45 136q0 101 48 134t152 33q48 0 107 -12q0 44 -19 57q-18 15 -86 15q-73 0 -163 -25l-26 143q113 28 237 28q122 0 176 -45.5t54 -154.5zM349 129v69q-25 5 -65 5q-33 0 -44 -8t-11 -34q0 -27 9.5 -35t42.5 -8
q37 0 68 11zM121 697h116q0 -26 12 -36t42 -10q29 0 41 10t12 36h108q0 -148 -166 -148q-165 0 -165 148zM282 876l124 -129h-150l-156 129h182z" />
    <glyph glyph-name="uni1EB2" unicode="&#x1eb2;" horiz-adv-x="696" 
d="M211 697h291q109 -371 240 -697h-211q-24 56 -50 134h-270l-36 -134h-207q36 128 111 344q71 205 132 353zM358 529h-25q-24 -66 -74 -230h167q-39 122 -68 230zM179 824h118q0 -18 12 -24.5t43 -6.5q29 0 41.5 7t12.5 24h110q0 -101 -169 -101q-168 0 -168 101zM353 833
h-46q44 18 60 32t16 32q0 13 -12 19t-43 6q-43 0 -75 -17l-43 54q50 25 140 25q79 0 110.5 -14.5t31.5 -48.5q0 -30 -35.5 -53t-103.5 -35z" />
    <glyph glyph-name="uni1EB3" unicode="&#x1eb3;" horiz-adv-x="578" 
d="M522 329v-303q-116 -40 -256 -40q-133 0 -179 34q-45 34 -45 136q0 101 48 134t152 33q48 0 107 -12q0 44 -19 57q-18 15 -86 15q-73 0 -163 -25l-26 143q113 28 237 28q122 0 176 -45.5t54 -154.5zM349 129v69q-25 5 -65 5q-33 0 -44 -8t-11 -34q0 -27 9.5 -35t42.5 -8
q37 0 68 11zM121 697h116q0 -26 12 -36t42 -10q29 0 41 10t12 36h108q0 -148 -166 -148q-165 0 -165 148zM291 702h-45q44 27 59 46t15 46q0 19 -11.5 27t-41.5 8q-45 0 -73 -24l-42 77q50 35 136 35q76 0 107 -21t31 -68q0 -42 -35 -75.5t-100 -50.5z" />
    <glyph glyph-name="uni1EB4" unicode="&#x1eb4;" horiz-adv-x="696" 
d="M211 697h291q109 -371 240 -697h-211q-24 56 -50 134h-270l-36 -134h-207q36 128 111 344q71 205 132 353zM358 529h-25q-24 -66 -74 -230h167q-39 122 -68 230zM179 824h118q0 -18 12 -24.5t43 -6.5q29 0 41.5 7t12.5 24h110q0 -101 -169 -101q-168 0 -168 101zM461 960
l82 -50q-16 -31 -50 -50.5t-79 -19.5q-35 0 -77 15t-64 15q-27 0 -44 -30l-75 56q46 58 113 58q43 0 86 -15q45 -14 62 -14t26.5 7t19.5 28z" />
    <glyph glyph-name="uni1EB5" unicode="&#x1eb5;" horiz-adv-x="578" 
d="M522 329v-303q-116 -40 -256 -40q-133 0 -179 34q-45 34 -45 136q0 101 48 134t152 33q48 0 107 -12q0 44 -19 57q-18 15 -86 15q-73 0 -163 -25l-26 143q113 28 237 28q122 0 176 -45.5t54 -154.5zM349 129v69q-25 5 -65 5q-33 0 -44 -8t-11 -34q0 -27 9.5 -35t42.5 -8
q37 0 68 11zM121 697h116q0 -26 12 -36t42 -10q29 0 41 10t12 36h108q0 -148 -166 -148q-165 0 -165 148zM399 891l83 -67q-16 -42 -50.5 -68.5t-79.5 -26.5q-34 0 -79 20q-42 21 -64 21q-26 0 -44 -41l-76 75q46 79 114 79q43 0 88 -20q42 -19 62 -19q17 0 26.5 9.5
t19.5 37.5z" />
    <glyph glyph-name="uni1EB6" unicode="&#x1eb6;" horiz-adv-x="696" 
d="M211 697h291q109 -371 240 -697h-211q-24 56 -50 134h-270l-36 -134h-207q36 128 111 344q71 205 132 353zM358 529h-25q-24 -66 -74 -230h167q-39 122 -68 230zM350 -50q47 0 62 -13.5t15 -57.5q0 -48 -15.5 -63.5t-61.5 -15.5q-45 0 -60 15.5t-15 63.5q0 44 15 57.5
t60 13.5zM183 871h116q0 -26 12 -36t42 -10q29 0 41 10t12 36h108q0 -148 -166 -148q-165 0 -165 148z" />
    <glyph glyph-name="uni1EB7" unicode="&#x1eb7;" horiz-adv-x="578" 
d="M522 329v-303q-116 -40 -256 -40q-133 0 -179 34q-45 34 -45 136q0 101 48 134t152 33q48 0 107 -12q0 44 -19 57q-18 15 -86 15q-73 0 -163 -25l-26 143q113 28 237 28q122 0 176 -45.5t54 -154.5zM349 129v69q-25 5 -65 5q-33 0 -44 -8t-11 -34q0 -27 9.5 -35t42.5 -8
q37 0 68 11zM123 697h116q0 -26 12 -36t42 -10q29 0 41 10t12 36h108q0 -148 -166 -148q-165 0 -165 148zM281 -50q47 0 62 -13.5t15 -57.5q0 -48 -15.5 -63.5t-61.5 -15.5q-45 0 -60 15.5t-15 63.5q0 44 15 57.5t60 13.5z" />
    <glyph glyph-name="uni1EB8" unicode="&#x1eb8;" horiz-adv-x="631" 
d="M76 0v697h534v-168h-343v-88h247v-165h-247v-108h343v-168h-534zM337 -50q47 0 62 -13.5t15 -57.5q0 -48 -15.5 -63.5t-61.5 -15.5q-45 0 -60 15.5t-15 63.5q0 44 15 57.5t60 13.5z" />
    <glyph glyph-name="uni1EB9" unicode="&#x1eb9;" horiz-adv-x="559" 
d="M462 150l26 -136q-83 -28 -191 -28q-257 0 -257 274q0 148 63 208q64 61 183 61q75 0 119 -13t76 -47q62 -65 49 -270h-303q1 -37 22 -50t72 -13q76 0 141 14zM296 394q-35 0 -48 -12.5t-20 -51.5h132q-1 39 -14 51.5t-50 12.5zM292 -50q47 0 62 -13.5t15 -57.5
q0 -48 -15.5 -63.5t-61.5 -15.5q-45 0 -60 15.5t-15 63.5q0 44 15 57.5t60 13.5z" />
    <glyph glyph-name="uni1EBA" unicode="&#x1eba;" horiz-adv-x="631" 
d="M76 0v697h534v-168h-343v-88h247v-165h-247v-108h343v-168h-534zM346 715h-45q44 24 59.5 42t15.5 43q0 18 -11.5 25t-42.5 7q-45 0 -73 -22l-43 71q52 32 137 32q77 0 108 -19t31 -63q0 -39 -35 -70t-101 -46z" />
    <glyph glyph-name="uni1EBB" unicode="&#x1ebb;" horiz-adv-x="559" 
d="M462 150l26 -136q-83 -28 -191 -28q-257 0 -257 274q0 148 63 208q64 61 183 61q75 0 119 -13t76 -47q62 -65 49 -270h-303q1 -37 22 -50t72 -13q76 0 141 14zM296 394q-35 0 -48 -12.5t-20 -51.5h132q-1 39 -14 51.5t-50 12.5zM282 542h-45q44 27 59 46t15 46
q0 19 -11.5 27t-41.5 8q-44 0 -73 -24l-42 77q50 35 136 35q76 0 107 -21t31 -68q0 -42 -35 -75.5t-100 -50.5z" />
    <glyph glyph-name="uni1EBC" unicode="&#x1ebc;" horiz-adv-x="631" 
d="M76 0v697h534v-168h-343v-88h247v-165h-247v-108h343v-168h-534zM463 891l83 -67q-16 -42 -50.5 -68.5t-79.5 -26.5q-34 0 -79 20q-42 21 -64 21q-26 0 -44 -41l-76 75q46 79 114 79q43 0 88 -20q42 -19 62 -19q17 0 26.5 9.5t19.5 37.5z" />
    <glyph glyph-name="uni1EBD" unicode="&#x1ebd;" horiz-adv-x="559" 
d="M462 150l26 -136q-83 -28 -191 -28q-257 0 -257 274q0 148 63 208q64 61 183 61q75 0 119 -13t76 -47q62 -65 49 -270h-303q1 -37 22 -50t72 -13q76 0 141 14zM296 394q-35 0 -48 -12.5t-20 -51.5h132q-1 39 -14 51.5t-50 12.5zM413 715l83 -67q-16 -42 -50.5 -68.5
t-79.5 -26.5q-34 0 -79 20q-42 21 -64 21q-26 0 -44 -41l-76 75q46 79 114 79q43 0 88 -20q42 -19 62 -19q17 0 26.5 9.5t19.5 37.5z" />
    <glyph glyph-name="uni1EBE" unicode="&#x1ebe;" horiz-adv-x="631" 
d="M76 0v697h534v-168h-343v-88h247v-165h-247v-108h343v-168h-534zM554 727h-153l-61 49l-60 -49h-148l122 97h173zM533 943l-154 -100h-148l122 100h180z" />
    <glyph glyph-name="uni1EBF" unicode="&#x1ebf;" horiz-adv-x="559" 
d="M462 150l26 -136q-83 -28 -191 -28q-257 0 -257 274q0 148 63 208q64 61 183 61q75 0 119 -13t76 -47q62 -65 49 -270h-303q1 -37 22 -50t72 -13q76 0 141 14zM296 394q-35 0 -48 -12.5t-20 -51.5h132q-1 39 -14 51.5t-50 12.5zM501 568h-152l-61 66l-59 -66h-148
l122 129h172zM462 876l-156 -129h-150l124 129h182z" />
    <glyph glyph-name="uni1EC0" unicode="&#x1ec0;" horiz-adv-x="631" 
d="M76 0v697h534v-168h-343v-88h247v-165h-247v-108h343v-168h-534zM556 727h-153l-61 49l-60 -49h-148l122 97h173zM351 943l122 -100h-147l-153 100h178z" />
    <glyph glyph-name="uni1EC1" unicode="&#x1ec1;" horiz-adv-x="559" 
d="M462 150l26 -136q-83 -28 -191 -28q-257 0 -257 274q0 148 63 208q64 61 183 61q75 0 119 -13t76 -47q62 -65 49 -270h-303q1 -37 22 -50t72 -13q76 0 141 14zM296 394q-35 0 -48 -12.5t-20 -51.5h132q-1 39 -14 51.5t-50 12.5zM499 568h-152l-61 66l-59 -66h-148
l122 129h172zM284 876l124 -129h-150l-156 129h182z" />
    <glyph glyph-name="uni1EC2" unicode="&#x1ec2;" horiz-adv-x="631" 
d="M76 0v697h534v-168h-343v-88h247v-165h-247v-108h343v-168h-534zM345 833h-46q44 18 60 32t16 32q0 13 -12 19t-43 6q-43 0 -75 -17l-43 54q50 25 140 25q79 0 110.5 -14.5t31.5 -48.5q0 -30 -35.5 -53t-103.5 -35zM554 727h-153l-61 49l-60 -49h-148l122 97h173z" />
    <glyph glyph-name="uni1EC3" unicode="&#x1ec3;" horiz-adv-x="559" 
d="M462 150l26 -136q-83 -28 -191 -28q-257 0 -257 274q0 148 63 208q64 61 183 61q75 0 119 -13t76 -47q62 -65 49 -270h-303q1 -37 22 -50t72 -13q76 0 141 14zM296 394q-35 0 -48 -12.5t-20 -51.5h132q-1 39 -14 51.5t-50 12.5zM284 712h-45q44 27 59 46t15 46
q0 19 -11.5 27t-41.5 8q-44 0 -73 -24l-42 77q50 35 136 35q76 0 107 -21t31 -68q0 -42 -35 -75.5t-100 -50.5zM492 568h-152l-61 66l-59 -66h-148l122 129h172z" />
    <glyph glyph-name="uni1EC4" unicode="&#x1ec4;" horiz-adv-x="631" 
d="M76 0v697h534v-168h-343v-88h247v-165h-247v-108h343v-168h-534zM561 727h-153l-61 49l-60 -49h-148l122 97h173zM459 960l82 -50q-16 -31 -50 -50.5t-79 -19.5q-35 0 -77 15t-64 15q-27 0 -44 -30l-75 56q46 58 113 58q43 0 86 -15q45 -14 62 -14t26.5 7t19.5 28z" />
    <glyph glyph-name="uni1EC5" unicode="&#x1ec5;" horiz-adv-x="559" 
d="M462 150l26 -136q-83 -28 -191 -28q-257 0 -257 274q0 148 63 208q64 61 183 61q75 0 119 -13t76 -47q62 -65 49 -270h-303q1 -37 22 -50t72 -13q76 0 141 14zM296 394q-35 0 -48 -12.5t-20 -51.5h132q-1 39 -14 51.5t-50 12.5zM510 568h-152l-61 66l-59 -66h-148
l122 129h172zM413 891l83 -67q-16 -42 -50.5 -68.5t-79.5 -26.5q-34 0 -79 20q-42 21 -64 21q-26 0 -44 -41l-76 75q46 79 114 79q43 0 88 -20q42 -19 62 -19q17 0 26.5 9.5t19.5 37.5z" />
    <glyph glyph-name="uni1EC6" unicode="&#x1ec6;" horiz-adv-x="631" 
d="M76 0v697h534v-168h-343v-88h247v-165h-247v-108h343v-168h-534zM347 -50q47 0 62 -13.5t15 -57.5q0 -48 -15.5 -63.5t-61.5 -15.5q-45 0 -60 15.5t-15 63.5q0 44 15 57.5t60 13.5zM562 747h-152l-61 66l-59 -66h-148l122 129h172z" />
    <glyph glyph-name="uni1EC7" unicode="&#x1ec7;" horiz-adv-x="559" 
d="M462 150l26 -136q-83 -28 -191 -28q-257 0 -257 274q0 148 63 208q64 61 183 61q75 0 119 -13t76 -47q62 -65 49 -270h-303q1 -37 22 -50t72 -13q76 0 141 14zM296 394q-35 0 -48 -12.5t-20 -51.5h132q-1 39 -14 51.5t-50 12.5zM281 -50q47 0 62 -13.5t15 -57.5
q0 -48 -15.5 -63.5t-61.5 -15.5q-45 0 -60 15.5t-15 63.5q0 44 15 57.5t60 13.5zM490 568h-152l-61 66l-59 -66h-148l122 129h172z" />
    <glyph glyph-name="uni1EC8" unicode="&#x1ec8;" horiz-adv-x="343" 
d="M76 0v697h191v-697h-191zM173 715h-45q44 24 59.5 42t15.5 43q0 18 -11.5 25t-42.5 7q-45 0 -73 -22l-43 71q52 32 137 32q77 0 108 -19t31 -63q0 -39 -35 -70t-101 -46z" />
    <glyph glyph-name="uni1EC9" unicode="&#x1ec9;" horiz-adv-x="307" 
d="M156 542h-45q44 27 59 46t15 46q0 19 -11.5 27t-41.5 8q-44 0 -73 -24l-42 77q50 35 136 35q76 0 107 -21t31 -68q0 -42 -35 -75.5t-100 -50.5zM63 514h183v-514h-183v514z" />
    <glyph glyph-name="uni1ECA" unicode="&#x1eca;" horiz-adv-x="343" 
d="M174 -50q47 0 62 -13.5t15 -57.5q0 -48 -15.5 -63.5t-61.5 -15.5q-45 0 -60 15.5t-15 63.5q0 44 15 57.5t60 13.5zM76 0v697h191v-697h-191z" />
    <glyph glyph-name="uni1ECB" unicode="&#x1ecb;" horiz-adv-x="307" 
d="M63 514h183v-514h-183v514zM256 662q0 -58 -21 -76t-81 -18t-81 18t-21 76q0 53 21 68q20 16 81 16t81 -16q21 -15 21 -68zM156 -50q47 0 62 -13.5t15 -57.5q0 -48 -15.5 -63.5t-61.5 -15.5q-45 0 -60 15.5t-15 63.5q0 44 15 57.5t60 13.5z" />
    <glyph glyph-name="uni1ECC" unicode="&#x1ecc;" horiz-adv-x="781" 
d="M391 714q174 0 257 -72q89 -77 89 -284q0 -211 -90 -294q-84 -78 -256 -78q-173 0 -258 78q-89 83 -89 294q0 205 89 284q45 39 106 55.5t152 16.5zM533 356q0 37 -2 71q-2 59 -21 82q-16 17 -42 23t-77 5q-52 1 -78 -5t-42 -23q-8 -12 -14 -33q-9 -33 -9 -120
q0 -58 1 -77q5 -64 22 -87q13 -18 40.5 -24.5t79.5 -6.5q90 -3 119 31q8 11 14 35q9 36 9 129zM392 -50q47 0 62 -13.5t15 -57.5q0 -48 -15.5 -63.5t-61.5 -15.5q-45 0 -60 15.5t-15 63.5q0 44 15 57.5t60 13.5z" />
    <glyph glyph-name="uni1ECD" unicode="&#x1ecd;" 
d="M295 -14q-133 0 -194 60q-61 61 -61 214q0 151 62 210t193 59q133 0 195 -59t62 -210q0 -152 -62 -214q-62 -60 -195 -60zM295 389q-45 0 -59 -23q-13 -22 -13 -109q0 -85 14 -108t58 -23q45 0 59 23t14 108q0 86 -14 109t-59 23zM298 -50q47 0 62 -13.5t15 -57.5
q0 -48 -15.5 -63.5t-61.5 -15.5q-45 0 -60 15.5t-15 63.5q0 44 15 57.5t60 13.5z" />
    <glyph glyph-name="uni1ECE" unicode="&#x1ece;" horiz-adv-x="781" 
d="M391 714q174 0 257 -72q89 -77 89 -284q0 -211 -90 -294q-84 -78 -256 -78q-173 0 -258 78q-89 83 -89 294q0 205 89 284q45 39 106 55.5t152 16.5zM533 356q0 37 -2 71q-2 59 -21 82q-16 17 -42 23t-77 5q-52 1 -78 -5t-42 -23q-8 -12 -14 -33q-9 -33 -9 -120
q0 -58 1 -77q5 -64 22 -87q13 -18 40.5 -24.5t79.5 -6.5q90 -3 119 31q8 11 14 35q9 36 9 129zM391 727h-45q44 24 59.5 42t15.5 43q0 18 -11.5 25t-42.5 7q-45 0 -73 -22l-43 71q52 32 137 32q77 0 108 -19t31 -63q0 -39 -35 -70t-101 -46z" />
    <glyph glyph-name="uni1ECF" unicode="&#x1ecf;" 
d="M295 -14q-133 0 -194 60q-61 61 -61 214q0 151 62 210t193 59q133 0 195 -59t62 -210q0 -152 -62 -214q-62 -60 -195 -60zM295 389q-45 0 -59 -23q-13 -22 -13 -109q0 -85 14 -108t58 -23q45 0 59 23t14 108q0 86 -14 109t-59 23zM298 542h-45q44 27 59 46t15 46
q0 19 -11.5 27t-41.5 8q-44 0 -73 -24l-42 77q50 35 136 35q76 0 107 -21t31 -68q0 -42 -35 -75.5t-100 -50.5z" />
    <glyph glyph-name="uni1ED0" unicode="&#x1ed0;" horiz-adv-x="781" 
d="M391 714q174 0 257 -72q89 -77 89 -284q0 -211 -90 -294q-84 -78 -256 -78q-173 0 -258 78q-89 83 -89 294q0 205 89 284q45 39 106 55.5t152 16.5zM533 356q0 37 -2 71q-2 59 -21 82q-16 17 -42 23t-77 5q-52 1 -78 -5t-42 -23q-8 -12 -14 -33q-9 -33 -9 -120
q0 -58 1 -77q5 -64 22 -87q13 -18 40.5 -24.5t79.5 -6.5q90 -3 119 31q8 11 14 35q9 36 9 129zM596 727h-153l-61 49l-60 -49h-148l122 97h173zM575 943l-154 -100h-148l122 100h180z" />
    <glyph glyph-name="uni1ED1" unicode="&#x1ed1;" 
d="M295 -14q-133 0 -194 60q-61 61 -61 214q0 151 62 210t193 59q133 0 195 -59t62 -210q0 -152 -62 -214q-62 -60 -195 -60zM295 389q-45 0 -59 -23q-13 -22 -13 -109q0 -85 14 -108t58 -23q45 0 59 23t14 108q0 86 -14 109t-59 23zM503 568h-152l-61 66l-59 -66h-148
l122 129h172zM490 876l-156 -129h-150l124 129h182z" />
    <glyph glyph-name="uni1ED2" unicode="&#x1ed2;" horiz-adv-x="781" 
d="M391 714q174 0 257 -72q89 -77 89 -284q0 -211 -90 -294q-84 -78 -256 -78q-173 0 -258 78q-89 83 -89 294q0 205 89 284q45 39 106 55.5t152 16.5zM533 356q0 37 -2 71q-2 59 -21 82q-16 17 -42 23t-77 5q-52 1 -78 -5t-42 -23q-8 -12 -14 -33q-9 -33 -9 -120
q0 -58 1 -77q5 -64 22 -87q13 -18 40.5 -24.5t79.5 -6.5q90 -3 119 31q8 11 14 35q9 36 9 129zM601 727h-153l-61 49l-60 -49h-148l122 97h173zM396 943l122 -100h-147l-153 100h178z" />
    <glyph glyph-name="uni1ED3" unicode="&#x1ed3;" 
d="M295 -14q-133 0 -194 60q-61 61 -61 214q0 151 62 210t193 59q133 0 195 -59t62 -210q0 -152 -62 -214q-62 -60 -195 -60zM295 389q-45 0 -59 -23q-13 -22 -13 -109q0 -85 14 -108t58 -23q45 0 59 23t14 108q0 86 -14 109t-59 23zM499 568h-152l-61 66l-59 -66h-148
l122 129h172zM284 876l124 -129h-150l-156 129h182z" />
    <glyph glyph-name="uni1ED4" unicode="&#x1ed4;" horiz-adv-x="781" 
d="M391 714q174 0 257 -72q89 -77 89 -284q0 -211 -90 -294q-84 -78 -256 -78q-173 0 -258 78q-89 83 -89 294q0 205 89 284q45 39 106 55.5t152 16.5zM533 356q0 37 -2 71q-2 59 -21 82q-16 17 -42 23t-77 5q-52 1 -78 -5t-42 -23q-8 -12 -14 -33q-9 -33 -9 -120
q0 -58 1 -77q5 -64 22 -87q13 -18 40.5 -24.5t79.5 -6.5q90 -3 119 31q8 11 14 35q9 36 9 129zM393 833h-46q44 18 60 32t16 32q0 13 -12 19t-43 6q-43 0 -75 -17l-43 54q50 25 140 25q79 0 110.5 -14.5t31.5 -48.5q0 -30 -35.5 -53t-103.5 -35zM602 727h-153l-61 49
l-60 -49h-148l122 97h173z" />
    <glyph glyph-name="uni1ED5" unicode="&#x1ed5;" 
d="M295 -14q-133 0 -194 60q-61 61 -61 214q0 151 62 210t193 59q133 0 195 -59t62 -210q0 -152 -62 -214q-62 -60 -195 -60zM295 389q-45 0 -59 -23q-13 -22 -13 -109q0 -85 14 -108t58 -23q45 0 59 23t14 108q0 86 -14 109t-59 23zM303 712h-45q44 27 59 46t15 46
q0 19 -11.5 27t-41.5 8q-45 0 -73 -24l-42 77q50 35 136 35q76 0 107 -21t31 -68q0 -42 -35 -75.5t-100 -50.5zM511 568h-152l-61 66l-59 -66h-148l122 129h172z" />
    <glyph glyph-name="uni1ED6" unicode="&#x1ed6;" horiz-adv-x="781" 
d="M391 714q174 0 257 -72q89 -77 89 -284q0 -211 -90 -294q-84 -78 -256 -78q-173 0 -258 78q-89 83 -89 294q0 205 89 284q45 39 106 55.5t152 16.5zM533 356q0 37 -2 71q-2 59 -21 82q-16 17 -42 23t-77 5q-52 1 -78 -5t-42 -23q-8 -12 -14 -33q-9 -33 -9 -120
q0 -58 1 -77q5 -64 22 -87q13 -18 40.5 -24.5t79.5 -6.5q90 -3 119 31q8 11 14 35q9 36 9 129zM600 727h-153l-61 49l-60 -49h-148l122 97h173zM498 960l82 -50q-16 -31 -50 -50.5t-79 -19.5q-35 0 -77 15t-64 15q-26 0 -44 -30l-75 56q46 58 113 58q42 0 86 -15
q45 -14 62 -14t26.5 7t19.5 28z" />
    <glyph glyph-name="uni1ED7" unicode="&#x1ed7;" 
d="M295 -14q-133 0 -194 60q-61 61 -61 214q0 151 62 210t193 59q133 0 195 -59t62 -210q0 -152 -62 -214q-62 -60 -195 -60zM295 389q-45 0 -59 -23q-13 -22 -13 -109q0 -85 14 -108t58 -23q45 0 59 23t14 108q0 86 -14 109t-59 23zM503 568h-152l-61 66l-59 -66h-148
l122 129h172zM410 891l83 -67q-16 -42 -50.5 -68.5t-79.5 -26.5q-34 0 -79 20q-42 21 -64 21q-26 0 -44 -41l-76 75q46 79 114 79q43 0 88 -20q42 -19 62 -19q17 0 26.5 9.5t19.5 37.5z" />
    <glyph glyph-name="uni1ED8" unicode="&#x1ed8;" horiz-adv-x="781" 
d="M391 714q174 0 257 -72q89 -77 89 -284q0 -211 -90 -294q-84 -78 -256 -78q-173 0 -258 78q-89 83 -89 294q0 205 89 284q45 39 106 55.5t152 16.5zM533 356q0 37 -2 71q-2 59 -21 82q-16 17 -42 23t-77 5q-52 1 -78 -5t-42 -23q-8 -12 -14 -33q-9 -33 -9 -120
q0 -58 1 -77q5 -64 22 -87q13 -18 40.5 -24.5t79.5 -6.5q90 -3 119 31q8 11 14 35q9 36 9 129zM392 -50q47 0 62 -13.5t15 -57.5q0 -48 -15.5 -63.5t-61.5 -15.5q-45 0 -60 15.5t-15 63.5q0 44 15 57.5t60 13.5zM600 747h-152l-61 66l-59 -66h-148l122 129h172z" />
    <glyph glyph-name="uni1ED9" unicode="&#x1ed9;" 
d="M295 -14q-133 0 -194 60q-61 61 -61 214q0 151 62 210t193 59q133 0 195 -59t62 -210q0 -152 -62 -214q-62 -60 -195 -60zM295 389q-45 0 -59 -23q-13 -22 -13 -109q0 -85 14 -108t58 -23q45 0 59 23t14 108q0 86 -14 109t-59 23zM298 -50q47 0 62 -13.5t15 -57.5
q0 -48 -15.5 -63.5t-61.5 -15.5q-45 0 -60 15.5t-15 63.5q0 44 15 57.5t60 13.5zM506 568h-152l-61 66l-59 -66h-148l122 129h172z" />
    <glyph glyph-name="uni1EDA" unicode="&#x1eda;" horiz-adv-x="781" 
d="M724 595v101h121v-96q0 -28 -20 -56t-53 -43h-49q14 -67 14 -143q0 -211 -90 -294q-84 -78 -256 -78q-173 0 -258 78q-89 83 -89 294q0 205 89 284q45 39 106 55.5t152 16.5q144 0 222.5 -46.5t107.5 -157.5q54 38 54 85h-51zM533 356q0 37 -2 71q-2 59 -21 82
q-16 17 -42 23t-77 5q-52 1 -78 -5t-42 -23q-8 -12 -14 -33q-9 -33 -9 -120q0 -58 1 -77q5 -64 22 -87q13 -18 40.5 -24.5t79.5 -6.5q90 -3 119 31q8 11 14 35q9 36 9 129zM570 876l-156 -129h-150l124 129h182z" />
    <glyph glyph-name="uni1EDB" unicode="&#x1edb;" 
d="M559 413v101h121v-96q0 -28 -20 -56t-53 -43h-58q3 -27 3 -59q0 -152 -62 -214q-62 -60 -195 -60t-194 60q-61 61 -61 214q0 151 62 210t193 59q121 0 181.5 -47t72.5 -158q61 39 61 89h-51zM295 389q-45 0 -59 -23q-13 -22 -13 -109q0 -85 14 -108t58 -23q45 0 59 23
t14 108q0 86 -14 109t-59 23zM489 697l-156 -129h-150l124 129h182z" />
    <glyph glyph-name="uni1EDC" unicode="&#x1edc;" horiz-adv-x="781" 
d="M724 595v101h121v-96q0 -28 -20 -56t-53 -43h-49q14 -67 14 -143q0 -211 -90 -294q-84 -78 -256 -78q-173 0 -258 78q-89 83 -89 294q0 205 89 284q45 39 106 55.5t152 16.5q144 0 222.5 -46.5t107.5 -157.5q54 38 54 85h-51zM533 356q0 37 -2 71q-2 59 -21 82
q-16 17 -42 23t-77 5q-52 1 -78 -5t-42 -23q-8 -12 -14 -33q-9 -33 -9 -120q0 -58 1 -77q5 -64 22 -87q13 -18 40.5 -24.5t79.5 -6.5q90 -3 119 31q8 11 14 35q9 36 9 129zM391 876l124 -129h-150l-156 129h182z" />
    <glyph glyph-name="uni1EDD" unicode="&#x1edd;" 
d="M559 413v101h121v-96q0 -28 -20 -56t-53 -43h-58q3 -27 3 -59q0 -152 -62 -214q-62 -60 -195 -60t-194 60q-61 61 -61 214q0 151 62 210t193 59q121 0 181.5 -47t72.5 -158q61 39 61 89h-51zM295 389q-45 0 -59 -23q-13 -22 -13 -109q0 -85 14 -108t58 -23q45 0 59 23
t14 108q0 86 -14 109t-59 23zM305 697l124 -129h-150l-156 129h182z" />
    <glyph glyph-name="uni1EDE" unicode="&#x1ede;" horiz-adv-x="781" 
d="M724 595v101h121v-96q0 -28 -20 -56t-53 -43h-49q14 -67 14 -143q0 -211 -90 -294q-84 -78 -256 -78q-173 0 -258 78q-89 83 -89 294q0 205 89 284q45 39 106 55.5t152 16.5q144 0 222.5 -46.5t107.5 -157.5q54 38 54 85h-51zM533 356q0 37 -2 71q-2 59 -21 82
q-16 17 -42 23t-77 5q-52 1 -78 -5t-42 -23q-8 -12 -14 -33q-9 -33 -9 -120q0 -58 1 -77q5 -64 22 -87q13 -18 40.5 -24.5t79.5 -6.5q90 -3 119 31q8 11 14 35q9 36 9 129zM405 725h-45q44 24 59.5 42t15.5 43q0 18 -11.5 25t-42.5 7q-45 0 -73 -22l-43 71q52 32 137 32
q77 0 108 -19t31 -63q0 -39 -35 -70t-101 -46z" />
    <glyph glyph-name="uni1EDF" unicode="&#x1edf;" 
d="M559 413v101h121v-96q0 -28 -20 -56t-53 -43h-58q3 -27 3 -59q0 -152 -62 -214q-62 -60 -195 -60t-194 60q-61 61 -61 214q0 151 62 210t193 59q121 0 181.5 -47t72.5 -158q61 39 61 89h-51zM295 389q-45 0 -59 -23q-13 -22 -13 -109q0 -85 14 -108t58 -23q45 0 59 23
t14 108q0 86 -14 109t-59 23zM305 542h-45q44 27 59 46t15 46q0 19 -11.5 27t-41.5 8q-45 0 -73 -24l-42 77q50 35 136 35q76 0 107 -21t31 -68q0 -42 -35 -75.5t-100 -50.5z" />
    <glyph glyph-name="uni1EE0" unicode="&#x1ee0;" horiz-adv-x="781" 
d="M724 595v101h121v-96q0 -28 -20 -56t-53 -43h-49q14 -67 14 -143q0 -211 -90 -294q-84 -78 -256 -78q-173 0 -258 78q-89 83 -89 294q0 205 89 284q45 39 106 55.5t152 16.5q144 0 222.5 -46.5t107.5 -157.5q54 38 54 85h-51zM533 356q0 37 -2 71q-2 59 -21 82
q-16 17 -42 23t-77 5q-52 1 -78 -5t-42 -23q-8 -12 -14 -33q-9 -33 -9 -120q0 -58 1 -77q5 -64 22 -87q13 -18 40.5 -24.5t79.5 -6.5q90 -3 119 31q8 11 14 35q9 36 9 129zM507 891l83 -67q-16 -42 -50.5 -68.5t-79.5 -26.5q-34 0 -79 20q-42 21 -64 21q-26 0 -44 -41
l-76 75q46 79 114 79q43 0 88 -20q42 -19 62 -19q17 0 26.5 9.5t19.5 37.5z" />
    <glyph glyph-name="uni1EE1" unicode="&#x1ee1;" 
d="M559 413v101h121v-96q0 -28 -20 -56t-53 -43h-58q3 -27 3 -59q0 -152 -62 -214q-62 -60 -195 -60t-194 60q-61 61 -61 214q0 151 62 210t193 59q121 0 181.5 -47t72.5 -158q61 39 61 89h-51zM412 715l83 -67q-16 -42 -50.5 -68.5t-79.5 -26.5q-34 0 -79 20q-42 21 -64 21
q-26 0 -44 -41l-76 75q46 79 114 79q43 0 88 -20q42 -19 62 -19q17 0 26.5 9.5t19.5 37.5zM295 389q-45 0 -59 -23q-13 -22 -13 -109q0 -85 14 -108t58 -23q45 0 59 23t14 108q0 86 -14 109t-59 23z" />
    <glyph glyph-name="uni1EE2" unicode="&#x1ee2;" horiz-adv-x="781" 
d="M724 595v101h121v-96q0 -28 -20 -56t-53 -43h-49q14 -67 14 -143q0 -211 -90 -294q-84 -78 -256 -78q-173 0 -258 78q-89 83 -89 294q0 205 89 284q45 39 106 55.5t152 16.5q144 0 222.5 -46.5t107.5 -157.5q54 38 54 85h-51zM533 356q0 37 -2 71q-2 59 -21 82
q-16 17 -42 23t-77 5q-52 1 -78 -5t-42 -23q-8 -12 -14 -33q-9 -33 -9 -120q0 -58 1 -77q5 -64 22 -87q13 -18 40.5 -24.5t79.5 -6.5q90 -3 119 31q8 11 14 35q9 36 9 129zM392 -50q47 0 62 -13.5t15 -57.5q0 -48 -15.5 -63.5t-61.5 -15.5q-45 0 -60 15.5t-15 63.5
q0 44 15 57.5t60 13.5z" />
    <glyph glyph-name="uni1EE3" unicode="&#x1ee3;" 
d="M559 413v101h121v-96q0 -28 -20 -56t-53 -43h-58q3 -27 3 -59q0 -152 -62 -214q-62 -60 -195 -60t-194 60q-61 61 -61 214q0 151 62 210t193 59q121 0 181.5 -47t72.5 -158q61 39 61 89h-51zM295 389q-45 0 -59 -23q-13 -22 -13 -109q0 -85 14 -108t58 -23q45 0 59 23
t14 108q0 86 -14 109t-59 23zM298 -50q47 0 62 -13.5t15 -57.5q0 -48 -15.5 -63.5t-61.5 -15.5q-45 0 -60 15.5t-15 63.5q0 44 15 57.5t60 13.5z" />
    <glyph glyph-name="uni1EE4" unicode="&#x1ee4;" horiz-adv-x="747" 
d="M486 222v475h192v-517q0 -112 -85 -155q-78 -39 -220 -39q-155 0 -229.5 44.5t-74.5 149.5v517h192v-475q0 -31 25 -44t87 -13t87.5 13.5t25.5 43.5zM375 -50q47 0 62 -13.5t15 -57.5q0 -48 -15.5 -63.5t-61.5 -15.5q-45 0 -60 15.5t-15 63.5q0 44 15 57.5t60 13.5z" />
    <glyph glyph-name="uni1EE5" unicode="&#x1ee5;" horiz-adv-x="612" 
d="M367 155v359h182v-480q-144 -48 -278 -48q-111 0 -162.5 57.5t-51.5 188.5v282h182v-271q0 -57 14 -76t58 -19q20 0 56 7zM308 -50q47 0 62 -13.5t15 -57.5q0 -48 -15.5 -63.5t-61.5 -15.5q-45 0 -60 15.5t-15 63.5q0 44 15 57.5t60 13.5z" />
    <glyph glyph-name="uni1EE6" unicode="&#x1ee6;" horiz-adv-x="747" 
d="M486 222v475h192v-517q0 -112 -85 -155q-78 -39 -220 -39q-155 0 -229.5 44.5t-74.5 149.5v517h192v-475q0 -31 25 -44t87 -13t87.5 13.5t25.5 43.5zM377 715h-45q44 24 59.5 42t15.5 43q0 18 -11.5 25t-42.5 7q-45 0 -73 -22l-43 71q52 32 137 32q77 0 108 -19t31 -63
q0 -39 -35 -70t-101 -46z" />
    <glyph glyph-name="uni1EE7" unicode="&#x1ee7;" horiz-adv-x="612" 
d="M367 155v359h182v-480q-144 -48 -278 -48q-111 0 -162.5 57.5t-51.5 188.5v282h182v-271q0 -57 14 -76t58 -19q20 0 56 7zM308 542h-45q44 27 59 46t15 46q0 19 -11.5 27t-41.5 8q-44 0 -73 -24l-42 77q50 35 136 35q76 0 107 -21t31 -68q0 -42 -35 -75.5t-100 -50.5z
" />
    <glyph glyph-name="uni1EE8" unicode="&#x1ee8;" horiz-adv-x="747" 
d="M486 222v475h192v-517q0 -112 -85 -155q-78 -39 -220 -39q-155 0 -229.5 44.5t-74.5 149.5v517h192v-475q0 -31 25 -44t87 -13t87.5 13.5t25.5 43.5zM723 596v101h121v-96q0 -28 -20 -56t-53 -43h-66q69 40 69 94h-51zM586 876l-156 -129h-150l124 129h182z" />
    <glyph glyph-name="uni1EE9" unicode="&#x1ee9;" horiz-adv-x="612" 
d="M367 155v359h182v-480q-144 -48 -278 -48q-111 0 -162.5 57.5t-51.5 188.5v282h182v-271q0 -57 14 -76t58 -19q20 0 56 7zM587 413v101h121v-96q0 -28 -20 -56t-53 -43h-66q69 41 69 94h-51zM489 697l-156 -129h-150l124 129h182z" />
    <glyph glyph-name="uni1EEA" unicode="&#x1eea;" horiz-adv-x="747" 
d="M486 222v475h192v-517q0 -112 -85 -155q-78 -39 -220 -39q-155 0 -229.5 44.5t-74.5 149.5v517h192v-475q0 -31 25 -44t87 -13t87.5 13.5t25.5 43.5zM723 596v101h121v-96q0 -28 -20 -56t-53 -43h-66q69 40 69 94h-51zM359 876l124 -129h-150l-156 129h182z" />
    <glyph glyph-name="uni1EEB" unicode="&#x1eeb;" horiz-adv-x="612" 
d="M367 155v359h182v-480q-144 -48 -278 -48q-111 0 -162.5 57.5t-51.5 188.5v282h182v-271q0 -57 14 -76t58 -19q20 0 56 7zM587 413v101h121v-96q0 -28 -20 -56t-53 -43h-66q69 41 69 94h-51zM315 697l124 -129h-150l-156 129h182z" />
    <glyph glyph-name="uni1EEC" unicode="&#x1eec;" horiz-adv-x="747" 
d="M486 222v475h192v-517q0 -112 -85 -155q-78 -39 -220 -39q-155 0 -229.5 44.5t-74.5 149.5v517h192v-475q0 -31 25 -44t87 -13t87.5 13.5t25.5 43.5zM723 596v101h121v-96q0 -28 -20 -56t-53 -43h-66q69 40 69 94h-51zM381 715h-45q44 24 59.5 42t15.5 43q0 18 -11.5 25
t-42.5 7q-45 0 -73 -22l-43 71q52 32 137 32q77 0 108 -19t31 -63q0 -39 -35 -70t-101 -46z" />
    <glyph glyph-name="uni1EED" unicode="&#x1eed;" horiz-adv-x="612" 
d="M367 155v359h182v-480q-144 -48 -278 -48q-111 0 -162.5 57.5t-51.5 188.5v282h182v-271q0 -57 14 -76t58 -19q20 0 56 7zM587 413v101h121v-96q0 -28 -20 -56t-53 -43h-66q69 41 69 94h-51zM308 542h-45q44 27 59 46t15 46q0 19 -11.5 27t-41.5 8q-44 0 -73 -24l-42 77
q50 35 136 35q76 0 107 -21t31 -68q0 -42 -35 -75.5t-100 -50.5z" />
    <glyph glyph-name="uni1EEE" unicode="&#x1eee;" horiz-adv-x="747" 
d="M486 222v475h192v-517q0 -112 -85 -155q-78 -39 -220 -39q-155 0 -229.5 44.5t-74.5 149.5v517h192v-475q0 -31 25 -44t87 -13t87.5 13.5t25.5 43.5zM723 596v101h121v-96q0 -28 -20 -56t-53 -43h-66q69 40 69 94h-51zM491 891l83 -67q-16 -42 -50.5 -68.5t-79.5 -26.5
q-34 0 -79 20q-42 21 -64 21q-26 0 -44 -41l-76 75q46 79 114 79q43 0 88 -20q42 -19 62 -19q17 0 26.5 9.5t19.5 37.5z" />
    <glyph glyph-name="uni1EEF" unicode="&#x1eef;" horiz-adv-x="612" 
d="M367 155v359h182v-480q-144 -48 -278 -48q-111 0 -162.5 57.5t-51.5 188.5v282h182v-271q0 -57 14 -76t58 -19q20 0 56 7zM587 413v101h121v-96q0 -28 -20 -56t-53 -43h-66q69 41 69 94h-51zM417 715l83 -67q-16 -42 -50.5 -68.5t-79.5 -26.5q-34 0 -79 20q-42 21 -64 21
q-26 0 -44 -41l-76 75q46 79 114 79q43 0 88 -20q42 -19 62 -19q17 0 26.5 9.5t19.5 37.5z" />
    <glyph glyph-name="uni1EF0" unicode="&#x1ef0;" horiz-adv-x="747" 
d="M486 222v475h192v-517q0 -112 -85 -155q-78 -39 -220 -39q-155 0 -229.5 44.5t-74.5 149.5v517h192v-475q0 -31 25 -44t87 -13t87.5 13.5t25.5 43.5zM723 596v101h121v-96q0 -28 -20 -56t-53 -43h-66q69 40 69 94h-51zM375 -50q47 0 62 -13.5t15 -57.5q0 -48 -15.5 -63.5
t-61.5 -15.5q-45 0 -60 15.5t-15 63.5q0 44 15 57.5t60 13.5z" />
    <glyph glyph-name="uni1EF1" unicode="&#x1ef1;" horiz-adv-x="612" 
d="M367 155v359h182v-480q-144 -48 -278 -48q-111 0 -162.5 57.5t-51.5 188.5v282h182v-271q0 -57 14 -76t58 -19q20 0 56 7zM587 413v101h121v-96q0 -28 -20 -56t-53 -43h-66q69 41 69 94h-51zM308 -50q47 0 62 -13.5t15 -57.5q0 -48 -15.5 -63.5t-61.5 -15.5
q-45 0 -60 15.5t-15 63.5q0 44 15 57.5t60 13.5z" />
    <glyph glyph-name="Ygrave" unicode="&#x1ef2;" horiz-adv-x="669" 
d="M-71 697h254l165 -227q111 162 148 227h237q-102 -162 -291 -430v-267h-191v266q-229 319 -322 431zM346 876l124 -129h-150l-156 129h182z" />
    <glyph glyph-name="ygrave" unicode="&#x1ef3;" horiz-adv-x="513" 
d="M350 514h180q-105 -371 -264 -706h-200q40 68 84 166q-60 218 -174 540h184q50 -140 97 -326q60 182 93 326zM263 697l124 -129h-150l-156 129h182z" />
    <glyph glyph-name="uni1EF4" unicode="&#x1ef4;" horiz-adv-x="669" 
d="M-71 697h254l165 -227q111 162 148 227h237q-102 -162 -291 -430v-267h-191v266q-229 319 -322 431zM336 -50q47 0 62 -13.5t15 -57.5q0 -48 -15.5 -63.5t-61.5 -15.5q-45 0 -60 15.5t-15 63.5q0 44 15 57.5t60 13.5z" />
    <glyph glyph-name="uni1EF5" unicode="&#x1ef5;" horiz-adv-x="513" 
d="M350 514h180q-105 -371 -264 -706h-200q40 68 84 166q-60 218 -174 540h184q50 -140 97 -326q60 182 93 326zM427 -50q47 0 62 -13.5t15 -57.5q0 -48 -15.5 -63.5t-61.5 -15.5q-45 0 -60 15.5t-15 63.5q0 44 15 57.5t60 13.5z" />
    <glyph glyph-name="uni1EF6" unicode="&#x1ef6;" horiz-adv-x="669" 
d="M-71 697h254l165 -227q111 162 148 227h237q-102 -162 -291 -430v-267h-191v266q-229 319 -322 431zM335 715h-45q44 24 59.5 42t15.5 43q0 18 -11.5 25t-42.5 7q-45 0 -73 -22l-43 71q52 32 137 32q77 0 108 -19t31 -63q0 -39 -35 -70t-101 -46z" />
    <glyph glyph-name="uni1EF7" unicode="&#x1ef7;" horiz-adv-x="513" 
d="M259 542h-45q44 27 59 46t15 46q0 19 -11.5 27t-41.5 8q-45 0 -73 -24l-42 77q50 35 136 35q76 0 107 -21t31 -68q0 -42 -35 -75.5t-100 -50.5zM350 514h180q-105 -371 -264 -706h-200q40 68 84 166q-60 218 -174 540h184q50 -140 97 -326q60 182 93 326z" />
    <glyph glyph-name="uni1EF8" unicode="&#x1ef8;" horiz-adv-x="669" 
d="M-71 697h254l165 -227q111 162 148 227h237q-102 -162 -291 -430v-267h-191v266q-229 319 -322 431zM458 891l83 -67q-16 -42 -50.5 -68.5t-79.5 -26.5q-34 0 -79 20q-42 21 -64 21q-26 0 -44 -41l-76 75q46 79 114 79q43 0 88 -20q42 -19 62 -19q17 0 26.5 9.5
t19.5 37.5z" />
    <glyph glyph-name="uni1EF9" unicode="&#x1ef9;" horiz-adv-x="513" 
d="M374 715l83 -67q-16 -42 -50.5 -68.5t-79.5 -26.5q-34 0 -79 20q-42 21 -64 21q-26 0 -44 -41l-76 75q46 79 114 79q43 0 88 -20q42 -19 62 -19q17 0 26.5 9.5t19.5 37.5zM350 514h180q-105 -371 -264 -706h-200q40 68 84 166q-60 218 -174 540h184q50 -140 97 -326
q60 182 93 326z" />
    <glyph glyph-name="endash" unicode="&#x2013;" horiz-adv-x="613" 
d="M568 200h-523v176h523v-176z" />
    <glyph glyph-name="emdash" unicode="&#x2014;" horiz-adv-x="893" 
d="M848 200h-803v176h803v-176z" />
    <glyph glyph-name="quoteleft" unicode="&#x2018;" horiz-adv-x="295" 
d="M195 505h-171l109 267h140z" />
    <glyph glyph-name="quoteright" unicode="&#x2019;" horiz-adv-x="295" 
d="M101 762h171l-109 -267h-140z" />
    <glyph glyph-name="quotesinglbase" unicode="&#x201a;" horiz-adv-x="275" 
d="M91 108h171l-109 -267h-140z" />
    <glyph glyph-name="quotedblleft" unicode="&#x201c;" horiz-adv-x="523" 
d="M195 505h-171l109 267h140zM421 505h-171l109 267h140z" />
    <glyph glyph-name="quotedblright" unicode="&#x201d;" horiz-adv-x="523" 
d="M328 764h171l-109 -267h-140zM102 764h171l-109 -267h-140z" />
    <glyph glyph-name="quotedblbase" unicode="&#x201e;" horiz-adv-x="523" 
d="M328 98h171l-109 -267h-140zM102 98h171l-109 -267h-140z" />
    <glyph glyph-name="dagger" unicode="&#x2020;" horiz-adv-x="473" 
d="M163 440h-133v147h133v133h146v-133h134v-147h-134v-203h-146v203z" />
    <glyph glyph-name="daggerdbl" unicode="&#x2021;" horiz-adv-x="473" 
d="M163 231h-133v147h133v62h-133v147h133v133h146v-133h134v-147h-134v-62h134v-147h-134v-133h-146v133z" />
    <glyph glyph-name="bullet" unicode="&#x2022;" 
d="M295 56q-133 0 -194 60q-61 61 -61 214q0 151 62 210t193 59q133 0 195 -59t62 -210q0 -152 -62 -214q-62 -60 -195 -60z" />
    <glyph glyph-name="ellipsis" unicode="&#x2026;" horiz-adv-x="1071" 
d="M184 184q62 0 84 -18q22 -16 22 -74q0 -63 -22 -82t-84 -19q-61 0 -83 19q-21 20 -21 82q0 58 21 74q23 18 83 18zM533 184q61 0 84 -18q22 -16 22 -74q0 -63 -22 -82t-84 -19q-61 0 -83 19q-21 20 -21 82q0 58 21 74q22 18 83 18zM885 184q61 0 84 -18q22 -16 22 -74
q0 -63 -22 -82t-84 -19q-61 0 -83 19q-21 19 -21 82q0 58 21 74q22 18 83 18z" />
    <glyph glyph-name="perthousand" unicode="&#x2030;" horiz-adv-x="1500" 
d="M213 0l462 697h163l-463 -697h-162zM441 484q0 -137 -46 -189q-47 -51 -165 -51t-165 51q-45 51 -45 189q0 134 45 182t165 48t165 -48q46 -47 46 -182zM230 369q34 0 43 18q9 19 9 97q0 72 -9 89q-9 18 -43 18q-35 0 -44 -18q-9 -17 -9 -89q0 -76 9 -96q9 -19 44 -19z
M1037 226q0 -137 -46 -189q-47 -51 -165 -51t-165 51q-45 51 -45 189q0 134 45 182t165 48t165 -48q46 -47 46 -182zM826 111q34 0 43 18q9 19 9 97q0 72 -9 89q-9 18 -43 18q-35 0 -44 -18q-9 -17 -9 -89q0 -76 9 -96q9 -19 44 -19zM1480 226q0 -137 -46 -189
q-46 -51 -165 -51t-165 51q-45 51 -45 189q0 134 45 182t165 48t165 -48q46 -47 46 -182zM1269 111q34 0 43 18q9 19 9 97q0 72 -9 89q-9 18 -43 18q-35 0 -44 -18q-9 -17 -9 -89q0 -76 9 -96q9 -19 44 -19z" />
    <glyph glyph-name="guilsinglleft" unicode="&#x2039;" horiz-adv-x="416" 
d="M292 616l104 -103l-136 -186l136 -189l-103 -105l-273 292z" />
    <glyph glyph-name="guilsinglright" unicode="&#x203a;" horiz-adv-x="416" 
d="M124 34l-104 103l136 186l-136 189l103 105l273 -292z" />
    <glyph glyph-name="fraction" unicode="&#x2044;" horiz-adv-x="658" 
d="M13 0l482 697h163l-483 -697h-162z" />
    <glyph glyph-name="fraction" unicode="&#x2215;" horiz-adv-x="658" 
d="M13 0l482 697h163l-483 -697h-162z" />
    <glyph glyph-name="dong" unicode="&#x20ab;" horiz-adv-x="604" 
d="M358 567h-73v109h73v46h183v-46h52v-109h-52v-546q-99 -35 -241 -35q-138 0 -200 60q-60 60 -60 214q0 269 213 269q54 0 105 -16v54zM358 146v208q0 11 -17.5 19.5t-43.5 8.5q-42 0 -58 -25.5t-16 -93.5q0 -79 16 -102q17 -24 61 -24q36 0 58 9zM541 -213h-493v176h493
v-176z" />
    <glyph glyph-name="Euro" unicode="&#x20ac;" horiz-adv-x="615" 
d="M30 328h56v50h-76l20 111h65q19 126 90 176q70 49 215 49q114 0 205 -24l-34 -168q-54 17 -126 17t-107 -10.5t-46 -39.5h186l-20 -111h-178v-50h168l-20 -111h-136q9 -31 44.5 -42.5t108.5 -11.5q72 0 126 17l34 -172q-89 -22 -205 -22q-142 0 -214 51q-72 53 -91 180
h-85z" />
    <glyph glyph-name="afii61352" unicode="&#x2116;" horiz-adv-x="1251" 
d="M553 697h189v-697h-237q-104 193 -243 427v-427h-186v697h247q118 -200 230 -415v415zM1191 61h-381v136h381v-136zM1211 484q0 -137 -46 -189q-47 -51 -165 -51t-165 51q-45 51 -45 189q0 134 45 182t165 48t165 -48q46 -47 46 -182zM1000 369q34 0 43 18q9 20 9 97
q0 72 -9 89q-9 18 -43 18q-35 0 -44 -18q-9 -17 -9 -89q0 -76 9 -96q9 -19 44 -19z" />
    <glyph glyph-name="trademark" unicode="&#x2122;" horiz-adv-x="921" 
d="M243 588v-260h-122v260h-121v109h364v-109h-121zM401 697h149l91 -192l86 192h144v-369h-118v196l-82 -168h-77l-75 168v-196h-118v369z" />
    <glyph glyph-name="estimated" unicode="&#x212e;" horiz-adv-x="732" 
d="M572 180l34 -172q-89 -22 -205 -22q-180 0 -269 83q-88 82 -88 289t87 284q82 72 240 72q178 0 255.5 -107.5t66.5 -338.5h-443q6 -69 37 -88t114 -19q34 0 91 6q59 6 80 13zM371 537q-64 0 -90 -17q-24 -17 -30 -76h239q-6 60 -31 76q-25 17 -88 17z" />
    <glyph glyph-name="arrowleft" unicode="&#x2190;" horiz-adv-x="792" 
d="M547 98l-134 -129l-403 388l403 389l134 -129l-179 -172h414v-175h-414z" />
    <glyph glyph-name="arrowup" unicode="&#x2191;" horiz-adv-x="797" 
d="M139 206l-129 134l388 403l389 -403l-129 -134l-172 179v-414h-175v414z" />
    <glyph glyph-name="arrowright" unicode="&#x2192;" horiz-adv-x="792" 
d="M245 616l134 129l403 -388l-403 -389l-134 129l179 172h-414v175h414z" />
    <glyph glyph-name="arrowdown" unicode="&#x2193;" horiz-adv-x="797" 
d="M658 508l129 -134l-388 -403l-389 403l129 134l172 -179v414h175v-414z" />
    <glyph glyph-name="partialdiff" unicode="&#x2202;" horiz-adv-x="630" 
d="M153 697h229q108 -114 160.5 -228t52.5 -247q0 -95 -22 -143q-21 -49 -81.5 -72.5t-173.5 -23.5q-157 0 -216 50q-58 49 -58 190q0 122 55 170q55 49 206 49h38q-53 102 -190 255zM333 281q-59 0 -76 -11q-15 -10 -15 -51q0 -37 14.5 -48.5t61.5 -11.5q48 0 60 15
q13 14 13 64q0 24 -2 42q-13 1 -56 1z" />
    <glyph glyph-name="product" unicode="&#x220f;" horiz-adv-x="759" 
d="M493 519h-226v-519h-191v697h607v-697h-190v519z" />
    <glyph glyph-name="summation" unicode="&#x2211;" horiz-adv-x="636" 
d="M618 0h-599v27q81 122 193 323q-107 176 -182 319v28h588v-168h-287q22 -40 107 -183q-69 -111 -115 -178h295v-168z" />
    <glyph glyph-name="minus" unicode="&#x2212;" horiz-adv-x="543" 
d="M518 278h-493v176h493v-176z" />
    <glyph glyph-name="radical" unicode="&#x221a;" horiz-adv-x="615" 
d="M0 330v184h203q50 -140 97 -326q123 376 155 509h180q-42 -140 -115 -353q-72 -213 -124 -344h-214q-50 176 -100 330h-82z" />
    <glyph glyph-name="infinity" unicode="&#x221e;" horiz-adv-x="775" 
d="M317 352q0 34 -14.5 48t-50.5 14q-39 0 -51 -13t-12 -49q0 -37 12 -50t51 -13q36 0 50.5 14.5t14.5 48.5zM388 253q-8 -76 -46.5 -104.5t-124.5 -28.5q-56 0 -89 9t-57 33q-46 49 -46 190q0 143 46 189q24 24 57 33t89 9q86 0 124.5 -28.5t46.5 -104.5q7 76 45.5 104.5
t124.5 28.5q56 0 89 -9t57 -33q46 -46 46 -189q0 -141 -46 -190q-24 -24 -57 -33t-89 -9q-86 0 -124.5 28.5t-45.5 104.5zM458 351q0 -34 14.5 -48t50.5 -14q39 0 51 13t12 49q0 37 -12 50t-51 13q-36 0 -50.5 -14.5t-14.5 -48.5z" />
    <glyph glyph-name="integral" unicode="&#x222b;" horiz-adv-x="324" 
d="M74 0l1 534q0 196 205 196q103 0 177 -28l-38 -139q-44 14 -97 14q-36 0 -50 -13t-14 -44v-520h-1q-1 -74 -36.5 -121.5t-83.5 -64.5t-110 -17q-102 0 -180 25l29 131q59 -17 126 -17q72 0 72 64z" />
    <glyph glyph-name="approxequal" unicode="&#x2248;" horiz-adv-x="543" 
d="M426 325l112 -91q-21 -56 -67.5 -92t-107.5 -36q-34 -1 -70.5 20t-68.5 42t-54 20q-19 0 -32.5 -12t-27.5 -43l-102 101q63 107 154 107q39 1 79.5 -19.5t72.5 -41t50 -19.5q23 0 35.5 13t26.5 51zM426 565l112 -91q-21 -56 -67.5 -92t-107.5 -36q-34 -1 -70.5 20
t-68.5 42t-54 20q-19 0 -32.5 -12t-27.5 -43l-102 101q63 107 154 107q39 1 79.5 -19.5t72.5 -41t50 -19.5q23 0 35.5 13t26.5 51z" />
    <glyph glyph-name="notequal" unicode="&#x2260;" horiz-adv-x="543" 
d="M310 620l33 67h172l-33 -67h36v-176h-123l-75 -153h198v-176h-284l-35 -71h-172l35 71h-37v176h123l75 153h-198v176h285z" />
    <glyph glyph-name="lessequal" unicode="&#x2264;" horiz-adv-x="543" 
d="M518 -2h-493v176h493v-176zM403 737l94 -115l-216 -160l216 -163l-93 -116l-363 240v75z" />
    <glyph glyph-name="greaterequal" unicode="&#x2265;" horiz-adv-x="543" 
d="M26 174h493v-176h-493v176zM47 299l216 163l-216 160l94 115l362 -239v-75l-363 -240z" />
    <glyph glyph-name="lozenge" unicode="&#x25ca;" horiz-adv-x="696" 
d="M9 252q99 245 202 445h291q76 -207 188 -445q-116 -246 -188 -444h-291q-94 181 -202 444zM333 -59h25q6 19 65 155q46 103 68 156q-7 19 -68 157q-59 136 -65 155h-25q-86 -187 -133 -312q42 -110 133 -311z" />
    <glyph glyph-name="dotlessj" unicode="&#xf6be;" horiz-adv-x="307" 
d="M63 514h183v-507q0 -116 -58 -162q-57 -48 -196 -48v146q71 0 71 58v513z" />
    <glyph glyph-name="commaaccent" unicode="&#xf6c3;" horiz-adv-x="255" 
d="M132 -51h184l-114 -167h-142z" />
    <glyph glyph-name="Acute" unicode="&#xf6c9;" horiz-adv-x="469" 
d="M410 876l-156 -129h-150l124 129h182z" />
    <glyph glyph-name="Caron" unicode="&#xf6ca;" horiz-adv-x="641" 
d="M141 876h152l61 -66l59 66h148l-122 -129h-172z" />
    <glyph glyph-name="Dieresis" unicode="&#xf6cb;" horiz-adv-x="526" 
d="M144 881q47 0 62.5 -14t15.5 -58q0 -48 -16 -64t-62 -16t-61.5 16t-15.5 64q0 44 15.5 58t61.5 14zM382 881q46 0 61.5 -14t15.5 -58q0 -48 -15.5 -64t-61.5 -16q-47 0 -62.5 15.5t-15.5 64.5q0 45 15 58.5t63 13.5z" />
    <glyph glyph-name="Grave" unicode="&#xf6ce;" horiz-adv-x="469" 
d="M286 876l124 -129h-150l-156 129h182z" />
    <glyph glyph-name="Hungarumlaut" unicode="&#xf6cf;" horiz-adv-x="606" 
d="M150 747l97 129h143l-122 -129h-118zM340 747l97 129h143l-122 -129h-118z" />
    <glyph glyph-name="Macron" unicode="&#xf6d0;" horiz-adv-x="314" 
d="M415 737h-305v122h305v-122z" />
    <glyph glyph-name="Lslashsmall" unicode="&#xf6f9;" horiz-adv-x="464" 
d="M331 324l-85 -69v-93h223v-162h-406v107l-36 -29v144l36 29v263h183v-114l85 70v-146z" />
    <glyph glyph-name="OEsmall" unicode="&#xf6fa;" horiz-adv-x="802" 
d="M414 514h358v-142h-234q10 -27 11 -45h156v-134h-156q-1 -23 -12 -51h235v-142h-362q-48 -14 -115 -14q-133 0 -194 60q-61 61 -61 214q0 151 62 210t193 59q68 0 119 -15zM295 389q-45 0 -59 -23q-13 -22 -13 -109q0 -85 14 -108t58 -23q45 0 59 23t14 108q0 86 -14 109
t-59 23z" />
    <glyph glyph-name="Scaronsmall" unicode="&#xf6fd;" horiz-adv-x="478" 
d="M443 500l-32 -132q-82 20 -153 20q-32 0 -43 -5t-11 -23q0 -15 13 -19q19 -6 70 -13q92 -14 128 -47q39 -34 39 -113q0 -182 -241 -182q-107 0 -182 28l33 135q72 -19 140 -19q44 0 60 5.5t16 23.5q0 15 -18 21.5t-77 12.5q-84 8 -119.5 42t-35.5 113q0 181 236 181
q99 0 177 -29zM39 697h152l61 -66l59 66h148l-122 -129h-172z" />
    <glyph glyph-name="Zcaronsmall" unicode="&#xf6ff;" horiz-adv-x="499" 
d="M19 358v156h477v-25q-86 -151 -215 -333h199v-156h-479v24q59 83 121 179q74 114 95 155h-198zM44 697h152l61 -66l59 66h148l-122 -129h-172z" />
    <glyph glyph-name="exclamsmall" unicode="&#xf721;" horiz-adv-x="324" 
d="M94 243l-31 271h197l-35 -271h-131zM161 179q61 0 84 -18q22 -16 22 -74q0 -63 -22 -82t-84 -19q-61 0 -83 19q-21 20 -21 82q0 57 21 74q22 18 83 18z" />
    <glyph glyph-name="ampersandsmall" unicode="&#xf726;" horiz-adv-x="748" 
d="M527 299h200q0 -93 -98 -179q54 -56 98 -120h-200q-12 18 -29 37q-116 -51 -228 -51q-82 2 -125 7t-70 22.5t-35 43.5t-10 75q0 127 141 134q-66 4 -86 31q-18 27 -18 92q0 30 2.5 49t11.5 36t24 26t41.5 15.5t62 9t87.5 2.5t87.5 -2.5t62 -9t41.5 -15.5t24 -26t11.5 -36
t2.5 -49q0 -59 -32.5 -88.5t-103.5 -34.5q45 -3 110 -43q28 34 28 74zM277 118q83 0 117 24q-30 24 -64.5 39t-56.5 15q-28 0 -39 -8t-11 -31t11.5 -31t42.5 -8zM350 366q0 21 -10.5 28t-39.5 7q-30 0 -40.5 -7t-10.5 -28q0 -20 11.5 -27t39.5 -7t39 7t11 27z" />
    <glyph glyph-name="zerooldstyle" unicode="&#xf730;" horiz-adv-x="630" 
d="M314 -14q-123 0 -184 64t-61 210q0 149 63 209t182 60q121 0 184 -60t63 -209q0 -146 -61 -210t-186 -64zM314 379q-31 0 -41 -22q-11 -22 -11 -100q0 -75 11 -99q10 -22 41 -22q32 0 42 21q11 24 11 100q0 78 -11 100q-10 22 -42 22z" />
    <glyph glyph-name="oneoldstyle" unicode="&#xf731;" horiz-adv-x="630" 
d="M473 529v-529h-194v289l-156 -49l-49 173z" />
    <glyph glyph-name="twooldstyle" unicode="&#xf732;" horiz-adv-x="630" 
d="M112 338l-42 165q106 26 245 26q133 0 186 -36q54 -35 54 -123q0 -69 -44 -118q-43 -47 -165 -100h224v-152h-495v138q165 86 220 122q50 33 50 62q0 27 -13.5 35.5t-57.5 8.5q-34 0 -83 -9q-44 -7 -79 -19z" />
    <glyph glyph-name="threeoldstyle" unicode="&#xf733;" horiz-adv-x="630" 
d="M283 529q158 0 216 -40q58 -39 58 -145q0 -82 -31 -120q-32 -38 -120 -45q93 -4 129 -45t36 -134q0 -110 -65 -154q-64 -45 -223 -45q-135 0 -245 22l34 172q62 -17 160 -17q81 0 106 11q24 11 24 45t-14 45.5t-51 11.5h-118v165h113q37 0 48.5 8.5t11.5 38.5
q0 31 -22 41q-21 10 -98 10q-95 0 -158 -17l-34 168q111 24 243 24z" />
    <glyph glyph-name="fouroldstyle" unicode="&#xf734;" horiz-adv-x="630" 
d="M345 -192v192h-339v65q170 289 284 449h235v-367h87v-147h-87v-192h-180zM229 147h116v192q-50 -70 -116 -192z" />
    <glyph glyph-name="fiveoldstyle" unicode="&#xf735;" horiz-adv-x="630" 
d="M82 92v422h470v-167h-291v-86q50 2 54 2q150 0 203 -49q54 -48 54 -171q0 -141 -60 -193q-59 -53 -216 -53q-59 0 -130 7q-78 6 -115 15l34 172q54 -17 160 -17q77 0 97 11q21 11 21 53q0 40 -20 51t-102 11q-84 0 -159 -8z" />
    <glyph glyph-name="sixoldstyle" unicode="&#xf736;" horiz-adv-x="630" 
d="M365 714q115 0 206 -24l-34 -168q-56 17 -172 17q-62 0 -85 -17t-29 -81q37 5 83 5q150 0 205 -49q56 -48 56 -170q0 -140 -58 -191q-59 -50 -216 -50q-155 0 -216 79t-61 290q0 143 29 221q30 76 97 107q66 31 195 31zM306 285q-1 0 -58 -3q3 -76 17 -98q15 -21 56 -21
q46 0 61 12t15 47q0 38 -17 50q-16 13 -74 13z" />
    <glyph glyph-name="sevenoldstyle" unicode="&#xf737;" horiz-adv-x="630" 
d="M44 514h576v-53q-62 -101 -161 -309q-102 -214 -143 -344h-216q56 154 131 308q79 165 135 231h-322v167z" />
    <glyph glyph-name="eightoldstyle" unicode="&#xf738;" horiz-adv-x="630" 
d="M394 208q0 43 -16.5 60t-60.5 17q-45 0 -61.5 -17t-16.5 -60q0 -40 16 -53.5t62 -13.5t61.5 13.5t15.5 53.5zM317 432q39 0 55 14t16 49q0 37 -15 49t-56 12q-43 0 -58 -12t-15 -49q0 -35 16.5 -49t56.5 -14zM40 185q0 92 34 133t129 46q-90 8 -121 45q-31 38 -31 120
q0 70 19 107q41 78 246 78q110 0 168 -20q56 -20 76.5 -56.5t20.5 -108.5q0 -80 -32 -120q-31 -37 -120 -45q95 -5 129 -46t34 -133q0 -110 -58 -155q-58 -44 -217 -44q-160 0 -219 44q-58 45 -58 155z" />
    <glyph glyph-name="nineoldstyle" unicode="&#xf739;" horiz-adv-x="630" 
d="M376 -192h-229q143 160 196 262h-38q-151 0 -206 48q-55 49 -55 171q0 141 58 190q59 50 216 50q116 0 174 -24q60 -23 81 -72q22 -48 22 -143q0 -132 -54.5 -249t-164.5 -233zM333 231q43 0 56 1q2 18 2 42q0 50 -13 64q-12 15 -60 15q-47 0 -61.5 -11.5t-14.5 -48.5
q0 -41 15 -51q17 -11 76 -11z" />
    <glyph glyph-name="questionsmall" unicode="&#xf73f;" horiz-adv-x="499" 
d="M323 232h-166q66 47 92 74t26 47q0 19 -13.5 27t-53.5 8q-88 0 -164 -21l-22 148q122 22 206 22q144 0 197 -31q55 -31 55 -107q0 -48 -37.5 -87.5t-119.5 -79.5zM237 184q61 0 84 -18q22 -16 22 -74q0 -63 -22 -82t-84 -19q-61 0 -83 19q-21 20 -21 82q0 58 21 74
q22 18 83 18z" />
    <glyph glyph-name="Asmall" unicode="&#xf761;" 
d="M160 514h269q82 -278 177 -514h-187q-19 42 -35 94h-193l-25 -94h-185q63 223 179 514zM296 374h-18q-15 -39 -47 -149h109q-25 77 -44 149z" />
    </font>
</defs>
</svg>
